Grandstander-SemiBoldItalic.ufo
<glyph name="exclam" format="2">
  <advance width="708.0"/>
  <unicode hex="0021"/>
  <outline>
    <contour>
      <point x="420.0" y="421.0" type="curve"/>
      <point x="496.375" y="678.0"/>
      <point x="707.125" y="1310.625"/>
      <point x="765.25" y="1458.875" type="curve"/>
      <point x="449.125" y="1472.625" type="line"/>
      <point x="367.0" y="1199.25"/>
      <point x="254.625" y="749.75"/>
      <point x="186.75" y="433.125" type="curve"/>
      <point x="240.25" y="426.125"/>
      <point x="368.625" y="421.0"/>
    </contour>
    <contour>
      <point x="212.5" y="-27.0" type="curve" smooth="yes"/>
      <point x="330.0" y="-27.0"/>
      <point x="441.625" y="62.0"/>
      <point x="441.625" y="177.5" type="curve" smooth="yes"/>
      <point x="441.625" y="263.0"/>
      <point x="374.875" y="328.5"/>
      <point x="278.875" y="328.5" type="curve" smooth="yes"/>
      <point x="154.125" y="328.5"/>
      <point x="45.5" y="240.125"/>
      <point x="45.5" y="117.125" type="curve" smooth="yes"/>
      <point x="45.5" y="35.5"/>
      <point x="108.875" y="-27.0"/>
    </contour>
  </outline>
</glyph>
<glyph name="quotedbl" format="2">
  <advance width="764.0"/>
  <unicode hex="0022"/>
  <outline>
    <contour>
      <point x="444.75" y="1034.375" type="curve"/>
      <point x="489.125" y="1127.0"/>
      <point x="542.0" y="1285.125"/>
      <point x="572.0" y="1394.0" type="curve" smooth="yes"/>
      <point x="579.25" y="1419.75"/>
      <point x="582.625" y="1440.625"/>
      <point x="583.0" y="1454.5" type="curve"/>
      <point x="559.125" y="1458.0"/>
      <point x="531.5" y="1459.25"/>
      <point x="503.25" y="1459.25" type="curve" smooth="yes"/>
      <point x="450.0" y="1459.25"/>
      <point x="405.75" y="1453.25"/>
      <point x="355.625" y="1443.5" type="curve"/>
      <point x="335.625" y="1366.125"/>
      <point x="299.375" y="1178.0"/>
      <point x="294.125" y="1040.625" type="curve"/>
      <point x="316.875" y="1036.0"/>
      <point x="398.75" y="1034.375"/>
    </contour>
    <contour>
      <point x="572.375" y="1032.375" type="curve"/>
      <point x="598.5" y="1032.0"/>
      <point x="648.625" y="1034.75"/>
      <point x="728.875" y="1044.125" type="curve"/>
      <point x="776.375" y="1138.75"/>
      <point x="870.25" y="1338.125"/>
      <point x="891.25" y="1421.25" type="curve" smooth="yes"/>
      <point x="893.625" y="1430.75"/>
      <point x="895.375" y="1439.0"/>
      <point x="896.375" y="1446.125" type="curve"/>
      <point x="842.625" y="1453.625"/>
      <point x="744.25" y="1456.375"/>
      <point x="673.75" y="1456.0" type="curve"/>
      <point x="665.125" y="1430.5"/>
      <point x="646.875" y="1369.0"/>
      <point x="633.875" y="1319.125" type="curve" smooth="yes"/>
      <point x="613.875" y="1244.875"/>
      <point x="580.75" y="1087.5"/>
    </contour>
  </outline>
</glyph>
<glyph name="numbersign" format="2">
  <advance width="1511.0"/>
  <unicode hex="0023"/>
  <outline>
    <contour>
      <point x="130.625" y="831.25" type="curve"/>
      <point x="335.625" y="835.0"/>
      <point x="631.125" y="845.875"/>
      <point x="927.0" y="858.125" type="curve" smooth="yes"/>
      <point x="1150.5" y="867.625"/>
      <point x="1380.0" y="878.25"/>
      <point x="1570.0" y="884.5" type="curve"/>
      <point x="1589.375" y="924.125"/>
      <point x="1641.0" y="1083.125"/>
      <point x="1652.5" y="1124.25" type="curve"/>
      <point x="1436.5" y="1121.125"/>
      <point x="1172.25" y="1107.375"/>
      <point x="902.125" y="1091.75" type="curve" smooth="yes"/>
      <point x="664.375" y="1078.0"/>
      <point x="385.625" y="1061.75"/>
      <point x="201.75" y="1056.125" type="curve"/>
      <point x="193.375" y="1034.875"/>
      <point x="146.125" y="888.375"/>
    </contour>
    <contour>
      <point x="1367.25" y="394.125" type="curve"/>
      <point x="1385.125" y="429.625"/>
      <point x="1449.125" y="587.875"/>
      <point x="1461.75" y="633.875" type="curve"/>
      <point x="1292.125" y="643.25"/>
      <point x="1113.375" y="647.75"/>
      <point x="934.5" y="648.875" type="curve" smooth="yes"/>
      <point x="787.5" y="650.0"/>
      <point x="640.625" y="649.5"/>
      <point x="495.0" y="646.375" type="curve" smooth="yes"/>
      <point x="345.375" y="642.625"/>
      <point x="199.5" y="637.875"/>
      <point x="62.0" y="631.625" type="curve"/>
      <point x="49.0" y="602.0"/>
      <point x="-1.0" y="459.125"/>
      <point x="-10.875" y="422.25" type="curve"/>
      <point x="79.125" y="428.0"/>
      <point x="181.125" y="430.25"/>
      <point x="290.0" y="430.25" type="curve" smooth="yes"/>
      <point x="436.625" y="430.25"/>
      <point x="598.625" y="428.375"/>
      <point x="759.25" y="421.625" type="curve" smooth="yes"/>
      <point x="969.25" y="413.0"/>
      <point x="1180.5" y="402.25"/>
    </contour>
    <contour>
      <point x="219.125" y="11.25" type="curve"/>
      <point x="269.5" y="11.25"/>
      <point x="444.125" y="23.25"/>
      <point x="484.25" y="30.75" type="curve"/>
      <point x="609.875" y="497.375"/>
      <point x="820.5" y="1182.125"/>
      <point x="918.875" y="1475.75" type="curve"/>
      <point x="835.5" y="1475.75"/>
      <point x="710.625" y="1473.5"/>
      <point x="676.875" y="1466.875" type="curve"/>
      <point x="540.0" y="1095.25"/>
      <point x="361.25" y="540.875"/>
    </contour>
    <contour>
      <point x="778.125" y="63.375" type="curve"/>
      <point x="820.0" y="63.375"/>
      <point x="1005.0" y="89.875"/>
      <point x="1046.0" y="97.625" type="curve"/>
      <point x="1095.875" y="399.625"/>
      <point x="1176.25" y="759.375"/>
      <point x="1261.5" y="1077.25" type="curve" smooth="yes"/>
      <point x="1301.125" y="1225.0"/>
      <point x="1340.75" y="1363.625"/>
      <point x="1379.0" y="1482.75" type="curve"/>
      <point x="1338.0" y="1482.75"/>
      <point x="1182.125" y="1472.625"/>
      <point x="1151.5" y="1467.625" type="curve"/>
      <point x="1080.375" y="1259.125"/>
      <point x="1013.875" y="1037.5"/>
      <point x="953.125" y="811.625" type="curve" smooth="yes"/>
      <point x="886.625" y="563.625"/>
      <point x="826.625" y="308.0"/>
    </contour>
  </outline>
</glyph>
<glyph name="dollar" format="2">
  <advance width="1027.0"/>
  <unicode hex="0024"/>
  <anchor x="395.625" y="73.5" name="bottom"/>
  <anchor x="704.5" y="1254.0" name="top"/>
  <outline>
    <contour>
      <point x="462.0" y="-82.0" type="line"/>
      <point x="479.875" y="-18.625"/>
      <point x="514.625" y="104.875"/>
      <point x="527.625" y="148.875" type="curve"/>
      <point x="291.375" y="162.625" type="line"/>
      <point x="275.75" y="128.625"/>
      <point x="210.75" y="-53.625"/>
      <point x="202.5" y="-83.875" type="curve"/>
    </contour>
    <contour>
      <point x="590.0" y="1207.0" type="curve"/>
      <point x="806.25" y="1208.25" type="line"/>
      <point x="820.375" y="1258.25"/>
      <point x="851.25" y="1372.5"/>
      <point x="862.75" y="1417.5" type="curve"/>
      <point x="652.75" y="1408.625" type="line"/>
      <point x="641.25" y="1374.0"/>
      <point x="602.125" y="1246.0"/>
    </contour>
    <component base="s" xOffset="57.5" yOffset="139.75"/>
  </outline>
</glyph>
<glyph name="percent" format="2">
  <advance width="1385.0"/>
  <unicode hex="0025"/>
  <outline>
    <contour>
      <point x="75.125" y="-31.875" type="curve"/>
      <point x="386.125" y="220.75"/>
      <point x="1133.625" y="919.625"/>
      <point x="1486.75" y="1301.5" type="curve"/>
      <point x="1467.625" y="1343.375"/>
      <point x="1416.125" y="1410.625"/>
      <point x="1363.25" y="1436.875" type="curve"/>
      <point x="1036.625" y="1071.625"/>
      <point x="322.5" y="392.5"/>
      <point x="-50.75" y="78.375" type="curve"/>
      <point x="-25.75" y="48.875"/>
      <point x="46.75" y="-10.5"/>
    </contour>
    <contour>
      <point x="973.25" y="261.125" type="curve" smooth="yes"/>
      <point x="914.5" y="261.125"/>
      <point x="886.75" y="291.5"/>
      <point x="886.75" y="339.625" type="curve" smooth="yes"/>
      <point x="886.75" y="423.875"/>
      <point x="956.0" y="489.875"/>
      <point x="1037.625" y="489.875" type="curve" smooth="yes"/>
      <point x="1089.875" y="489.875"/>
      <point x="1125.25" y="465.0"/>
      <point x="1125.25" y="415.375" type="curve" smooth="yes"/>
      <point x="1125.25" y="334.125"/>
      <point x="1054.5" y="261.125"/>
    </contour>
    <contour>
      <point x="939.125" y="104.5" type="curve" smooth="yes"/>
      <point x="1146.125" y="104.5"/>
      <point x="1284.875" y="242.375"/>
      <point x="1284.875" y="444.25" type="curve" smooth="yes"/>
      <point x="1284.875" y="566.5"/>
      <point x="1211.375" y="641.25"/>
      <point x="1069.625" y="641.25" type="curve" smooth="yes"/>
      <point x="883.625" y="641.25"/>
      <point x="715.25" y="479.625"/>
      <point x="715.25" y="295.5" type="curve" smooth="yes"/>
      <point x="715.25" y="169.625"/>
      <point x="814.0" y="104.5"/>
    </contour>
    <contour>
      <point x="468.0" y="761.625" type="curve" smooth="yes"/>
      <point x="656.375" y="761.625"/>
      <point x="821.625" y="934.125"/>
      <point x="821.625" y="1119.125" type="curve" smooth="yes"/>
      <point x="821.625" y="1244.125"/>
      <point x="721.25" y="1316.75"/>
      <point x="581.25" y="1316.75" type="curve" smooth="yes"/>
      <point x="397.625" y="1316.75"/>
      <point x="230.375" y="1159.625"/>
      <point x="230.375" y="975.375" type="curve" smooth="yes"/>
      <point x="230.375" y="844.5"/>
      <point x="313.125" y="761.625"/>
    </contour>
    <contour>
      <point x="500.875" y="936.875" type="curve" smooth="yes"/>
      <point x="448.25" y="936.875"/>
      <point x="410.375" y="959.5"/>
      <point x="410.375" y="1008.75" type="curve" smooth="yes"/>
      <point x="410.375" y="1092.125"/>
      <point x="476.25" y="1162.375"/>
      <point x="568.625" y="1162.375" type="curve" smooth="yes"/>
      <point x="621.625" y="1162.375"/>
      <point x="648.875" y="1133.0"/>
      <point x="648.875" y="1086.5" type="curve" smooth="yes"/>
      <point x="648.875" y="1003.875"/>
      <point x="591.75" y="936.875"/>
    </contour>
  </outline>
</glyph>
<glyph name="ampersand" format="2">
  <advance width="1395.0"/>
  <unicode hex="0026"/>
  <outline>
    <contour>
      <point x="444.875" y="-103.75" type="curve" smooth="yes"/>
      <point x="706.5" y="-103.75"/>
      <point x="891.0" y="30.875"/>
      <point x="963.375" y="112.875" type="curve"/>
      <point x="986.625" y="68.0"/>
      <point x="1039.375" y="-19.75"/>
      <point x="1071.5" y="-65.5" type="curve"/>
      <point x="1132.0" y="-34.5"/>
      <point x="1215.125" y="42.5"/>
      <point x="1261.375" y="96.75" type="curve"/>
      <point x="1226.75" y="151.125"/>
      <point x="1181.5" y="221.5"/>
      <point x="1139.875" y="276.5" type="curve"/>
      <point x="1205.75" y="338.375"/>
      <point x="1318.125" y="450.75"/>
      <point x="1339.0" y="492.25" type="curve"/>
      <point x="1308.0" y="537.25"/>
      <point x="1226.5" y="595.875"/>
      <point x="1184.625" y="618.125" type="curve"/>
      <point x="1164.0" y="584.0"/>
      <point x="1072.125" y="471.125"/>
      <point x="1028.25" y="432.75" type="curve"/>
      <point x="958.875" y="535.5"/>
      <point x="840.875" y="711.375"/>
      <point x="787.0" y="786.25" type="curve"/>
      <point x="957.0" y="871.375"/>
      <point x="1102.0" y="1000.5"/>
      <point x="1102.0" y="1182.75" type="curve" smooth="yes"/>
      <point x="1102.0" y="1322.25"/>
      <point x="991.125" y="1413.25"/>
      <point x="823.5" y="1413.25" type="curve" smooth="yes"/>
      <point x="605.375" y="1413.25"/>
      <point x="420.875" y="1292.5"/>
      <point x="420.875" y="1085.625" type="curve" smooth="yes"/>
      <point x="420.875" y="993.875"/>
      <point x="470.5" y="900.875"/>
      <point x="518.0" y="841.875" type="curve"/>
      <point x="272.25" y="728.375"/>
      <point x="24.75" y="545.875"/>
      <point x="24.75" y="261.875" type="curve" smooth="yes"/>
      <point x="24.75" y="50.125"/>
      <point x="170.5" y="-103.75"/>
    </contour>
    <contour>
      <point x="485.5" y="104.625" type="curve" smooth="yes"/>
      <point x="351.5" y="104.625"/>
      <point x="279.625" y="177.25"/>
      <point x="279.625" y="288.25" type="curve" smooth="yes"/>
      <point x="279.625" y="483.875"/>
      <point x="455.875" y="593.125"/>
      <point x="618.25" y="688.25" type="curve"/>
      <point x="679.25" y="582.25"/>
      <point x="788.125" y="395.625"/>
      <point x="857.5" y="290.625" type="curve"/>
      <point x="800.375" y="230.5"/>
      <point x="671.375" y="104.625"/>
    </contour>
    <contour>
      <point x="691.375" y="926.25" type="curve"/>
      <point x="666.125" y="962.75"/>
      <point x="643.25" y="1023.625"/>
      <point x="643.25" y="1082.625" type="curve" smooth="yes"/>
      <point x="643.25" y="1175.5"/>
      <point x="706.5" y="1239.75"/>
      <point x="795.375" y="1239.75" type="curve" smooth="yes"/>
      <point x="854.625" y="1239.75"/>
      <point x="883.375" y="1212.375"/>
      <point x="883.375" y="1169.875" type="curve" smooth="yes"/>
      <point x="883.375" y="1074.75"/>
      <point x="780.0" y="977.375"/>
    </contour>
  </outline>
</glyph>
<glyph name="quotesingle" format="2">
  <advance width="462.0"/>
  <unicode hex="0027"/>
  <outline>
    <contour>
      <point x="571.0" y="1381.25" type="curve" smooth="yes"/>
      <point x="578.625" y="1411.375"/>
      <point x="585.625" y="1439.375"/>
      <point x="588.125" y="1454.375" type="curve"/>
      <point x="561.0" y="1457.875"/>
      <point x="531.875" y="1459.5"/>
      <point x="500.5" y="1459.5" type="curve" smooth="yes"/>
      <point x="449.625" y="1459.5"/>
      <point x="394.875" y="1455.0"/>
      <point x="341.375" y="1445.5" type="curve"/>
      <point x="320.875" y="1356.25"/>
      <point x="290.625" y="1098.875"/>
      <point x="280.5" y="1000.125" type="curve"/>
      <point x="308.625" y="997.25"/>
      <point x="334.375" y="994.625"/>
      <point x="361.125" y="994.625" type="curve" smooth="yes"/>
      <point x="383.125" y="994.625"/>
      <point x="406.375" y="995.875"/>
      <point x="435.75" y="998.75" type="curve"/>
      <point x="485.25" y="1105.75"/>
      <point x="543.25" y="1272.5"/>
    </contour>
  </outline>
</glyph>
<glyph name="parenleft" format="2">
  <advance width="677.0"/>
  <unicode hex="0028"/>
  <outline>
    <contour>
      <point x="75.125" y="-511.875" type="curve"/>
      <point x="133.625" y="-488.125"/>
      <point x="281.75" y="-406.5"/>
      <point x="337.625" y="-370.875" type="curve"/>
      <point x="288.625" y="-277.125"/>
      <point x="264.0" y="-90.125"/>
      <point x="264.0" y="67.625" type="curve" smooth="yes"/>
      <point x="264.0" y="569.375"/>
      <point x="495.625" y="1047.0"/>
      <point x="826.75" y="1483.125" type="curve"/>
      <point x="776.25" y="1513.25"/>
      <point x="676.625" y="1548.75"/>
      <point x="582.875" y="1562.75" type="curve"/>
      <point x="234.875" y="1165.25"/>
      <point x="-18.125" y="568.875"/>
      <point x="-18.125" y="24.125" type="curve" smooth="yes"/>
      <point x="-18.125" y="-163.125"/>
      <point x="12.125" y="-400.125"/>
    </contour>
  </outline>
</glyph>
<glyph name="parenright" format="2">
  <advance width="651.0"/>
  <unicode hex="0029"/>
  <outline>
    <contour>
      <point x="390.0" y="1043.375" type="curve" smooth="yes"/>
      <point x="390.0" y="585.375"/>
      <point x="152.625" y="-24.625"/>
      <point x="-162.875" y="-352.0" type="curve"/>
      <point x="-134.5" y="-387.75"/>
      <point x="-5.5" y="-458.75"/>
      <point x="46.125" y="-476.75" type="curve"/>
      <point x="384.875" y="-148.875"/>
      <point x="665.375" y="540.5"/>
      <point x="665.375" y="1031.75" type="curve" smooth="yes"/>
      <point x="665.375" y="1226.875"/>
      <point x="633.0" y="1429.25"/>
      <point x="565.5" y="1560.5" type="curve"/>
      <point x="480.0" y="1542.875"/>
      <point x="390.625" y="1509.875"/>
      <point x="312.125" y="1471.5" type="curve"/>
      <point x="362.75" y="1375.125"/>
      <point x="390.0" y="1210.25"/>
    </contour>
  </outline>
</glyph>
<glyph name="asterisk" format="2">
  <advance width="952.125"/>
  <unicode hex="002A"/>
  <outline>
    <contour>
      <point x="885.625" y="962.25" type="curve"/>
      <point x="913.5" y="989.0"/>
      <point x="1018.875" y="1100.75"/>
      <point x="1041.25" y="1136.75" type="curve"/>
      <point x="959.25" y="1189.75"/>
      <point x="808.875" y="1262.125"/>
      <point x="727.125" y="1297.125" type="curve"/>
      <point x="652.125" y="1360.125"/>
      <point x="486.75" y="1475.25"/>
      <point x="414.875" y="1523.0" type="curve"/>
      <point x="380.625" y="1492.5"/>
      <point x="290.875" y="1389.625"/>
      <point x="263.0" y="1349.625" type="curve"/>
      <point x="347.875" y="1297.25"/>
      <point x="519.625" y="1215.625"/>
      <point x="609.375" y="1176.625" type="curve"/>
      <point x="677.625" y="1112.375"/>
      <point x="809.75" y="1008.75"/>
    </contour>
    <contour>
      <point x="563.625" y="855.5" type="curve" smooth="yes"/>
      <point x="609.0" y="855.5"/>
      <point x="654.0" y="859.375"/>
      <point x="672.625" y="862.625" type="curve"/>
      <point x="694.375" y="950.875"/>
      <point x="732.5" y="1146.875"/>
      <point x="752.125" y="1249.25" type="curve"/>
      <point x="785.25" y="1336.875"/>
      <point x="829.75" y="1471.125"/>
      <point x="859.875" y="1584.75" type="curve"/>
      <point x="842.625" y="1588.375"/>
      <point x="801.0" y="1591.0"/>
      <point x="758.125" y="1591.0" type="curve" smooth="yes"/>
      <point x="715.25" y="1591.0"/>
      <point x="671.125" y="1588.375"/>
      <point x="650.75" y="1584.75" type="curve"/>
      <point x="630.625" y="1496.25"/>
      <point x="604.125" y="1359.75"/>
      <point x="586.5" y="1249.25" type="curve"/>
      <point x="540.375" y="1122.5"/>
      <point x="484.25" y="962.5"/>
      <point x="456.0" y="862.625" type="curve"/>
      <point x="473.0" y="859.0"/>
      <point x="518.5" y="855.5"/>
    </contour>
    <contour>
      <point x="278.875" y="939.75" type="curve"/>
      <point x="398.5" y="997.75"/>
      <point x="558.625" y="1081.75"/>
      <point x="674.25" y="1144.625" type="curve"/>
      <point x="784.25" y="1189.0"/>
      <point x="1006.625" y="1289.375"/>
      <point x="1112.875" y="1340.875" type="curve"/>
      <point x="1107.625" y="1380.875"/>
      <point x="1069.25" y="1492.875"/>
      <point x="1052.875" y="1521.125" type="curve"/>
      <point x="954.125" y="1471.125"/>
      <point x="760.25" y="1361.625"/>
      <point x="656.875" y="1298.25" type="curve"/>
      <point x="545.0" y="1256.0"/>
      <point x="328.25" y="1174.625"/>
      <point x="218.25" y="1121.625" type="curve"/>
      <point x="222.875" y="1087.875"/>
      <point x="267.0" y="963.75"/>
    </contour>
  </outline>
</glyph>
<glyph name="plus" format="2">
  <advance width="1050.0"/>
  <unicode hex="002B"/>
  <outline>
    <contour>
      <point x="978.5" y="610.625" type="curve"/>
      <point x="988.5" y="635.875"/>
      <point x="1035.5" y="768.5"/>
      <point x="1058.0" y="858.625" type="curve"/>
      <point x="946.875" y="840.5"/>
      <point x="717.125" y="829.75"/>
      <point x="490.125" y="829.75" type="curve" smooth="yes"/>
      <point x="330.125" y="829.75"/>
      <point x="179.625" y="834.875"/>
      <point x="114.75" y="842.625" type="curve"/>
      <point x="106.0" y="812.25"/>
      <point x="71.0" y="651.125"/>
      <point x="68.5" y="613.25" type="curve"/>
      <point x="186.375" y="596.625"/>
      <point x="404.375" y="584.625"/>
      <point x="587.25" y="584.625" type="curve" smooth="yes"/>
      <point x="759.625" y="584.625"/>
      <point x="898.0" y="594.625"/>
    </contour>
    <contour>
      <point x="785.625" y="1181.125" type="curve"/>
      <point x="762.25" y="1181.5"/>
      <point x="549.25" y="1173.5"/>
      <point x="518.5" y="1171.625" type="curve"/>
      <point x="505.375" y="1037.875"/>
      <point x="457.25" y="749.5"/>
      <point x="394.625" y="518.875" type="curve" smooth="yes"/>
      <point x="370.0" y="427.25"/>
      <point x="343.5" y="340.5"/>
      <point x="316.5" y="270.625" type="curve"/>
      <point x="349.25" y="267.5"/>
      <point x="516.75" y="261.875"/>
      <point x="550.0" y="263.0" type="curve"/>
      <point x="603.5" y="384.25"/>
      <point x="653.25" y="538.875"/>
      <point x="692.375" y="683.25" type="curve" smooth="yes"/>
      <point x="746.25" y="883.0"/>
      <point x="781.125" y="1076.5"/>
    </contour>
  </outline>
</glyph>
<glyph name="comma" format="2">
  <advance width="667.0"/>
  <unicode hex="002C"/>
  <outline>
    <contour>
      <point x="172.0" y="-290.5" type="curve"/>
      <point x="319.0" y="-199.25"/>
      <point x="439.5" y="-3.5"/>
      <point x="439.5" y="150.625" type="curve" smooth="yes"/>
      <point x="439.5" y="272.875"/>
      <point x="351.625" y="328.625"/>
      <point x="249.875" y="328.625" type="curve" smooth="yes"/>
      <point x="109.0" y="328.625"/>
      <point x="-2.5" y="249.0"/>
      <point x="-2.5" y="117.125" type="curve" smooth="yes"/>
      <point x="-2.5" y="46.625"/>
      <point x="32.375" y="-9.5"/>
      <point x="107.875" y="-9.5" type="curve" smooth="yes"/>
      <point x="164.5" y="-9.5"/>
      <point x="199.375" y="12.75"/>
      <point x="216.25" y="37.0" type="curve"/>
      <point x="216.625" y="34.375"/>
      <point x="216.0" y="29.75"/>
      <point x="215.375" y="26.375" type="curve" smooth="yes"/>
      <point x="209.125" y="-20.375"/>
      <point x="95.375" y="-125.5"/>
      <point x="35.625" y="-158.625" type="curve"/>
      <point x="56.75" y="-227.125"/>
      <point x="151.0" y="-282.0"/>
    </contour>
  </outline>
</glyph>
<glyph name="hyphen" format="2">
  <advance width="907.125"/>
  <unicode hex="002D"/>
  <outline>
    <contour>
      <point x="929.5" y="801.25" type="curve"/>
      <point x="846.75" y="810.75"/>
      <point x="729.875" y="813.875"/>
      <point x="583.5" y="813.875" type="curve" smooth="yes"/>
      <point x="425.25" y="813.875"/>
      <point x="253.5" y="801.875"/>
      <point x="118.625" y="787.25" type="curve"/>
      <point x="101.375" y="749.0"/>
      <point x="53.375" y="607.625"/>
      <point x="37.625" y="543.125" type="curve"/>
      <point x="226.875" y="554.75"/>
      <point x="725.875" y="568.625"/>
      <point x="879.0" y="568.625" type="curve"/>
      <point x="896.25" y="631.75"/>
      <point x="921.75" y="729.125"/>
    </contour>
  </outline>
</glyph>
<glyph name="period" format="2">
  <advance width="632.0"/>
  <unicode hex="002E"/>
  <outline>
    <contour>
      <point x="234.375" y="328.5" type="curve" smooth="yes"/>
      <point x="111.625" y="328.5"/>
      <point x="-0.25" y="242.875"/>
      <point x="-0.25" y="111.875" type="curve" smooth="yes"/>
      <point x="-0.25" y="28.375"/>
      <point x="77.125" y="-38.0"/>
      <point x="167.875" y="-38.0" type="curve" smooth="yes"/>
      <point x="287.125" y="-38.0"/>
      <point x="390.0" y="47.75"/>
      <point x="390.0" y="183.375" type="curve" smooth="yes"/>
      <point x="390.0" y="264.0"/>
      <point x="322.625" y="328.5"/>
    </contour>
  </outline>
</glyph>
<glyph name="slash" format="2">
  <advance width="969.0"/>
  <unicode hex="002F"/>
  <outline>
    <contour>
      <point x="1015.0" y="1517.75" type="curve"/>
      <point x="737.625" y="1094.375"/>
      <point x="181.0" y="328.25"/>
      <point x="-172.25" y="-63.125" type="curve"/>
      <point x="-138.0" y="-106.125"/>
      <point x="-62.375" y="-155.875"/>
      <point x="9.75" y="-173.75" type="curve"/>
      <point x="332.75" y="155.125"/>
      <point x="808.875" y="774.0"/>
      <point x="1202.875" y="1424.875" type="curve"/>
      <point x="1178.625" y="1463.625"/>
      <point x="1124.625" y="1493.875"/>
    </contour>
  </outline>
</glyph>
<glyph name="zero" format="2">
  <advance width="1087.0"/>
  <unicode hex="0030"/>
  <outline>
    <contour>
      <point x="407.625" y="-32.0" type="curve" smooth="yes"/>
      <point x="777.75" y="-32.0"/>
      <point x="1046.0" y="537.625"/>
      <point x="1046.0" y="976.875" type="curve" smooth="yes"/>
      <point x="1046.0" y="1201.25"/>
      <point x="957.625" y="1338.0"/>
      <point x="739.75" y="1338.0" type="curve" smooth="yes"/>
      <point x="365.25" y="1338.0"/>
      <point x="101.5" y="820.75"/>
      <point x="101.5" y="377.0" type="curve" smooth="yes"/>
      <point x="101.5" y="135.125"/>
      <point x="190.5" y="-32.0"/>
    </contour>
    <contour>
      <point x="461.25" y="231.375" type="curve" smooth="yes"/>
      <point x="391.75" y="231.375"/>
      <point x="352.625" y="289.375"/>
      <point x="352.625" y="422.0" type="curve" smooth="yes"/>
      <point x="352.625" y="645.0"/>
      <point x="510.75" y="1101.75"/>
      <point x="693.375" y="1101.75" type="curve" smooth="yes"/>
      <point x="770.375" y="1101.75"/>
      <point x="799.875" y="1023.375"/>
      <point x="799.875" y="901.0" type="curve" smooth="yes"/>
      <point x="799.875" y="675.0"/>
      <point x="642.375" y="231.375"/>
    </contour>
  </outline>
</glyph>
<glyph name="one" format="2">
  <advance width="809.0"/>
  <unicode hex="0031"/>
  <outline>
    <contour>
      <point x="433.625" y="232.875" type="curve"/>
      <point x="476.375" y="355.5"/>
      <point x="519.125" y="490.625"/>
      <point x="550.625" y="610.0" type="curve" smooth="yes"/>
      <point x="644.375" y="963.125"/>
      <point x="711.5" y="1260.75"/>
      <point x="717.25" y="1301.875" type="curve"/>
      <point x="675.625" y="1309.125"/>
      <point x="576.5" y="1313.625"/>
      <point x="525.375" y="1313.625" type="curve"/>
      <point x="421.0" y="1242.5"/>
      <point x="204.75" y="1069.875"/>
      <point x="156.375" y="1030.375" type="curve"/>
      <point x="170.625" y="968.0"/>
      <point x="204.875" y="877.875"/>
      <point x="228.0" y="839.375" type="curve"/>
      <point x="252.0" y="860.625"/>
      <point x="397.875" y="979.375"/>
      <point x="433.125" y="1004.125" type="curve"/>
      <point x="399.875" y="881.125"/>
      <point x="245.875" y="327.875"/>
      <point x="217.5" y="223.5" type="curve"/>
      <point x="181.25" y="221.0"/>
      <point x="49.125" y="208.25"/>
      <point x="3.875" y="199.375" type="curve"/>
      <point x="-14.625" y="159.75"/>
      <point x="-49.0" y="37.75"/>
      <point x="-54.5" y="-12.0" type="curve"/>
      <point x="20.5" y="-4.125"/>
      <point x="500.125" y="9.0"/>
      <point x="556.75" y="9.0" type="curve"/>
      <point x="576.25" y="50.75"/>
      <point x="619.5" y="186.875"/>
      <point x="629.0" y="221.25" type="curve"/>
      <point x="596.625" y="227.0"/>
      <point x="499.125" y="232.875"/>
    </contour>
  </outline>
</glyph>
<glyph name="two" format="2">
  <advance width="995.0"/>
  <unicode hex="0032"/>
  <outline>
    <contour>
      <point x="844.625" y="298.5" type="curve"/>
      <point x="750.375" y="294.125"/>
      <point x="452.0" y="267.5"/>
      <point x="371.25" y="257.5" type="curve"/>
      <point x="416.0" y="292.25"/>
      <point x="564.0" y="426.25"/>
      <point x="723.375" y="579.0" type="curve" smooth="yes"/>
      <point x="884.875" y="733.875"/>
      <point x="1050.125" y="958.25"/>
      <point x="1050.125" y="1144.0" type="curve" smooth="yes"/>
      <point x="1050.125" y="1278.125"/>
      <point x="939.625" y="1364.0"/>
      <point x="778.125" y="1364.0" type="curve" smooth="yes"/>
      <point x="562.5" y="1364.0"/>
      <point x="318.625" y="1220.25"/>
      <point x="184.0" y="1024.625" type="curve"/>
      <point x="216.75" y="988.25"/>
      <point x="316.125" y="914.125"/>
      <point x="359.25" y="884.75" type="curve"/>
      <point x="448.125" y="1007.625"/>
      <point x="575.25" y="1111.0"/>
      <point x="695.625" y="1111.0" type="curve" smooth="yes"/>
      <point x="743.25" y="1111.0"/>
      <point x="782.25" y="1091.5"/>
      <point x="782.25" y="1045.0" type="curve" smooth="yes"/>
      <point x="782.25" y="929.375"/>
      <point x="548.125" y="702.75"/>
      <point x="411.0" y="574.5" type="curve" smooth="yes"/>
      <point x="242.5" y="417.625"/>
      <point x="94.625" y="292.125"/>
      <point x="10.125" y="227.125" type="curve"/>
      <point x="-5.75" y="144.5"/>
      <point x="-14.25" y="5.0"/>
      <point x="-15.25" y="-17.0" type="curve"/>
      <point x="790.875" y="27.0" type="line"/>
      <point x="801.875" y="61.0"/>
      <point x="842.75" y="215.75"/>
    </contour>
  </outline>
</glyph>
<glyph name="three" format="2">
  <advance width="1032.0"/>
  <unicode hex="0033"/>
  <outline>
    <contour>
      <point x="369.375" y="-3.0" type="curve" smooth="yes"/>
      <point x="687.625" y="-3.0"/>
      <point x="927.625" y="173.375"/>
      <point x="927.625" y="457.625" type="curve" smooth="yes"/>
      <point x="927.625" y="602.875"/>
      <point x="837.5" y="705.5"/>
      <point x="699.5" y="728.125" type="curve"/>
      <point x="867.125" y="768.25"/>
      <point x="1024.0" y="901.75"/>
      <point x="1024.0" y="1080.375" type="curve" smooth="yes"/>
      <point x="1024.0" y="1241.375"/>
      <point x="909.375" y="1335.0"/>
      <point x="731.875" y="1335.0" type="curve" smooth="yes"/>
      <point x="476.0" y="1335.0"/>
      <point x="281.625" y="1197.875"/>
      <point x="211.875" y="1130.625" type="curve"/>
      <point x="219.875" y="1115.125"/>
      <point x="281.375" y="1034.25"/>
      <point x="341.875" y="976.375" type="curve"/>
      <point x="406.625" y="1036.5"/>
      <point x="540.375" y="1111.0"/>
      <point x="650.875" y="1111.0" type="curve" smooth="yes"/>
      <point x="728.5" y="1111.0"/>
      <point x="755.75" y="1071.375"/>
      <point x="755.75" y="1019.5" type="curve" smooth="yes"/>
      <point x="755.75" y="867.875"/>
      <point x="517.0" y="779.5"/>
      <point x="348.125" y="779.5" type="curve"/>
      <point x="327.5" y="702.0"/>
      <point x="318.875" y="628.25"/>
      <point x="318.875" y="587.5" type="curve"/>
      <point x="549.5" y="587.5"/>
      <point x="674.375" y="544.875"/>
      <point x="674.375" y="426.875" type="curve" smooth="yes"/>
      <point x="674.375" y="300.375"/>
      <point x="554.625" y="210.25"/>
      <point x="413.25" y="210.25" type="curve" smooth="yes"/>
      <point x="299.875" y="210.25"/>
      <point x="252.75" y="270.75"/>
      <point x="245.875" y="357.5" type="curve"/>
      <point x="169.75" y="333.625"/>
      <point x="63.5" y="284.625"/>
      <point x="-1.625" y="243.375" type="curve"/>
      <point x="12.125" y="85.875"/>
      <point x="155.5" y="-3.0"/>
    </contour>
  </outline>
</glyph>
<glyph name="four" format="2">
  <advance width="1104.0"/>
  <unicode hex="0034"/>
  <outline>
    <contour>
      <point x="980.5" y="342.625" type="curve"/>
      <point x="1000.875" y="417.625"/>
      <point x="1024.25" y="546.25"/>
      <point x="1024.875" y="564.875" type="curve"/>
      <point x="1006.0" y="565.5"/>
      <point x="898.5" y="564.125"/>
      <point x="835.125" y="562.25" type="curve"/>
      <point x="916.625" y="857.125"/>
      <point x="1052.25" y="1288.375"/>
      <point x="1069.75" y="1341.625" type="curve"/>
      <point x="1011.0" y="1342.0"/>
      <point x="849.0" y="1333.125"/>
      <point x="810.625" y="1328.125" type="curve"/>
      <point x="726.25" y="1253.25"/>
      <point x="250.0" y="705.125"/>
      <point x="99.375" y="505.375" type="curve"/>
      <point x="91.375" y="437.0"/>
      <point x="84.25" y="346.375"/>
      <point x="83.5" y="280.75" type="curve"/>
      <point x="136.625" y="287.125"/>
      <point x="378.5" y="313.25"/>
      <point x="533.5" y="324.0" type="curve"/>
      <point x="494.75" y="212.5"/>
      <point x="454.75" y="89.25"/>
      <point x="428.125" y="-10.75" type="curve"/>
      <point x="472.0" y="-10.375"/>
      <point x="631.25" y="0.875"/>
      <point x="691.875" y="11.875" type="curve"/>
      <point x="702.5" y="61.0"/>
      <point x="729.75" y="172.75"/>
      <point x="774.25" y="339.125" type="curve"/>
      <point x="840.25" y="341.5"/>
      <point x="919.75" y="342.625"/>
    </contour>
    <contour>
      <point x="781.875" y="1033.25" type="curve"/>
      <point x="743.125" y="943.0"/>
      <point x="641.5" y="623.25"/>
      <point x="621.0" y="550.875" type="curve"/>
      <point x="554.125" y="549.375"/>
      <point x="384.75" y="530.5"/>
      <point x="355.625" y="526.125" type="curve"/>
      <point x="398.125" y="588.375"/>
      <point x="667.875" y="908.125"/>
    </contour>
  </outline>
</glyph>
<glyph name="five" format="2">
  <advance width="1137.0"/>
  <unicode hex="0035"/>
  <outline>
    <contour>
      <point x="0.25" y="216.25" type="curve"/>
      <point x="73.5" y="64.0"/>
      <point x="272.625" y="4.375"/>
      <point x="451.625" y="4.375" type="curve" smooth="yes"/>
      <point x="803.375" y="4.375"/>
      <point x="1087.875" y="275.625"/>
      <point x="1087.875" y="621.25" type="curve" smooth="yes"/>
      <point x="1087.875" y="810.875"/>
      <point x="992.25" y="947.625"/>
      <point x="803.0" y="947.625" type="curve" smooth="yes"/>
      <point x="672.0" y="947.625"/>
      <point x="560.875" y="870.75"/>
      <point x="525.125" y="812.75" type="curve"/>
      <point x="536.5" y="856.75"/>
      <point x="563.0" y="983.375"/>
      <point x="575.625" y="1054.0" type="curve"/>
      <point x="665.875" y="1070.0"/>
      <point x="916.125" y="1097.625"/>
      <point x="1118.25" y="1107.75" type="curve"/>
      <point x="1120.125" y="1164.875"/>
      <point x="1121.625" y="1289.125"/>
      <point x="1118.5" y="1328.125" type="curve"/>
      <point x="944.875" y="1314.125"/>
      <point x="501.5" y="1248.875"/>
      <point x="336.75" y="1214.125" type="curve"/>
      <point x="308.5" y="1007.375"/>
      <point x="267.125" y="793.75"/>
      <point x="208.0" y="572.375" type="curve"/>
      <point x="230.5" y="571.375"/>
      <point x="291.375" y="570.125"/>
      <point x="321.0" y="570.125" type="curve" smooth="yes"/>
      <point x="380.625" y="570.125"/>
      <point x="419.625" y="573.625"/>
      <point x="451.5" y="578.125" type="curve"/>
      <point x="472.125" y="636.875"/>
      <point x="570.125" y="748.625"/>
      <point x="708.0" y="748.625" type="curve" smooth="yes"/>
      <point x="807.75" y="748.625"/>
      <point x="844.0" y="676.625"/>
      <point x="844.0" y="585.125" type="curve" smooth="yes"/>
      <point x="844.0" y="394.875"/>
      <point x="695.25" y="237.0"/>
      <point x="495.75" y="237.0" type="curve" smooth="yes"/>
      <point x="339.75" y="237.0"/>
      <point x="259.75" y="316.375"/>
      <point x="233.25" y="390.5" type="curve"/>
      <point x="190.125" y="367.875"/>
      <point x="52.75" y="274.5"/>
    </contour>
  </outline>
</glyph>
<glyph name="six" format="2">
  <advance width="1154.0"/>
  <unicode hex="0036"/>
  <outline>
    <contour>
      <point x="1062.875" y="1176.375" type="curve"/>
      <point x="1059.125" y="1239.625"/>
      <point x="1013.75" y="1353.625"/>
      <point x="985.5" y="1376.375" type="curve"/>
      <point x="509.625" y="1231.5"/>
      <point x="107.5" y="793.875"/>
      <point x="107.5" y="335.875" type="curve" smooth="yes"/>
      <point x="107.5" y="132.5"/>
      <point x="236.875" y="-9.0"/>
      <point x="469.5" y="-9.0" type="curve" smooth="yes"/>
      <point x="811.875" y="-9.0"/>
      <point x="1066.5" y="230.625"/>
      <point x="1066.5" y="549.625" type="curve" smooth="yes"/>
      <point x="1066.5" y="720.125"/>
      <point x="959.125" y="836.875"/>
      <point x="791.375" y="836.875" type="curve" smooth="yes"/>
      <point x="660.25" y="836.875"/>
      <point x="531.125" y="784.625"/>
      <point x="443.125" y="698.75" type="curve"/>
      <point x="549.75" y="872.75"/>
      <point x="810.375" y="1097.125"/>
    </contour>
    <contour>
      <point x="450.25" y="529.75" type="curve" smooth="yes"/>
      <point x="512.375" y="586.0"/>
      <point x="607.25" y="626.5"/>
      <point x="698.625" y="626.5" type="curve" smooth="yes"/>
      <point x="783.875" y="626.5"/>
      <point x="822.375" y="578.625"/>
      <point x="822.375" y="503.5" type="curve" smooth="yes"/>
      <point x="822.375" y="348.25"/>
      <point x="684.75" y="224.5"/>
      <point x="529.625" y="224.5" type="curve" smooth="yes"/>
      <point x="427.375" y="224.5"/>
      <point x="368.125" y="274.875"/>
      <point x="368.125" y="357.25" type="curve" smooth="yes"/>
      <point x="368.125" y="421.125"/>
      <point x="400.125" y="484.25"/>
    </contour>
  </outline>
</glyph>
<glyph name="seven" format="2">
  <advance width="1012.0"/>
  <unicode hex="0037"/>
  <outline>
    <contour>
      <point x="275.25" y="-32.875" type="curve"/>
      <point x="489.5" y="333.5"/>
      <point x="683.125" y="627.375"/>
      <point x="1162.25" y="1153.5" type="curve"/>
      <point x="1166.0" y="1180.5"/>
      <point x="1182.5" y="1343.25"/>
      <point x="1181.75" y="1372.25" type="curve"/>
      <point x="1009.125" y="1372.25"/>
      <point x="591.625" y="1308.875"/>
      <point x="297.625" y="1245.875" type="curve"/>
      <point x="283.375" y="1192.75"/>
      <point x="254.625" y="1022.75"/>
      <point x="253.0" y="981.25" type="curve"/>
      <point x="300.75" y="995.125"/>
      <point x="579.625" y="1061.0"/>
      <point x="831.125" y="1097.5" type="curve"/>
      <point x="542.625" y="838.75"/>
      <point x="201.875" y="387.375"/>
      <point x="-3.125" y="60.875" type="curve"/>
      <point x="12.375" y="53.625"/>
      <point x="195.625" y="-12.75"/>
    </contour>
  </outline>
</glyph>
<glyph name="eight" format="2">
  <advance width="1243.0"/>
  <unicode hex="0038"/>
  <outline>
    <contour>
      <point x="527.5" y="-10.25" type="curve" smooth="yes"/>
      <point x="833.375" y="-10.25"/>
      <point x="1110.5" y="172.625"/>
      <point x="1110.5" y="440.625" type="curve" smooth="yes"/>
      <point x="1110.5" y="588.0"/>
      <point x="1029.25" y="683.75"/>
      <point x="933.125" y="699.125" type="curve"/>
      <point x="1096.25" y="745.375"/>
      <point x="1221.5" y="908.125"/>
      <point x="1221.5" y="1091.375" type="curve" smooth="yes"/>
      <point x="1221.5" y="1279.625"/>
      <point x="1064.75" y="1373.875"/>
      <point x="844.0" y="1373.875" type="curve" smooth="yes"/>
      <point x="531.25" y="1373.875"/>
      <point x="278.125" y="1222.875"/>
      <point x="278.125" y="944.5" type="curve" smooth="yes"/>
      <point x="278.125" y="839.5"/>
      <point x="355.5" y="754.375"/>
      <point x="414.125" y="734.25" type="curve"/>
      <point x="231.875" y="678.5"/>
      <point x="65.375" y="506.5"/>
      <point x="65.375" y="292.875" type="curve" smooth="yes"/>
      <point x="65.375" y="93.875"/>
      <point x="233.75" y="-10.25"/>
    </contour>
    <contour>
      <point x="547.125" y="216.5" type="curve" smooth="yes"/>
      <point x="439.625" y="216.5"/>
      <point x="343.875" y="251.375"/>
      <point x="343.875" y="358.0" type="curve" smooth="yes"/>
      <point x="343.875" y="513.625"/>
      <point x="493.875" y="584.625"/>
      <point x="651.25" y="584.625" type="curve" smooth="yes"/>
      <point x="768.75" y="584.625"/>
      <point x="850.5" y="548.625"/>
      <point x="850.5" y="453.25" type="curve" smooth="yes"/>
      <point x="850.5" y="300.5"/>
      <point x="712.0" y="216.5"/>
    </contour>
    <contour>
      <point x="709.75" y="824.625" type="curve" smooth="yes"/>
      <point x="599.125" y="824.625"/>
      <point x="537.25" y="865.5"/>
      <point x="537.25" y="960.875" type="curve" smooth="yes"/>
      <point x="537.25" y="1097.125"/>
      <point x="655.75" y="1167.875"/>
      <point x="795.0" y="1167.875" type="curve" smooth="yes"/>
      <point x="903.375" y="1167.875"/>
      <point x="963.25" y="1129.25"/>
      <point x="963.25" y="1039.125" type="curve" smooth="yes"/>
      <point x="963.25" y="910.0"/>
      <point x="840.5" y="824.625"/>
    </contour>
  </outline>
</glyph>
<glyph name="nine" format="2">
  <advance width="1067.0"/>
  <unicode hex="0039"/>
  <outline>
    <contour>
      <point x="723.25" y="19.875" type="curve"/>
      <point x="871.625" y="278.625"/>
      <point x="1095.375" y="774.0"/>
      <point x="1095.375" y="1034.375" type="curve" smooth="yes"/>
      <point x="1095.375" y="1241.25"/>
      <point x="976.375" y="1364.0"/>
      <point x="736.125" y="1364.0" type="curve" smooth="yes"/>
      <point x="410.875" y="1364.0"/>
      <point x="145.625" y="1139.375"/>
      <point x="145.625" y="806.125" type="curve" smooth="yes"/>
      <point x="145.625" y="609.625"/>
      <point x="244.5" y="482.625"/>
      <point x="459.75" y="482.625" type="curve" smooth="yes"/>
      <point x="597.375" y="482.625"/>
      <point x="690.625" y="535.125"/>
      <point x="730.625" y="583.125" type="curve"/>
      <point x="655.25" y="344.125"/>
      <point x="458.125" y="59.375"/>
      <point x="407.125" y="-0.75" type="curve"/>
      <point x="527.0" y="-0.75"/>
      <point x="659.625" y="7.5"/>
    </contour>
    <contour>
      <point x="703.75" y="1162.125" type="curve" smooth="yes"/>
      <point x="796.5" y="1162.125"/>
      <point x="846.625" y="1113.625"/>
      <point x="846.625" y="1031.125" type="curve" smooth="yes"/>
      <point x="846.625" y="862.125"/>
      <point x="722.625" y="715.125"/>
      <point x="546.5" y="715.125" type="curve" smooth="yes"/>
      <point x="454.5" y="715.125"/>
      <point x="405.25" y="775.375"/>
      <point x="405.25" y="864.375" type="curve" smooth="yes"/>
      <point x="405.25" y="1036.625"/>
      <point x="531.0" y="1162.125"/>
    </contour>
  </outline>
</glyph>
<glyph name="colon" format="2">
  <advance width="564.0"/>
  <unicode hex="003A"/>
  <outline>
    <contour>
      <point x="156.125" y="-9.625" type="curve" smooth="yes"/>
      <point x="256.125" y="-9.625"/>
      <point x="337.875" y="59.875"/>
      <point x="337.875" y="159.375" type="curve" smooth="yes"/>
      <point x="337.875" y="264.0"/>
      <point x="263.375" y="348.625"/>
      <point x="154.125" y="348.625" type="curve" smooth="yes"/>
      <point x="50.375" y="348.625"/>
      <point x="-34.5" y="258.5"/>
      <point x="-34.5" y="158.5" type="curve" smooth="yes"/>
      <point x="-34.5" y="65.75"/>
      <point x="52.0" y="-9.625"/>
    </contour>
    <component base="period" xOffset="141.0" yOffset="690.875"/>
  </outline>
</glyph>
<glyph name="semicolon" format="2">
  <advance width="593.0"/>
  <unicode hex="003B"/>
  <outline>
    <contour>
      <point x="398.125" y="1003.25" type="curve" smooth="yes"/>
      <point x="275.375" y="1003.25"/>
      <point x="163.5" y="917.625"/>
      <point x="163.5" y="786.625" type="curve" smooth="yes"/>
      <point x="163.5" y="703.125"/>
      <point x="240.875" y="636.75"/>
      <point x="331.625" y="636.75" type="curve" smooth="yes"/>
      <point x="450.875" y="636.75"/>
      <point x="553.75" y="722.5"/>
      <point x="553.75" y="858.125" type="curve" smooth="yes"/>
      <point x="553.75" y="938.75"/>
      <point x="486.375" y="1003.25"/>
    </contour>
    <contour>
      <point x="106.625" y="-317.625" type="curve"/>
      <point x="247.125" y="-229.75"/>
      <point x="364.0" y="-41.0"/>
      <point x="364.0" y="106.625" type="curve" smooth="yes"/>
      <point x="364.0" y="223.0"/>
      <point x="279.5" y="276.625"/>
      <point x="181.75" y="276.625" type="curve" smooth="yes"/>
      <point x="47.375" y="276.625"/>
      <point x="-58.875" y="199.75"/>
      <point x="-58.875" y="74.375" type="curve" smooth="yes"/>
      <point x="-58.875" y="6.625"/>
      <point x="-25.875" y="-47.0"/>
      <point x="46.875" y="-47.0" type="curve" smooth="yes"/>
      <point x="102.625" y="-47.0"/>
      <point x="136.625" y="-24.75"/>
      <point x="152.25" y="-0.75" type="curve"/>
      <point x="152.625" y="-3.375"/>
      <point x="152.0" y="-7.375"/>
      <point x="151.375" y="-10.75" type="curve" smooth="yes"/>
      <point x="145.75" y="-56.625"/>
      <point x="35.625" y="-160.375"/>
      <point x="-22.625" y="-192.875" type="curve"/>
      <point x="-2.75" y="-257.375"/>
      <point x="86.25" y="-309.125"/>
    </contour>
  </outline>
</glyph>
<glyph name="less" format="2">
  <advance width="807.0"/>
  <unicode hex="003C"/>
  <outline>
    <contour>
      <point x="798.375" y="1127.625" type="curve"/>
      <point x="700.5" y="1078.125"/>
      <point x="338.125" y="815.75"/>
      <point x="97.625" y="630.75" type="curve"/>
      <point x="39.625" y="429.875" type="line"/>
      <point x="240.25" y="361.75"/>
      <point x="433.0" y="274.5"/>
      <point x="608.75" y="189.5" type="curve"/>
      <point x="641.875" y="247.125"/>
      <point x="687.625" y="343.0"/>
      <point x="703.875" y="398.875" type="curve"/>
      <point x="647.625" y="439.375"/>
      <point x="342.125" y="562.125"/>
      <point x="232.0" y="600.875" type="curve"/>
      <point x="262.75" y="529.625" type="line"/>
      <point x="496.375" y="690.125"/>
      <point x="682.625" y="811.25"/>
      <point x="921.5" y="961.75" type="curve"/>
      <point x="917.625" y="1012.25"/>
      <point x="847.125" y="1092.875"/>
    </contour>
  </outline>
</glyph>
<glyph name="equal" format="2">
  <advance width="1050.0"/>
  <unicode hex="003D"/>
  <outline>
    <contour>
      <point x="221.125" y="1065.125" type="curve"/>
      <point x="198.625" y="1035.375"/>
      <point x="152.5" y="898.375"/>
      <point x="139.0" y="849.5" type="curve"/>
      <point x="305.5" y="857.375"/>
      <point x="929.5" y="874.875"/>
      <point x="1111.75" y="876.75" type="curve"/>
      <point x="1119.875" y="909.0"/>
      <point x="1154.5" y="1090.875"/>
      <point x="1158.375" y="1128.0" type="curve"/>
      <point x="923.375" y="1128.0"/>
      <point x="372.75" y="1094.125"/>
    </contour>
    <contour>
      <point x="58.125" y="632.0" type="curve"/>
      <point x="43.125" y="582.5"/>
      <point x="10.625" y="452.25"/>
      <point x="8.75" y="422.625" type="curve"/>
      <point x="213.0" y="424.375"/>
      <point x="835.5" y="419.75"/>
      <point x="993.875" y="419.75" type="curve"/>
      <point x="1003.0" y="452.0"/>
      <point x="1035.125" y="619.125"/>
      <point x="1038.375" y="656.625" type="curve"/>
      <point x="966.875" y="661.0"/>
      <point x="866.875" y="663.75"/>
      <point x="756.625" y="663.75" type="curve" smooth="yes"/>
      <point x="534.875" y="663.75"/>
      <point x="264.25" y="652.375"/>
    </contour>
  </outline>
</glyph>
<glyph name="greater" format="2">
  <advance width="790.0"/>
  <unicode hex="003E"/>
  <outline>
    <contour>
      <point x="197.375" y="977.75" type="curve"/>
      <point x="307.25" y="899.875"/>
      <point x="546.375" y="719.625"/>
      <point x="622.75" y="655.75" type="curve"/>
      <point x="630.0" y="744.375" type="line"/>
      <point x="425.5" y="637.375"/>
      <point x="37.125" y="425.625"/>
      <point x="-1.25" y="405.75" type="curve"/>
      <point x="-1.25" y="361.625"/>
      <point x="34.5" y="252.25"/>
      <point x="48.0" y="215.875" type="curve"/>
      <point x="90.0" y="225.875"/>
      <point x="476.375" y="398.625"/>
      <point x="778.25" y="543.0" type="curve"/>
      <point x="836.625" y="780.0" type="line"/>
      <point x="673.0" y="921.0"/>
      <point x="438.625" y="1109.25"/>
      <point x="389.0" y="1123.25" type="curve"/>
      <point x="335.375" y="1098.125"/>
      <point x="247.75" y="1025.875"/>
    </contour>
  </outline>
</glyph>
<glyph name="question" format="2">
  <advance width="1036.0"/>
  <unicode hex="003F"/>
  <outline>
    <contour>
      <point x="638.25" y="433.875" type="curve"/>
      <point x="684.875" y="603.375"/>
      <point x="787.625" y="711.25"/>
      <point x="891.25" y="781.5" type="curve" smooth="yes"/>
      <point x="1047.25" y="887.5"/>
      <point x="1153.125" y="1000.25"/>
      <point x="1153.125" y="1196.625" type="curve" smooth="yes"/>
      <point x="1153.125" y="1383.875"/>
      <point x="1005.375" y="1472.0"/>
      <point x="778.0" y="1472.0" type="curve" smooth="yes"/>
      <point x="538.125" y="1472.0"/>
      <point x="321.625" y="1357.125"/>
      <point x="191.375" y="1125.875" type="curve"/>
      <point x="389.0" y="1001.25" type="line"/>
      <point x="476.375" y="1125.125"/>
      <point x="565.0" y="1228.625"/>
      <point x="725.75" y="1228.625" type="curve" smooth="yes"/>
      <point x="812.625" y="1228.625"/>
      <point x="856.25" y="1194.875"/>
      <point x="856.25" y="1128.875" type="curve" smooth="yes"/>
      <point x="856.25" y="1034.875"/>
      <point x="777.625" y="958.625"/>
      <point x="662.5" y="884.875" type="curve" smooth="yes"/>
      <point x="491.5" y="773.75"/>
      <point x="400.75" y="625.5"/>
      <point x="353.875" y="449.5" type="curve"/>
      <point x="448.25" y="438.875"/>
      <point x="521.0" y="433.875"/>
    </contour>
    <contour>
      <point x="402.625" y="-10.0" type="curve" smooth="yes"/>
      <point x="516.625" y="-10.0"/>
      <point x="632.25" y="80.25"/>
      <point x="632.25" y="193.5" type="curve" smooth="yes"/>
      <point x="632.25" y="271.875"/>
      <point x="570.5" y="325.75"/>
      <point x="471.5" y="325.75" type="curve" smooth="yes"/>
      <point x="365.5" y="325.75"/>
      <point x="248.0" y="251.625"/>
      <point x="248.0" y="131.125" type="curve" smooth="yes"/>
      <point x="248.0" y="43.0"/>
      <point x="312.375" y="-10.0"/>
    </contour>
  </outline>
</glyph>
<glyph name="at" format="2">
  <advance width="1920.0"/>
  <unicode hex="0040"/>
  <outline>
    <contour>
      <point x="755.5" y="-41.0" type="curve" smooth="yes"/>
      <point x="1050.25" y="-41.0"/>
      <point x="1275.5" y="47.5"/>
      <point x="1389.75" y="178.0" type="curve"/>
      <point x="1236.875" y="316.75" type="line"/>
      <point x="1155.25" y="233.75"/>
      <point x="1015.875" y="159.0"/>
      <point x="807.375" y="159.0" type="curve" smooth="yes"/>
      <point x="521.875" y="159.0"/>
      <point x="342.125" y="304.25"/>
      <point x="342.125" y="562.875" type="curve" smooth="yes"/>
      <point x="342.125" y="1006.25"/>
      <point x="778.375" y="1290.25"/>
      <point x="1237.5" y="1290.25" type="curve" smooth="yes"/>
      <point x="1538.625" y="1290.25"/>
      <point x="1693.875" y="1158.625"/>
      <point x="1693.875" y="898.125" type="curve" smooth="yes"/>
      <point x="1693.875" y="742.375"/>
      <point x="1628.625" y="549.875"/>
      <point x="1509.0" y="549.875" type="curve" smooth="yes"/>
      <point x="1451.75" y="549.875"/>
      <point x="1430.0" y="574.5"/>
      <point x="1430.0" y="647.25" type="curve" smooth="yes"/>
      <point x="1430.0" y="678.375"/>
      <point x="1445.0" y="931.25"/>
      <point x="1461.5" y="1118.625" type="curve"/>
      <point x="1415.625" y="1116.375"/>
      <point x="1314.25" y="1112.125"/>
      <point x="1276.125" y="1111.0" type="curve"/>
      <point x="1272.375" y="1093.25"/>
      <point x="1266.375" y="1055.0"/>
      <point x="1264.625" y="1031.0" type="curve"/>
      <point x="1233.25" y="1063.0"/>
      <point x="1164.875" y="1089.375"/>
      <point x="1067.0" y="1089.375" type="curve" smooth="yes"/>
      <point x="812.875" y="1089.375"/>
      <point x="583.625" y="874.375"/>
      <point x="583.625" y="616.125" type="curve" smooth="yes"/>
      <point x="583.625" y="454.5"/>
      <point x="685.25" y="352.25"/>
      <point x="876.5" y="352.25" type="curve" smooth="yes"/>
      <point x="1025.25" y="352.25"/>
      <point x="1174.75" y="409.375"/>
      <point x="1248.0" y="513.5" type="curve"/>
      <point x="1253.25" y="410.375"/>
      <point x="1347.375" y="349.0"/>
      <point x="1468.375" y="349.0" type="curve" smooth="yes"/>
      <point x="1751.25" y="349.0"/>
      <point x="1922.875" y="617.25"/>
      <point x="1922.875" y="932.375" type="curve" smooth="yes"/>
      <point x="1922.875" y="1296.0"/>
      <point x="1667.5" y="1497.0"/>
      <point x="1252.0" y="1497.0" type="curve" smooth="yes"/>
      <point x="639.25" y="1497.0"/>
      <point x="87.0" y="1091.125"/>
      <point x="87.0" y="513.875" type="curve" smooth="yes"/>
      <point x="87.0" y="166.625"/>
      <point x="356.875" y="-41.0"/>
    </contour>
    <contour>
      <point x="960.875" y="559.0" type="curve" smooth="yes"/>
      <point x="887.25" y="559.0"/>
      <point x="828.5" y="599.25"/>
      <point x="828.5" y="672.625" type="curve" smooth="yes"/>
      <point x="828.5" y="790.5"/>
      <point x="924.5" y="893.625"/>
      <point x="1087.75" y="893.625" type="curve" smooth="yes"/>
      <point x="1160.375" y="893.625"/>
      <point x="1215.5" y="874.875"/>
      <point x="1244.375" y="851.375" type="curve"/>
      <point x="1235.0" y="694.0" type="line"/>
      <point x="1169.625" y="615.875"/>
      <point x="1075.75" y="559.0"/>
    </contour>
  </outline>
</glyph>
<glyph name="A" format="2">
  <advance width="1129.125"/>
  <unicode hex="0041"/>
  <anchor x="483.75" y="0.0" name="bottom"/>
  <anchor x="822.75" y="3.125" name="ogonek"/>
  <anchor x="864.75" y="1331.75" name="top"/>
  <outline>
    <contour>
      <point x="209.875" y="-15.0" type="curve"/>
      <point x="243.25" y="69.75"/>
      <point x="315.0" y="230.5"/>
      <point x="387.75" y="378.75" type="curve"/>
      <point x="427.75" y="386.75"/>
      <point x="625.25" y="402.0"/>
      <point x="731.625" y="403.25" type="curve"/>
      <point x="704.125" y="294.5"/>
      <point x="656.375" y="80.0"/>
      <point x="638.375" y="-15.0" type="curve"/>
      <point x="728.625" y="-15.0"/>
      <point x="877.625" y="-7.0"/>
      <point x="940.375" y="2.5" type="curve"/>
      <point x="1079.5" y="722.25"/>
      <point x="1124.5" y="1089.0"/>
      <point x="1134.875" y="1323.0" type="curve"/>
      <point x="1074.25" y="1330.75"/>
      <point x="1009.75" y="1334.625"/>
      <point x="945.375" y="1334.625" type="curve" smooth="yes"/>
      <point x="821.875" y="1334.625"/>
      <point x="685.5" y="1321.0"/>
      <point x="564.25" y="1305.25" type="curve"/>
      <point x="376.625" y="961.0"/>
      <point x="15.875" y="231.25"/>
      <point x="-87.625" y="-3.875" type="curve"/>
      <point x="-16.0" y="-8.875"/>
      <point x="149.125" y="-15.0"/>
    </contour>
    <contour>
      <point x="490.25" y="622.125" type="curve"/>
      <point x="564.625" y="785.875"/>
      <point x="669.5" y="1009.25"/>
      <point x="705.875" y="1083.5" type="curve"/>
      <point x="733.25" y="1087.0"/>
      <point x="840.5" y="1095.0"/>
      <point x="878.25" y="1095.0" type="curve"/>
      <point x="869.375" y="1021.0"/>
      <point x="803.25" y="711.5"/>
      <point x="789.75" y="645.75" type="curve"/>
      <point x="709.125" y="643.5"/>
      <point x="547.125" y="632.5"/>
    </contour>
  </outline>
</glyph>
<glyph name="B" format="2">
  <advance width="1174.0"/>
  <unicode hex="0042"/>
  <anchor x="444.585" y="0.0" name="bottom"/>
  <anchor x="790.507" y="1291.0" name="top"/>
  <outline>
    <contour>
      <point x="-8.375" y="21.375" type="curve"/>
      <point x="49.375" y="8.5"/>
      <point x="140.75" y="2.75"/>
      <point x="232.875" y="2.75" type="curve" smooth="yes"/>
      <point x="660.625" y="2.75"/>
      <point x="1066.75" y="112.0"/>
      <point x="1066.75" y="465.25" type="curve" smooth="yes"/>
      <point x="1066.75" y="606.25"/>
      <point x="969.25" y="701.875"/>
      <point x="825.625" y="709.375" type="curve" smooth="yes"/>
      <point x="815.125" y="710.0"/>
      <point x="810.375" y="710.0"/>
      <point x="804.5" y="710.0" type="curve"/>
      <point x="964.75" y="739.75"/>
      <point x="1122.5" y="883.0"/>
      <point x="1122.5" y="1061.5" type="curve" smooth="yes"/>
      <point x="1122.5" y="1234.25"/>
      <point x="991.375" y="1306.0"/>
      <point x="797.125" y="1306.0" type="curve" smooth="yes"/>
      <point x="635.875" y="1306.0"/>
      <point x="452.0" y="1293.375"/>
      <point x="352.875" y="1285.0" type="curve"/>
      <point x="343.375" y="1251.125"/>
      <point x="40.25" y="203.0"/>
    </contour>
    <contour>
      <point x="345.5" y="263.125" type="curve"/>
      <point x="423.875" y="568.125" type="line"/>
      <point x="470.125" y="573.125"/>
      <point x="551.625" y="575.125"/>
      <point x="585.625" y="575.125" type="curve" smooth="yes"/>
      <point x="741.5" y="575.125"/>
      <point x="805.25" y="540.875"/>
      <point x="805.25" y="462.25" type="curve" smooth="yes"/>
      <point x="805.25" y="291.25"/>
      <point x="577.625" y="262.5"/>
      <point x="394.5" y="262.5" type="curve" smooth="yes"/>
      <point x="373.5" y="262.5"/>
      <point x="355.625" y="262.5"/>
    </contour>
    <contour>
      <point x="479.625" y="790.625" type="curve"/>
      <point x="555.5" y="1090.375" type="line"/>
      <point x="599.375" y="1096.125"/>
      <point x="672.0" y="1104.75"/>
      <point x="729.0" y="1104.75" type="curve" smooth="yes"/>
      <point x="813.5" y="1104.75"/>
      <point x="867.875" y="1074.875"/>
      <point x="867.875" y="994.25" type="curve" smooth="yes"/>
      <point x="867.875" y="889.0"/>
      <point x="764.625" y="834.5"/>
      <point x="669.25" y="812.0" type="curve" smooth="yes"/>
      <point x="626.375" y="795.125"/>
      <point x="575.75" y="791.375"/>
    </contour>
  </outline>
</glyph>
<glyph name="C" format="2">
  <advance width="1137.0"/>
  <unicode hex="0043"/>
  <anchor x="415.49062499999997" y="0.0" name="bottom"/>
  <anchor x="761.441875" y="1291.0" name="top"/>
  <outline>
    <contour>
      <point x="1030.0" y="224.0" type="curve"/>
      <point x="1009.0" y="285.875"/>
      <point x="932.125" y="395.75"/>
      <point x="881.75" y="438.625" type="curve"/>
      <point x="793.75" y="356.625"/>
      <point x="676.5" y="270.75"/>
      <point x="548.625" y="270.75" type="curve" smooth="yes"/>
      <point x="427.125" y="270.75"/>
      <point x="374.5" y="375.125"/>
      <point x="374.5" y="533.75" type="curve" smooth="yes"/>
      <point x="374.5" y="782.5"/>
      <point x="532.25" y="1079.125"/>
      <point x="762.375" y="1079.125" type="curve" smooth="yes"/>
      <point x="931.875" y="1079.125"/>
      <point x="967.75" y="942.0"/>
      <point x="971.375" y="910.5" type="curve"/>
      <point x="1038.25" y="946.5"/>
      <point x="1160.625" y="1026.5"/>
      <point x="1221.5" y="1078.625" type="curve"/>
      <point x="1173.125" y="1240.0"/>
      <point x="994.5" y="1326.0"/>
      <point x="799.25" y="1326.0" type="curve" smooth="yes"/>
      <point x="377.75" y="1326.0"/>
      <point x="62.625" y="919.5"/>
      <point x="62.625" y="469.25" type="curve" smooth="yes"/>
      <point x="62.625" y="206.625"/>
      <point x="208.125" y="-11.375"/>
      <point x="500.625" y="-11.375" type="curve" smooth="yes"/>
      <point x="719.5" y="-11.375"/>
      <point x="897.5" y="93.25"/>
    </contour>
  </outline>
</glyph>
<glyph name="D" format="2">
  <advance width="1198.0"/>
  <unicode hex="0044"/>
  <anchor x="456.585" y="0.0" name="bottom"/>
  <anchor x="376.875" y="646.0" name="center"/>
  <anchor x="716.0" y="1291.0" name="top"/>
  <outline>
    <contour>
      <point x="57.625" y="-31.375" type="curve"/>
      <point x="814.625" y="-22.75"/>
      <point x="1155.875" y="225.25"/>
      <point x="1155.875" y="819.125" type="curve" smooth="yes"/>
      <point x="1155.875" y="1110.625"/>
      <point x="1023.375" y="1325.0"/>
      <point x="642.75" y="1325.0" type="curve" smooth="yes"/>
      <point x="523.125" y="1325.0"/>
      <point x="375.625" y="1309.25"/>
      <point x="302.875" y="1299.0" type="curve"/>
      <point x="282.125" y="1195.5"/>
      <point x="91.625" y="193.375"/>
    </contour>
    <contour>
      <point x="395.875" y="258.0" type="curve"/>
      <point x="447.125" y="513.25"/>
      <point x="502.625" y="807.5"/>
      <point x="554.625" y="1079.625" type="curve"/>
      <point x="579.625" y="1081.375"/>
      <point x="626.625" y="1082.875"/>
      <point x="653.75" y="1082.875" type="curve" smooth="yes"/>
      <point x="819.75" y="1082.875"/>
      <point x="869.625" y="963.0"/>
      <point x="869.625" y="798.625" type="curve" smooth="yes"/>
      <point x="869.625" y="515.875"/>
      <point x="740.875" y="273.0"/>
    </contour>
  </outline>
</glyph>
<glyph name="E" format="2">
  <advance width="957.0"/>
  <unicode hex="0045"/>
  <anchor x="336.844375" y="0.0" name="bottom"/>
  <anchor x="592.25" y="0.0" name="ogonek"/>
  <anchor x="683.0" y="1317.25" name="top"/>
  <anchor x="223.815125" y="1291.0" name="topleft"/>
  <outline>
    <contour>
      <point x="688.0" y="-12.75" type="curve"/>
      <point x="705.5" y="17.125"/>
      <point x="768.25" y="181.5"/>
      <point x="794.5" y="275.125" type="curve"/>
      <point x="736.375" y="279.875"/>
      <point x="618.625" y="286.25"/>
      <point x="507.75" y="286.25" type="curve" smooth="yes"/>
      <point x="432.875" y="286.25"/>
      <point x="343.375" y="285.875"/>
      <point x="321.75" y="285.125" type="curve"/>
      <point x="340.125" y="353.625"/>
      <point x="399.875" y="569.75"/>
      <point x="411.125" y="606.875" type="curve"/>
      <point x="465.25" y="608.0"/>
      <point x="697.125" y="599.625"/>
      <point x="743.375" y="597.75" type="curve"/>
      <point x="805.375" y="827.0" type="line"/>
      <point x="716.5" y="825.75"/>
      <point x="551.0" y="819.375"/>
      <point x="473.875" y="818.25" type="curve"/>
      <point x="485.625" y="862.0"/>
      <point x="528.125" y="1016.5"/>
      <point x="543.625" y="1060.125" type="curve"/>
      <point x="1008.25" y="1097.125" type="line"/>
      <point x="1037.625" y="1178.5"/>
      <point x="1061.375" y="1247.75"/>
      <point x="1082.25" y="1325.5" type="curve"/>
      <point x="1027.25" y="1325.5"/>
      <point x="707.75" y="1317.125"/>
      <point x="319.5" y="1251.0" type="curve"/>
      <point x="290.75" y="1162.75"/>
      <point x="225.625" y="945.375"/>
      <point x="142.625" y="636.25" type="curve" smooth="yes"/>
      <point x="93.0" y="451.125"/>
      <point x="40.125" y="240.125"/>
      <point x="-10.5" y="20.125" type="curve"/>
      <point x="88.5" y="15.875"/>
      <point x="194.875" y="11.25"/>
      <point x="293.5" y="6.875" type="curve" smooth="yes"/>
      <point x="428.5" y="2.5"/>
      <point x="555.25" y="-4.375"/>
    </contour>
  </outline>
</glyph>
<glyph name="F" format="2">
  <advance width="949.0"/>
  <unicode hex="0046"/>
  <anchor x="320.344375" y="0.0" name="bottom"/>
  <anchor x="666.315125" y="1291.0" name="top"/>
  <outline>
    <contour>
      <point x="321.25" y="-9.75" type="line"/>
      <point x="369.125" y="169.375"/>
      <point x="415.625" y="402.625"/>
      <point x="446.625" y="569.875" type="curve"/>
      <point x="559.875" y="569.875"/>
      <point x="709.125" y="559.25"/>
      <point x="800.25" y="549.0" type="curve"/>
      <point x="828.0" y="622.5"/>
      <point x="852.5" y="705.875"/>
      <point x="867.875" y="774.75" type="curve"/>
      <point x="823.75" y="783.0"/>
      <point x="652.125" y="801.875"/>
      <point x="489.875" y="801.875" type="curve"/>
      <point x="507.375" y="883.125"/>
      <point x="532.25" y="1001.0"/>
      <point x="541.875" y="1059.125" type="curve"/>
      <point x="757.25" y="1059.125"/>
      <point x="941.75" y="1044.375"/>
      <point x="1016.0" y="1036.875" type="curve"/>
      <point x="1032.875" y="1099.375"/>
      <point x="1054.75" y="1197.625"/>
      <point x="1069.875" y="1280.0" type="curve"/>
      <point x="982.0" y="1296.375"/>
      <point x="869.25" y="1308.375"/>
      <point x="724.875" y="1309.875" type="curve" smooth="yes"/>
      <point x="609.25" y="1311.0"/>
      <point x="474.125" y="1310.125"/>
      <point x="326.375" y="1303.25" type="curve"/>
      <point x="237.625" y="892.625"/>
      <point x="132.75" y="434.125"/>
      <point x="24.5" y="6.125" type="curve"/>
    </contour>
  </outline>
</glyph>
<glyph name="G" format="2">
  <advance width="1275.0"/>
  <unicode hex="0047"/>
  <anchor x="495.585" y="0.0" name="bottom"/>
  <anchor x="841.507" y="1291.0" name="top"/>
  <outline>
    <contour>
      <point x="598.375" y="-48.0" type="curve" smooth="yes"/>
      <point x="939.75" y="-48.0"/>
      <point x="1128.5" y="189.875"/>
      <point x="1207.625" y="486.125" type="curve" smooth="yes"/>
      <point x="1221.375" y="538.125"/>
      <point x="1232.75" y="604.625"/>
      <point x="1236.5" y="655.75" type="curve"/>
      <point x="1092.5" y="693.625"/>
      <point x="831.125" y="724.875"/>
      <point x="688.625" y="728.625" type="curve"/>
      <point x="669.75" y="680.0"/>
      <point x="638.375" y="573.25"/>
      <point x="626.375" y="524.625" type="curve"/>
      <point x="704.125" y="521.625"/>
      <point x="888.125" y="496.625"/>
      <point x="935.625" y="484.875" type="curve"/>
      <point x="932.75" y="469.0"/>
      <point x="928.75" y="449.375"/>
      <point x="923.875" y="429.75" type="curve" smooth="yes"/>
      <point x="891.375" y="308.125"/>
      <point x="794.75" y="200.375"/>
      <point x="638.0" y="200.375" type="curve" smooth="yes"/>
      <point x="460.25" y="200.375"/>
      <point x="394.25" y="300.625"/>
      <point x="394.25" y="464.375" type="curve" smooth="yes"/>
      <point x="394.25" y="748.375"/>
      <point x="555.0" y="1068.0"/>
      <point x="816.875" y="1068.0" type="curve" smooth="yes"/>
      <point x="946.125" y="1068.0"/>
      <point x="1006.0" y="1013.75"/>
      <point x="1040.25" y="928.125" type="curve"/>
      <point x="1134.0" y="977.625"/>
      <point x="1259.375" y="1074.625"/>
      <point x="1301.5" y="1113.125" type="curve"/>
      <point x="1249.875" y="1241.5"/>
      <point x="1072.125" y="1338.0"/>
      <point x="861.625" y="1338.0" type="curve" smooth="yes"/>
      <point x="400.5" y="1338.0"/>
      <point x="110.5" y="910.0"/>
      <point x="110.5" y="431.625" type="curve" smooth="yes"/>
      <point x="110.5" y="129.375"/>
      <point x="282.125" y="-48.0"/>
    </contour>
  </outline>
</glyph>
<glyph name="H" format="2">
  <advance width="1094.0"/>
  <unicode hex="0048"/>
  <anchor x="427.24062499999997" y="0.0" name="bottom"/>
  <anchor x="714.75" y="1063.0" name="center"/>
  <anchor x="739.441875" y="1291.0" name="top"/>
  <anchor x="223.507" y="1291.0" name="topleft"/>
  <outline>
    <contour>
      <point x="17.5" y="2.375" type="curve"/>
      <point x="80.125" y="2.375"/>
      <point x="246.0" y="8.25"/>
      <point x="302.125" y="15.25" type="curve"/>
      <point x="308.25" y="42.5"/>
      <point x="375.25" y="342.5"/>
      <point x="418.0" y="532.875" type="curve"/>
      <point x="481.625" y="532.875"/>
      <point x="644.375" y="536.625"/>
      <point x="713.75" y="538.625" type="curve"/>
      <point x="669.0" y="386.625"/>
      <point x="620.375" y="207.0"/>
      <point x="570.5" y="0.5" type="curve"/>
      <point x="667.375" y="0.5"/>
      <point x="787.0" y="4.0"/>
      <point x="829.75" y="8.25" type="curve"/>
      <point x="855.375" y="106.75"/>
      <point x="907.75" y="295.25"/>
      <point x="966.625" y="490.75" type="curve" smooth="yes"/>
      <point x="1059.0" y="804.75"/>
      <point x="1179.0" y="1189.75"/>
      <point x="1224.625" y="1299.0" type="curve"/>
      <point x="1190.625" y="1303.625"/>
      <point x="1110.875" y="1307.5"/>
      <point x="1037.5" y="1307.5" type="curve" smooth="yes"/>
      <point x="1001.0" y="1307.5"/>
      <point x="959.625" y="1305.625"/>
      <point x="938.75" y="1304.0" type="curve"/>
      <point x="889.625" y="1145.75"/>
      <point x="825.25" y="930.5"/>
      <point x="782.0" y="786.875" type="curve"/>
      <point x="717.25" y="785.75"/>
      <point x="546.625" y="778.5"/>
      <point x="471.25" y="770.5" type="curve"/>
      <point x="481.0" y="810.25"/>
      <point x="510.375" y="934.375"/>
      <point x="537.5" y="1042.375" type="curve" smooth="yes"/>
      <point x="557.875" y="1124.0"/>
      <point x="583.75" y="1228.5"/>
      <point x="598.875" y="1294.0" type="curve"/>
      <point x="528.25" y="1294.0"/>
      <point x="351.875" y="1285.0"/>
      <point x="325.625" y="1282.0" type="curve"/>
      <point x="308.375" y="1232.125"/>
      <point x="286.25" y="1156.625"/>
      <point x="262.375" y="1065.5" type="curve" smooth="yes"/>
      <point x="171.125" y="717.0"/>
      <point x="39.75" y="147.75"/>
    </contour>
  </outline>
</glyph>
<glyph name="I" format="2">
  <advance width="550.125"/>
  <unicode hex="0049"/>
  <anchor x="130.125" y="0.0" name="bottom"/>
  <anchor x="253.0" y="-15.0" name="ogonek"/>
  <anchor x="476.125" y="1291.0" name="top"/>
  <anchor x="232.75" y="1291.0" name="topleft"/>
  <outline>
    <contour>
      <point x="253.0" y="-15.0" type="curve"/>
      <point x="290.0" y="76.0"/>
      <point x="373.375" y="372.0"/>
      <point x="424.0" y="561.125" type="curve" smooth="yes"/>
      <point x="486.875" y="797.5"/>
      <point x="559.5" y="1096.125"/>
      <point x="610.625" y="1321.875" type="curve"/>
      <point x="540.75" y="1321.875"/>
      <point x="385.25" y="1317.75"/>
      <point x="345.625" y="1315.75" type="curve"/>
      <point x="270.375" y="1054.0"/>
      <point x="202.375" y="810.625"/>
      <point x="147.75" y="605.875" type="curve" smooth="yes"/>
      <point x="93.125" y="400.5"/>
      <point x="25.125" y="131.25"/>
      <point x="-6.625" y="-3.5" type="curve"/>
      <point x="64.75" y="-13.625"/>
      <point x="185.375" y="-15.0"/>
    </contour>
  </outline>
</glyph>
<glyph name="J" format="2">
  <advance width="1178.0"/>
  <unicode hex="004A"/>
  <anchor x="446.585" y="0.0" name="bottom"/>
  <anchor x="1068.125" y="1291.0" name="top"/>
  <outline>
    <contour>
      <point x="463.25" y="-19.0" type="curve" smooth="yes"/>
      <point x="773.375" y="-19.0"/>
      <point x="975.5" y="163.875"/>
      <point x="1087.125" y="603.125" type="curve" smooth="yes"/>
      <point x="1133.375" y="783.75"/>
      <point x="1203.625" y="1118.375"/>
      <point x="1234.125" y="1291.25" type="curve"/>
      <point x="1194.25" y="1296.625"/>
      <point x="1153.0" y="1298.625"/>
      <point x="1100.0" y="1298.625" type="curve" smooth="yes"/>
      <point x="1049.75" y="1298.625"/>
      <point x="986.375" y="1292.25"/>
      <point x="938.75" y="1283.0" type="curve"/>
      <point x="936.125" y="1261.0"/>
      <point x="855.875" y="823.25"/>
      <point x="800.875" y="616.625" type="curve" smooth="yes"/>
      <point x="737.75" y="380.75"/>
      <point x="655.375" y="251.125"/>
      <point x="519.375" y="251.125" type="curve" smooth="yes"/>
      <point x="390.5" y="251.125"/>
      <point x="329.375" y="376.125"/>
      <point x="329.375" y="531.125" type="curve"/>
      <point x="256.125" y="506.0"/>
      <point x="83.625" y="434.0"/>
      <point x="31.0" y="401.875" type="curve"/>
      <point x="35.125" y="146.0"/>
      <point x="189.625" y="-19.0"/>
    </contour>
  </outline>
</glyph>
<glyph name="K" format="2">
  <advance width="1094.75"/>
  <unicode hex="004B"/>
  <anchor x="415.585" y="0.0" name="bottom"/>
  <anchor x="761.507" y="1291.0" name="top"/>
  <outline>
    <contour>
      <point x="1.625" y="-32.0" type="curve"/>
      <point x="122.5" y="-19.5"/>
      <point x="267.0" y="-5.125"/>
      <point x="302.0" y="-2.75" type="curve"/>
      <point x="312.0" y="33.875"/>
      <point x="371.0" y="312.875"/>
      <point x="405.75" y="488.5" type="curve"/>
      <point x="427.375" y="497.25"/>
      <point x="464.5" y="514.875"/>
      <point x="490.5" y="531.875" type="curve"/>
      <point x="579.5" y="381.625"/>
      <point x="659.375" y="70.875"/>
      <point x="670.25" y="-2.375" type="curve"/>
      <point x="755.0" y="23.125"/>
      <point x="896.5" y="86.875"/>
      <point x="950.75" y="118.5" type="curve"/>
      <point x="938.0" y="192.125"/>
      <point x="823.375" y="493.25"/>
      <point x="702.875" y="679.875" type="curve"/>
      <point x="925.625" y="830.75"/>
      <point x="1156.75" y="1083.125"/>
      <point x="1213.375" y="1157.75" type="curve"/>
      <point x="1179.75" y="1177.875"/>
      <point x="1083.75" y="1243.25"/>
      <point x="1013.0" y="1305.75" type="curve"/>
      <point x="829.5" y="1078.25"/>
      <point x="598.125" y="869.875"/>
      <point x="463.375" y="774.875" type="curve"/>
      <point x="503.125" y="962.0"/>
      <point x="565.375" y="1230.875"/>
      <point x="580.0" y="1297.0" type="curve"/>
      <point x="554.25" y="1302.125"/>
      <point x="504.0" y="1306.875"/>
      <point x="448.75" y="1306.875" type="curve" smooth="yes"/>
      <point x="402.375" y="1306.875"/>
      <point x="343.125" y="1303.375"/>
      <point x="301.625" y="1296.0" type="curve"/>
      <point x="238.75" y="995.125"/>
      <point x="73.875" y="253.5"/>
    </contour>
  </outline>
</glyph>
<glyph name="L" format="2">
  <advance width="961.0"/>
  <unicode hex="004C"/>
  <anchor x="338.585" y="0.0" name="bottom"/>
  <anchor x="511.68" y="646.0" name="center"/>
  <anchor x="495.5" y="1298.5" name="top"/>
  <anchor x="657.5" y="909.5" name="topright"/>
  <outline>
    <contour>
      <point x="-11.375" y="20.125" type="curve"/>
      <point x="80.625" y="13.25"/>
      <point x="197.875" y="9.625"/>
      <point x="317.375" y="11.5" type="curve" smooth="yes"/>
      <point x="456.375" y="13.375"/>
      <point x="616.25" y="22.5"/>
      <point x="777.625" y="41.625" type="curve"/>
      <point x="801.375" y="122.875"/>
      <point x="835.875" y="266.875"/>
      <point x="841.375" y="314.125" type="curve"/>
      <point x="679.0" y="314.125"/>
      <point x="509.375" y="307.0"/>
      <point x="356.125" y="298.125" type="curve"/>
      <point x="375.75" y="353.75"/>
      <point x="399.875" y="430.0"/>
      <point x="425.375" y="515.75" type="curve" smooth="yes"/>
      <point x="516.375" y="811.125"/>
      <point x="608.875" y="1136.5"/>
      <point x="644.125" y="1292.0" type="curve"/>
      <point x="626.875" y="1295.5"/>
      <point x="564.25" y="1298.5"/>
      <point x="524.875" y="1298.5" type="curve" smooth="yes"/>
      <point x="449.375" y="1298.5"/>
      <point x="368.0" y="1291.25"/>
      <point x="334.125" y="1286.5" type="curve"/>
      <point x="302.375" y="1150.75"/>
      <point x="233.0" y="882.75"/>
      <point x="165.5" y="629.625" type="curve" smooth="yes"/>
      <point x="98.0" y="375.875"/>
      <point x="24.5" y="130.125"/>
    </contour>
  </outline>
</glyph>
<glyph name="M" format="2">
  <advance width="1449.625"/>
  <unicode hex="004D"/>
  <anchor x="570.375" y="0.0" name="bottom"/>
  <anchor x="916.375" y="1291.0" name="top"/>
  <outline>
    <contour>
      <point x="-30.0" y="-3.875" type="curve"/>
      <point x="62.25" y="-3.875"/>
      <point x="184.625" y="-1.5"/>
      <point x="249.125" y="1.125" type="curve"/>
      <point x="263.375" y="52.625"/>
      <point x="395.875" y="552.0"/>
      <point x="481.25" y="875.375" type="curve"/>
      <point x="484.625" y="702.75"/>
      <point x="486.875" y="122.625"/>
      <point x="483.125" y="68.125" type="curve"/>
      <point x="512.25" y="59.75"/>
      <point x="604.5" y="51.375"/>
      <point x="667.375" y="53.875" type="curve"/>
      <point x="728.0" y="134.25"/>
      <point x="1055.875" y="640.375"/>
      <point x="1145.5" y="808.125" type="curve"/>
      <point x="1126.25" y="740.25"/>
      <point x="1079.375" y="571.625"/>
      <point x="1037.375" y="428.0" type="curve" smooth="yes"/>
      <point x="992.0" y="272.75"/>
      <point x="944.125" y="115.25"/>
      <point x="907.875" y="13.125" type="curve"/>
      <point x="961.625" y="8.875"/>
      <point x="1080.875" y="1.875"/>
      <point x="1167.25" y="1.875" type="curve"/>
      <point x="1220.125" y="152.125"/>
      <point x="1307.5" y="438.625"/>
      <point x="1375.375" y="693.125" type="curve" smooth="yes"/>
      <point x="1433.875" y="911.375"/>
      <point x="1480.625" y="1119.625"/>
      <point x="1487.125" y="1241.875" type="curve"/>
      <point x="1413.25" y="1254.5"/>
      <point x="1248.0" y="1259.5"/>
      <point x="1173.125" y="1259.5" type="curve"/>
      <point x="1105.375" y="1120.75"/>
      <point x="801.25" y="598.0"/>
      <point x="689.875" y="407.875" type="curve"/>
      <point x="699.125" y="601.25"/>
      <point x="680.125" y="1221.875"/>
      <point x="679.375" y="1262.0" type="curve"/>
      <point x="666.0" y="1262.0"/>
      <point x="447.875" y="1260.375"/>
      <point x="331.125" y="1248.5" type="curve"/>
      <point x="228.875" y="927.25"/>
      <point x="45.0" y="276.75"/>
    </contour>
  </outline>
</glyph>
<glyph name="N" format="2">
  <advance width="1282.0"/>
  <unicode hex="004E"/>
  <anchor x="498.585" y="0.0" name="bottom"/>
  <anchor x="844.507" y="1291.0" name="top"/>
  <outline>
    <contour>
      <point x="322.625" y="-6.25" type="curve"/>
      <point x="357.75" y="125.125"/>
      <point x="501.25" y="719.0"/>
      <point x="520.875" y="832.75" type="curve"/>
      <point x="595.5" y="600.0"/>
      <point x="726.375" y="113.875"/>
      <point x="751.625" y="8.0" type="curve"/>
      <point x="785.75" y="2.0"/>
      <point x="839.5" y="0.125"/>
      <point x="894.0" y="0.125" type="curve" smooth="yes"/>
      <point x="931.625" y="0.125"/>
      <point x="969.375" y="0.75"/>
      <point x="1004.375" y="2.375" type="curve"/>
      <point x="1029.625" y="46.875"/>
      <point x="1108.625" y="293.5"/>
      <point x="1172.0" y="533.0" type="curve" smooth="yes"/>
      <point x="1230.125" y="753.5"/>
      <point x="1306.75" y="1064.375"/>
      <point x="1336.75" y="1221.625" type="curve"/>
      <point x="1291.625" y="1237.25"/>
      <point x="1137.5" y="1251.25"/>
      <point x="1064.5" y="1251.25" type="curve"/>
      <point x="873.125" y="386.875" type="line"/>
      <point x="824.375" y="624.5"/>
      <point x="737.25" y="978.5"/>
      <point x="631.25" y="1246.875" type="curve"/>
      <point x="559.125" y="1259.0"/>
      <point x="404.875" y="1267.75"/>
      <point x="355.25" y="1267.75" type="curve"/>
      <point x="333.125" y="1161.625"/>
      <point x="280.75" y="957.75"/>
      <point x="228.375" y="762.875" type="curve" smooth="yes"/>
      <point x="147.75" y="459.5"/>
      <point x="38.625" y="52.125"/>
      <point x="27.125" y="9.75" type="curve"/>
      <point x="82.125" y="3.5"/>
      <point x="218.75" y="-7.0"/>
    </contour>
  </outline>
</glyph>
<glyph name="O" format="2">
  <advance width="1354.0"/>
  <unicode hex="004F"/>
  <anchor x="534.585" y="0.0" name="bottom"/>
  <anchor x="657.625" y="646.0" name="center"/>
  <anchor x="845.875" y="0.0" name="ogonek"/>
  <anchor x="880.507" y="1291.0" name="top"/>
  <anchor x="223.507" y="1291.0" name="topleft"/>
  <anchor x="1185.625" y="1183.625" name="topright"/>
  <outline>
    <contour>
      <point x="569.625" y="-51.0" type="curve" smooth="yes"/>
      <point x="1061.625" y="-51.0"/>
      <point x="1305.125" y="307.625"/>
      <point x="1305.125" y="817.625" type="curve" smooth="yes"/>
      <point x="1305.125" y="1102.5"/>
      <point x="1185.375" y="1320.0"/>
      <point x="837.75" y="1320.0" type="curve" smooth="yes"/>
      <point x="366.5" y="1320.0"/>
      <point x="94.0" y="947.875"/>
      <point x="94.0" y="432.375" type="curve" smooth="yes"/>
      <point x="94.0" y="152.625"/>
      <point x="241.125" y="-51.0"/>
    </contour>
    <contour>
      <point x="608.75" y="228.875" type="curve" smooth="yes"/>
      <point x="441.875" y="228.875"/>
      <point x="379.75" y="361.75"/>
      <point x="379.75" y="509.0" type="curve" smooth="yes"/>
      <point x="379.75" y="823.375"/>
      <point x="530.75" y="1086.5"/>
      <point x="820.375" y="1086.5" type="curve" smooth="yes"/>
      <point x="995.5" y="1086.5"/>
      <point x="1044.125" y="939.25"/>
      <point x="1044.125" y="791.375" type="curve" smooth="yes"/>
      <point x="1044.125" y="476.625"/>
      <point x="897.25" y="228.875"/>
    </contour>
  </outline>
</glyph>
<glyph name="P" format="2">
  <advance width="1010.0"/>
  <unicode hex="0050"/>
  <anchor x="350.344375" y="0.0" name="bottom"/>
  <anchor x="696.315125" y="1291.0" name="top"/>
  <outline>
    <contour>
      <point x="-40.5" y="-12.25" type="curve"/>
      <point x="20.375" y="-16.375"/>
      <point x="183.875" y="-19.25"/>
      <point x="241.875" y="-19.25" type="curve"/>
      <point x="292.375" y="145.375"/>
      <point x="391.5" y="484.75"/>
      <point x="411.0" y="558.125" type="curve"/>
      <point x="443.875" y="549.5"/>
      <point x="512.875" y="542.625"/>
      <point x="554.5" y="542.625" type="curve" smooth="yes"/>
      <point x="856.75" y="542.625"/>
      <point x="1086.875" y="730.125"/>
      <point x="1086.875" y="1011.5" type="curve" smooth="yes"/>
      <point x="1086.875" y="1196.75"/>
      <point x="950.375" y="1289.0"/>
      <point x="733.125" y="1289.0" type="curve" smooth="yes"/>
      <point x="588.625" y="1289.0"/>
      <point x="460.375" y="1276.25"/>
      <point x="340.25" y="1253.0" type="curve"/>
      <point x="226.25" y="920.875"/>
      <point x="5.875" y="154.375"/>
    </contour>
    <contour>
      <point x="468.125" y="788.125" type="curve"/>
      <point x="478.875" y="826.125"/>
      <point x="543.25" y="1055.25"/>
      <point x="546.625" y="1074.25" type="curve"/>
      <point x="603.75" y="1081.375"/>
      <point x="657.125" y="1085.5"/>
      <point x="698.75" y="1085.5" type="curve" smooth="yes"/>
      <point x="788.125" y="1085.5"/>
      <point x="842.625" y="1052.75"/>
      <point x="842.625" y="961.75" type="curve" smooth="yes"/>
      <point x="842.625" y="846.125"/>
      <point x="736.0" y="776.25"/>
      <point x="593.125" y="776.25" type="curve" smooth="yes"/>
      <point x="545.5" y="776.25"/>
      <point x="499.5" y="781.5"/>
    </contour>
  </outline>
</glyph>
<glyph name="Q" format="2">
  <advance width="1291.0"/>
  <unicode hex="0051"/>
  <anchor x="503.585" y="0.0" name="bottom"/>
  <anchor x="849.507" y="1291.0" name="top"/>
  <outline>
    <contour>
      <point x="949.0" y="-128.5" type="curve"/>
      <point x="1009.625" y="-87.5"/>
      <point x="1086.375" y="-22.375"/>
      <point x="1134.75" y="32.375" type="curve"/>
      <point x="1068.125" y="62.375"/>
      <point x="996.875" y="109.25"/>
      <point x="960.125" y="168.75" type="curve"/>
      <point x="1166.0" y="307.5"/>
      <point x="1268.875" y="594.75"/>
      <point x="1268.875" y="863.0" type="curve" smooth="yes"/>
      <point x="1268.875" y="1119.625"/>
      <point x="1145.5" y="1299.0"/>
      <point x="833.0" y="1299.0" type="curve" smooth="yes"/>
      <point x="408.375" y="1299.0"/>
      <point x="101.375" y="881.125"/>
      <point x="101.375" y="433.875" type="curve" smooth="yes"/>
      <point x="101.375" y="179.75"/>
      <point x="228.125" y="-10.125"/>
      <point x="501.125" y="-10.125" type="curve" smooth="yes"/>
      <point x="626.75" y="-10.125"/>
      <point x="725.625" y="36.5"/>
      <point x="762.0" y="60.5" type="curve"/>
      <point x="783.25" y="19.5"/>
      <point x="893.875" y="-102.875"/>
    </contour>
    <contour>
      <point x="677.625" y="268.375" type="curve"/>
      <point x="663.625" y="257.75"/>
      <point x="627.125" y="231.875"/>
      <point x="561.625" y="231.875" type="curve" smooth="yes"/>
      <point x="421.625" y="231.875"/>
      <point x="377.875" y="337.625"/>
      <point x="377.875" y="474.125" type="curve" smooth="yes"/>
      <point x="377.875" y="782.375"/>
      <point x="536.5" y="1076.0"/>
      <point x="812.875" y="1076.0" type="curve" smooth="yes"/>
      <point x="966.875" y="1076.0"/>
      <point x="1021.75" y="983.5"/>
      <point x="1021.75" y="834.25" type="curve" smooth="yes"/>
      <point x="1021.75" y="680.75"/>
      <point x="970.125" y="449.0"/>
      <point x="864.0" y="348.625" type="curve"/>
      <point x="826.125" y="406.375"/>
      <point x="804.75" y="503.75"/>
      <point x="794.75" y="568.0" type="curve"/>
      <point x="739.125" y="539.625"/>
      <point x="642.25" y="484.5"/>
      <point x="603.875" y="458.125" type="curve"/>
      <point x="613.25" y="398.0"/>
      <point x="649.5" y="302.25"/>
    </contour>
  </outline>
</glyph>
<glyph name="R" format="2">
  <advance width="1094.0"/>
  <unicode hex="0052"/>
  <anchor x="404.585" y="0.0" name="bottom"/>
  <anchor x="696.0" y="1327.25" name="top"/>
  <outline>
    <contour>
      <point x="-0.75" y="-25.875" type="curve"/>
      <point x="94.375" y="-25.875"/>
      <point x="224.75" y="-22.625"/>
      <point x="297.875" y="-7.75" type="curve"/>
      <point x="331.75" y="137.125"/>
      <point x="406.75" y="512.875"/>
      <point x="416.625" y="583.875" type="curve"/>
      <point x="450.75" y="584.5"/>
      <point x="521.25" y="591.0"/>
      <point x="581.875" y="605.375" type="curve"/>
      <point x="606.25" y="505.125"/>
      <point x="613.875" y="170.625"/>
      <point x="613.875" y="-18.75" type="curve"/>
      <point x="640.75" y="-17.125"/>
      <point x="804.125" y="18.875"/>
      <point x="901.5" y="63.875" type="curve"/>
      <point x="897.125" y="165.625"/>
      <point x="855.875" y="548.0"/>
      <point x="820.375" y="668.0" type="curve"/>
      <point x="994.75" y="739.75"/>
      <point x="1106.875" y="852.125"/>
      <point x="1106.875" y="1040.25" type="curve" smooth="yes"/>
      <point x="1106.875" y="1254.375"/>
      <point x="951.75" y="1327.25"/>
      <point x="723.5" y="1327.25" type="curve" smooth="yes"/>
      <point x="586.625" y="1327.25"/>
      <point x="394.75" y="1316.875"/>
      <point x="285.25" y="1303.0" type="curve"/>
      <point x="191.375" y="848.25"/>
      <point x="78.625" y="306.0"/>
    </contour>
    <contour>
      <point x="451.0" y="796.875" type="curve"/>
      <point x="459.375" y="844.875"/>
      <point x="496.25" y="1054.5"/>
      <point x="505.0" y="1112.25" type="curve"/>
      <point x="530.25" y="1115.25"/>
      <point x="633.375" y="1124.25"/>
      <point x="676.375" y="1124.25" type="curve" smooth="yes"/>
      <point x="791.25" y="1124.25"/>
      <point x="853.875" y="1097.375"/>
      <point x="853.875" y="1000.375" type="curve" smooth="yes"/>
      <point x="853.875" y="876.125"/>
      <point x="752.125" y="837.125"/>
      <point x="611.875" y="812.5" type="curve" smooth="yes"/>
      <point x="543.875" y="801.5"/>
      <point x="497.875" y="796.875"/>
    </contour>
  </outline>
</glyph>
<glyph name="S" format="2">
  <advance width="1152.0"/>
  <unicode hex="0053"/>
  <anchor x="469.375" y="0.0" name="bottom"/>
  <anchor x="733.0" y="1330.75" name="top"/>
  <outline>
    <contour>
      <point x="469.375" y="-14.625" type="curve" smooth="yes"/>
      <point x="773.125" y="-14.625"/>
      <point x="1054.625" y="152.75"/>
      <point x="1054.625" y="464.125" type="curve" smooth="yes"/>
      <point x="1054.625" y="683.625"/>
      <point x="881.75" y="771.375"/>
      <point x="656.875" y="852.375" type="curve" smooth="yes"/>
      <point x="575.375" y="879.875"/>
      <point x="513.375" y="913.875"/>
      <point x="513.375" y="986.0" type="curve" smooth="yes"/>
      <point x="513.375" y="1089.625"/>
      <point x="615.625" y="1138.125"/>
      <point x="724.75" y="1138.125" type="curve" smooth="yes"/>
      <point x="858.375" y="1138.125"/>
      <point x="954.375" y="1065.0"/>
      <point x="1006.5" y="993.625" type="curve"/>
      <point x="1062.375" y="1027.375"/>
      <point x="1145.125" y="1110.875"/>
      <point x="1196.375" y="1177.25" type="curve"/>
      <point x="1118.5" y="1288.75"/>
      <point x="932.0" y="1349.0"/>
      <point x="739.375" y="1349.0" type="curve" smooth="yes"/>
      <point x="468.375" y="1349.0"/>
      <point x="235.25" y="1210.875"/>
      <point x="235.25" y="944.125" type="curve" smooth="yes"/>
      <point x="235.25" y="765.625"/>
      <point x="372.625" y="683.375"/>
      <point x="560.75" y="608.5" type="curve" smooth="yes"/>
      <point x="708.125" y="553.5"/>
      <point x="774.5" y="496.125"/>
      <point x="774.5" y="405.625" type="curve" smooth="yes"/>
      <point x="774.5" y="279.125"/>
      <point x="652.875" y="206.375"/>
      <point x="519.125" y="206.375" type="curve" smooth="yes"/>
      <point x="354.125" y="206.375"/>
      <point x="268.875" y="337.25"/>
      <point x="216.125" y="428.5" type="curve"/>
      <point x="158.125" y="402.375"/>
      <point x="9.875" y="270.0"/>
      <point x="-13.5" y="244.25" type="curve"/>
      <point x="61.5" y="93.25"/>
      <point x="253.25" y="-14.625"/>
    </contour>
  </outline>
</glyph>
<glyph name="T" format="2">
  <advance width="1039.0"/>
  <unicode hex="0054"/>
  <anchor x="398.25" y="0.0" name="bottom"/>
  <anchor x="550.88" y="646.0" name="center"/>
  <anchor x="723.507" y="1291.0" name="top"/>
  <outline>
    <contour>
      <point x="197.875" y="1071.125" type="curve"/>
      <point x="294.625" y="1073.0"/>
      <point x="440.625" y="1077.875"/>
      <point x="538.625" y="1083.0" type="curve"/>
      <point x="527.125" y="1041.75"/>
      <point x="512.25" y="988.75"/>
      <point x="496.0" y="928.0" type="curve" smooth="yes"/>
      <point x="420.0" y="645.5"/>
      <point x="305.75" y="182.75"/>
      <point x="262.625" y="-14.0" type="curve"/>
      <point x="331.25" y="-14.0"/>
      <point x="489.5" y="-5.75"/>
      <point x="562.5" y="5.375" type="curve"/>
      <point x="574.75" y="63.625"/>
      <point x="769.25" y="915.25"/>
      <point x="809.5" y="1087.25" type="curve"/>
      <point x="901.0" y="1085.375"/>
      <point x="1072.375" y="1083.875"/>
      <point x="1124.625" y="1082.75" type="curve"/>
      <point x="1146.0" y="1126.75"/>
      <point x="1177.75" y="1219.125"/>
      <point x="1201.875" y="1314.375" type="curve"/>
      <point x="1090.75" y="1329.875"/>
      <point x="948.125" y="1335.125"/>
      <point x="801.375" y="1335.125" type="curve" smooth="yes"/>
      <point x="604.25" y="1335.125"/>
      <point x="398.875" y="1325.5"/>
      <point x="245.375" y="1315.375" type="curve"/>
      <point x="236.5" y="1282.125"/>
      <point x="201.5" y="1123.875"/>
    </contour>
  </outline>
</glyph>
<glyph name="U" format="2">
  <advance width="1212.0"/>
  <unicode hex="0055"/>
  <anchor x="463.585" y="0.0" name="bottom"/>
  <anchor x="663.25" y="0.0" name="ogonek"/>
  <anchor x="837.625" y="1320.625" name="top"/>
  <anchor x="1240.375" y="1174.0" name="topright"/>
  <outline>
    <contour>
      <point x="487.375" y="-33.0" type="curve" smooth="yes"/>
      <point x="916.125" y="-33.0"/>
      <point x="1078.125" y="375.875"/>
      <point x="1222.125" y="904.875" type="curve" smooth="yes"/>
      <point x="1260.0" y="1044.25"/>
      <point x="1289.5" y="1193.875"/>
      <point x="1302.25" y="1303.5" type="curve"/>
      <point x="1276.25" y="1311.875"/>
      <point x="1107.875" y="1328.75"/>
      <point x="1014.375" y="1328.75" type="curve"/>
      <point x="998.5" y="1207.125"/>
      <point x="913.25" y="855.125"/>
      <point x="876.5" y="716.75" type="curve" smooth="yes"/>
      <point x="808.125" y="459.0"/>
      <point x="712.25" y="298.25"/>
      <point x="565.125" y="298.25" type="curve" smooth="yes"/>
      <point x="476.0" y="298.25"/>
      <point x="432.25" y="354.125"/>
      <point x="432.25" y="466.25" type="curve" smooth="yes"/>
      <point x="432.25" y="558.75"/>
      <point x="475.0" y="740.75"/>
      <point x="526.75" y="925.75" type="curve" smooth="yes"/>
      <point x="567.75" y="1075.0"/>
      <point x="618.625" y="1228.875"/>
      <point x="659.875" y="1345.125" type="curve"/>
      <point x="615.5" y="1350.625"/>
      <point x="555.25" y="1354.875"/>
      <point x="495.25" y="1354.875" type="curve" smooth="yes"/>
      <point x="450.25" y="1354.875"/>
      <point x="396.5" y="1351.0"/>
      <point x="348.0" y="1345.875" type="curve"/>
      <point x="302.75" y="1201.25"/>
      <point x="260.125" y="1059.625"/>
      <point x="226.625" y="928.125" type="curve" smooth="yes"/>
      <point x="168.625" y="700.25"/>
      <point x="130.75" y="506.875"/>
      <point x="130.75" y="351.5" type="curve" smooth="yes"/>
      <point x="130.75" y="105.625"/>
      <point x="226.25" y="-33.0"/>
    </contour>
  </outline>
</glyph>
<glyph name="V" format="2">
  <advance width="1176.625"/>
  <unicode hex="0056"/>
  <anchor x="446.469375" y="0.0" name="bottom"/>
  <anchor x="792.440125" y="1291.0" name="top"/>
  <outline>
    <contour>
      <point x="480.0" y="-20.875" type="curve" smooth="yes"/>
      <point x="542.875" y="-20.875"/>
      <point x="601.375" y="-19.875"/>
      <point x="637.375" y="-16.0" type="curve"/>
      <point x="674.875" y="44.625"/>
      <point x="1042.0" y="676.25"/>
      <point x="1341.75" y="1310.375" type="curve"/>
      <point x="1260.125" y="1342.75"/>
      <point x="1132.5" y="1361.5"/>
      <point x="1038.375" y="1363.375" type="curve"/>
      <point x="1018.125" y="1306.125"/>
      <point x="754.25" y="689.625"/>
      <point x="549.375" y="291.125" type="curve"/>
      <point x="569.75" y="665.375"/>
      <point x="569.25" y="1215.875"/>
      <point x="569.25" y="1359.75" type="curve"/>
      <point x="494.75" y="1359.75"/>
      <point x="344.375" y="1344.5"/>
      <point x="254.375" y="1318.25" type="curve"/>
      <point x="254.375" y="1037.25"/>
      <point x="270.375" y="242.375"/>
      <point x="307.0" y="-10.0" type="curve"/>
      <point x="342.25" y="-16.0"/>
      <point x="412.25" y="-20.875"/>
    </contour>
  </outline>
</glyph>
<glyph name="W" format="2">
  <advance width="1344.0"/>
  <unicode hex="0057"/>
  <anchor x="529.585" y="0.0" name="bottom"/>
  <anchor x="875.507" y="1291.0" name="top"/>
  <outline>
    <contour>
      <point x="686.25" y="-15.75" type="curve"/>
      <point x="958.5" y="10.875" type="line"/>
      <point x="1007.625" y="102.625"/>
      <point x="1336.875" y="787.375"/>
      <point x="1494.125" y="1376.375" type="curve"/>
      <point x="1209.125" y="1347.75" type="line"/>
      <point x="1142.375" y="1098.625"/>
      <point x="993.75" y="641.0"/>
      <point x="873.25" y="349.875" type="curve"/>
      <point x="879.5" y="507.625"/>
      <point x="891.0" y="858.0"/>
      <point x="895.875" y="923.125" type="curve"/>
      <point x="698.5" y="907.125" type="line"/>
      <point x="656.25" y="844.375"/>
      <point x="445.75" y="556.875"/>
      <point x="363.875" y="413.875" type="curve"/>
      <point x="434.875" y="701.125"/>
      <point x="539.75" y="1064.875"/>
      <point x="613.875" y="1340.0" type="curve"/>
      <point x="312.625" y="1351.5" type="line"/>
      <point x="178.375" y="850.5"/>
      <point x="98.25" y="332.375"/>
      <point x="45.5" y="10.125" type="curve"/>
      <point x="324.75" y="-1.125" type="line"/>
      <point x="378.5" y="78.25"/>
      <point x="621.875" y="432.75"/>
      <point x="684.0" y="538.25" type="curve"/>
      <point x="678.125" y="418.0"/>
      <point x="680.75" y="127.75"/>
    </contour>
  </outline>
</glyph>
<glyph name="X" format="2">
  <advance width="1200.5"/>
  <unicode hex="0058"/>
  <anchor x="461.11562499999997" y="0.0" name="bottom"/>
  <anchor x="807.066875" y="1291.0" name="top"/>
  <outline>
    <contour>
      <point x="513.125" y="674.125" type="curve"/>
      <point x="382.0" y="516.875"/>
      <point x="125.875" y="230.5"/>
      <point x="-57.0" y="49.625" type="curve"/>
      <point x="49.875" y="13.375"/>
      <point x="148.875" y="-9.375"/>
      <point x="240.625" y="-19.0" type="curve"/>
      <point x="271.625" y="12.625"/>
      <point x="530.125" y="284.5"/>
      <point x="629.125" y="420.5" type="curve"/>
      <point x="687.25" y="251.625"/>
      <point x="724.625" y="69.125"/>
      <point x="740.25" y="-39.375" type="curve"/>
      <point x="819.5" y="-26.5"/>
      <point x="939.625" y="7.875"/>
      <point x="1024.875" y="54.375" type="curve"/>
      <point x="1000.0" y="172.875"/>
      <point x="885.75" y="517.5"/>
      <point x="816.0" y="660.25" type="curve"/>
      <point x="934.125" y="773.75"/>
      <point x="1208.5" y="1054.125"/>
      <point x="1325.375" y="1222.625" type="curve"/>
      <point x="1289.875" y="1257.5"/>
      <point x="1147.625" y="1308.375"/>
      <point x="1040.875" y="1320.5" type="curve"/>
      <point x="990.75" y="1224.75"/>
      <point x="857.0" y="1019.25"/>
      <point x="725.125" y="868.375" type="curve"/>
      <point x="685.5" y="1016.0"/>
      <point x="621.875" y="1256.125"/>
      <point x="582.125" y="1339.875" type="curve"/>
      <point x="501.25" y="1328.625"/>
      <point x="332.5" y="1276.375"/>
      <point x="251.375" y="1240.75" type="curve"/>
      <point x="284.875" y="1187.25"/>
      <point x="441.875" y="912.125"/>
    </contour>
  </outline>
</glyph>
<glyph name="Y" format="2">
  <advance width="1065.0"/>
  <unicode hex="0059"/>
  <anchor x="411.0" y="0.0" name="bottom"/>
  <anchor x="757.0" y="1291.0" name="top"/>
  <anchor x="244.0" y="1291.0" name="topleft"/>
  <outline>
    <contour>
      <point x="434.125" y="547.75" type="curve"/>
      <point x="393.625" y="445.875"/>
      <point x="328.75" y="219.625"/>
      <point x="272.625" y="11.25" type="curve"/>
      <point x="310.25" y="3.875"/>
      <point x="370.375" y="-0.875"/>
      <point x="427.0" y="-0.875" type="curve" smooth="yes"/>
      <point x="480.0" y="-0.875"/>
      <point x="531.25" y="3.875"/>
      <point x="548.75" y="9.25" type="curve"/>
      <point x="555.375" y="32.5"/>
      <point x="587.875" y="153.75"/>
      <point x="610.875" y="242.75" type="curve" smooth="yes"/>
      <point x="630.125" y="316.125"/>
      <point x="669.125" y="469.5"/>
      <point x="692.625" y="566.625" type="curve"/>
      <point x="913.25" y="853.25"/>
      <point x="1116.5" y="1091.625"/>
      <point x="1235.5" y="1210.375" type="curve"/>
      <point x="1184.5" y="1248.375"/>
      <point x="1072.125" y="1296.5"/>
      <point x="977.375" y="1306.75" type="curve"/>
      <point x="895.875" y="1222.625"/>
      <point x="665.75" y="907.625"/>
      <point x="611.0" y="829.125" type="curve"/>
      <point x="581.5" y="949.75"/>
      <point x="537.5" y="1264.625"/>
      <point x="531.375" y="1322.375" type="curve"/>
      <point x="464.375" y="1320.5"/>
      <point x="365.75" y="1306.125"/>
      <point x="247.5" y="1265.75" type="curve"/>
      <point x="279.75" y="1061.75"/>
      <point x="372.5" y="686.25"/>
    </contour>
  </outline>
</glyph>
<glyph name="Z" format="2">
  <advance width="1044.0"/>
  <unicode hex="005A"/>
  <anchor x="379.585" y="0.0" name="bottom"/>
  <anchor x="552.68" y="646.0" name="center"/>
  <anchor x="725.507" y="1291.0" name="top"/>
  <outline>
    <contour>
      <point x="823.375" y="-14.0" type="curve"/>
      <point x="835.875" y="10.125"/>
      <point x="861.125" y="77.375"/>
      <point x="878.75" y="140.125" type="curve" smooth="yes"/>
      <point x="893.5" y="193.375"/>
      <point x="906.375" y="249.125"/>
      <point x="911.875" y="280.0" type="curve"/>
      <point x="826.5" y="276.125"/>
      <point x="733.875" y="272.625"/>
      <point x="652.75" y="272.625" type="curve" smooth="yes"/>
      <point x="527.875" y="272.625"/>
      <point x="420.875" y="276.5"/>
      <point x="364.25" y="282.375" type="curve"/>
      <point x="491.125" y="395.375"/>
      <point x="973.875" y="886.5"/>
      <point x="1148.625" y="1101.0" type="curve"/>
      <point x="1156.375" y="1117.625"/>
      <point x="1171.625" y="1165.375"/>
      <point x="1185.375" y="1217.75" type="curve" smooth="yes"/>
      <point x="1195.5" y="1256.875"/>
      <point x="1206.0" y="1301.875"/>
      <point x="1208.25" y="1330.0" type="curve"/>
      <point x="1174.25" y="1332.5"/>
      <point x="1062.5" y="1332.625"/>
      <point x="1022.125" y="1332.25" type="curve" smooth="yes"/>
      <point x="822.625" y="1330.0"/>
      <point x="510.5" y="1306.375"/>
      <point x="362.75" y="1294.0" type="curve"/>
      <point x="352.25" y="1267.25"/>
      <point x="339.125" y="1224.625"/>
      <point x="327.0" y="1178.5" type="curve" smooth="yes"/>
      <point x="316.125" y="1137.75"/>
      <point x="305.875" y="1088.25"/>
      <point x="300.75" y="1059.0" type="curve"/>
      <point x="475.0" y="1071.5"/>
      <point x="766.75" y="1090.0"/>
      <point x="833.625" y="1090.375" type="curve"/>
      <point x="729.625" y="966.75"/>
      <point x="245.75" y="463.125"/>
      <point x="34.25" y="278.5" type="curve"/>
      <point x="17.125" y="215.25"/>
      <point x="-16.25" y="76.5"/>
      <point x="-26.75" y="22.0" type="curve"/>
      <point x="305.25" y="-3.75"/>
      <point x="587.375" y="-14.0"/>
    </contour>
  </outline>
</glyph>
<glyph name="bracketleft" format="2">
  <advance width="735.0"/>
  <unicode hex="005B"/>
  <outline>
    <contour>
      <point x="75.625" y="-526.375" type="curve" smooth="yes"/>
      <point x="198.625" y="-526.375"/>
      <point x="303.0" y="-519.625"/>
      <point x="369.375" y="-512.375" type="curve"/>
      <point x="386.875" y="-470.375"/>
      <point x="426.875" y="-351.875"/>
      <point x="444.0" y="-293.375" type="curve"/>
      <point x="402.125" y="-294.125"/>
      <point x="326.25" y="-293.5"/>
      <point x="270.25" y="-292.25" type="curve" smooth="yes"/>
      <point x="205.125" y="-290.375"/>
      <point x="150.75" y="-288.5"/>
      <point x="133.125" y="-285.125" type="curve"/>
      <point x="165.375" y="-116.875"/>
      <point x="229.875" y="152.25"/>
      <point x="304.125" y="429.0" type="curve" smooth="yes"/>
      <point x="397.25" y="776.0"/>
      <point x="508.625" y="1142.25"/>
      <point x="616.25" y="1421.125" type="curve"/>
      <point x="728.0" y="1430.625"/>
      <point x="893.25" y="1442.125"/>
      <point x="944.5" y="1442.125" type="curve"/>
      <point x="952.0" y="1457.25"/>
      <point x="970.0" y="1496.25"/>
      <point x="988.25" y="1542.375" type="curve" smooth="yes"/>
      <point x="1001.25" y="1576.0"/>
      <point x="1013.25" y="1611.875"/>
      <point x="1021.375" y="1644.5" type="curve"/>
      <point x="821.125" y="1643.25"/>
      <point x="560.0" y="1626.75"/>
      <point x="418.375" y="1600.5" type="curve"/>
      <point x="323.5" y="1382.625"/>
      <point x="187.5" y="975.25"/>
      <point x="67.375" y="526.875" type="curve" smooth="yes"/>
      <point x="-26.625" y="177.0"/>
      <point x="-111.25" y="-195.375"/>
      <point x="-161.25" y="-518.25" type="curve"/>
      <point x="-80.75" y="-523.75"/>
      <point x="-0.25" y="-526.375"/>
    </contour>
  </outline>
</glyph>
<glyph name="backslash" format="2">
  <advance width="725.0"/>
  <unicode hex="005C"/>
  <outline>
    <contour>
      <point x="591.875" y="3.25" type="curve"/>
      <point x="498.5" y="456.75"/>
      <point x="440.75" y="1013.5"/>
      <point x="440.75" y="1472.5" type="curve"/>
      <point x="344.25" y="1466.25"/>
      <point x="235.625" y="1438.625"/>
      <point x="190.875" y="1399.625" type="curve"/>
      <point x="199.875" y="856.125"/>
      <point x="242.75" y="381.625"/>
      <point x="339.0" y="-103.875" type="curve"/>
      <point x="414.875" y="-86.75"/>
      <point x="500.625" y="-50.5"/>
    </contour>
  </outline>
</glyph>
<glyph name="bracketright" format="2">
  <advance width="619.0"/>
  <unicode hex="005D"/>
  <outline>
    <contour>
      <point x="653.375" y="542.625" type="curve" smooth="yes"/>
      <point x="763.875" y="955.5"/>
      <point x="834.375" y="1336.5"/>
      <point x="852.75" y="1618.75" type="curve"/>
      <point x="734.25" y="1640.125"/>
      <point x="616.0" y="1648.25"/>
      <point x="478.75" y="1648.25" type="curve" smooth="yes"/>
      <point x="438.625" y="1648.25"/>
      <point x="385.0" y="1647.625"/>
      <point x="349.0" y="1646.375" type="curve"/>
      <point x="332.0" y="1607.0"/>
      <point x="309.0" y="1533.5"/>
      <point x="292.25" y="1474.625" type="curve"/>
      <point x="292.625" y="1461.5"/>
      <point x="298.875" y="1449.0"/>
      <point x="309.125" y="1437.75" type="curve" smooth="yes"/>
      <point x="384.375" y="1436.5"/>
      <point x="488.875" y="1435.0"/>
      <point x="563.5" y="1429.375" type="curve"/>
      <point x="553.875" y="1278.875"/>
      <point x="479.875" y="924.125"/>
      <point x="381.75" y="557.75" type="curve" smooth="yes"/>
      <point x="301.375" y="258.375"/>
      <point x="204.25" y="-49.875"/>
      <point x="115.125" y="-261.625" type="curve"/>
      <point x="71.75" y="-272.0"/>
      <point x="-90.875" y="-287.125"/>
      <point x="-156.0" y="-287.125" type="curve"/>
      <point x="-170.0" y="-339.125"/>
      <point x="-197.0" y="-443.5"/>
      <point x="-210.0" y="-504.125" type="curve"/>
      <point x="-81.25" y="-504.125"/>
      <point x="146.5" y="-496.25"/>
      <point x="311.375" y="-461.625" type="curve"/>
      <point x="420.5" y="-212.75"/>
      <point x="549.875" y="156.75"/>
    </contour>
  </outline>
</glyph>
<glyph name="asciicircum" format="2">
  <advance width="1032.0"/>
  <unicode hex="005E"/>
  <outline>
    <contour>
      <point x="879.5" y="1325.0" type="curve"/>
      <point x="861.25" y="1331.375"/>
      <point x="821.0" y="1334.75"/>
      <point x="777.125" y="1334.75" type="curve" smooth="yes"/>
      <point x="736.125" y="1334.75"/>
      <point x="692.75" y="1331.25"/>
      <point x="663.0" y="1326.0" type="curve"/>
      <point x="518.0" y="1217.0"/>
      <point x="260.25" y="976.0"/>
      <point x="102.75" y="812.0" type="curve"/>
      <point x="148.25" y="753.75"/>
      <point x="227.5" y="716.875"/>
      <point x="290.25" y="705.25" type="curve"/>
      <point x="386.375" y="818.375"/>
      <point x="635.125" y="1064.375"/>
      <point x="817.25" y="1188.125" type="curve"/>
      <point x="692.875" y="1192.75" type="line"/>
      <point x="766.875" y="1074.375"/>
      <point x="839.25" y="852.0"/>
      <point x="846.75" y="724.125" type="curve"/>
      <point x="951.625" y="743.75"/>
      <point x="1027.125" y="769.875"/>
      <point x="1076.75" y="805.0" type="curve"/>
      <point x="1049.0" y="1002.5"/>
      <point x="948.25" y="1222.5"/>
    </contour>
  </outline>
</glyph>
<glyph name="underscore" format="2">
  <advance width="1549.0"/>
  <unicode hex="005F"/>
  <outline>
    <contour>
      <point x="192.125" y="20.625" type="curve" smooth="yes"/>
      <point x="128.5" y="20.625"/>
      <point x="-5.125" y="20.625"/>
      <point x="-61.0" y="22.625" type="curve"/>
      <point x="-73.5" y="-38.875"/>
      <point x="-97.375" y="-175.25"/>
      <point x="-101.75" y="-209.875" type="curve"/>
      <point x="252.375" y="-217.0"/>
      <point x="640.0" y="-220.375"/>
      <point x="874.25" y="-220.375" type="curve" smooth="yes"/>
      <point x="1073.625" y="-220.375"/>
      <point x="1210.5" y="-217.5"/>
      <point x="1286.125" y="-214.5" type="curve"/>
      <point x="1310.875" y="-156.125"/>
      <point x="1344.875" y="-55.125"/>
      <point x="1372.5" y="47.75" type="curve"/>
      <point x="1161.625" y="38.5"/>
      <point x="646.5" y="20.625"/>
    </contour>
  </outline>
</glyph>
<glyph name="a" format="2">
  <advance width="1295.0"/>
  <unicode hex="0061"/>
  <anchor x="475.375" y="0.0" name="bottom"/>
  <anchor x="1057.25" y="3.75" name="ogonek"/>
  <anchor x="748.75" y="1063.0" name="top"/>
  <outline>
    <contour>
      <point x="393.75" y="-18.375" type="curve" smooth="yes"/>
      <point x="602.25" y="-18.375"/>
      <point x="781.125" y="78.125"/>
      <point x="834.125" y="166.25" type="curve"/>
      <point x="834.125" y="50.375"/>
      <point x="887.125" y="-6.875"/>
      <point x="994.125" y="-6.875" type="curve" smooth="yes"/>
      <point x="1095.375" y="-6.875"/>
      <point x="1179.75" y="44.25"/>
      <point x="1213.75" y="122.875" type="curve"/>
      <point x="1153.75" y="292.125" type="line"/>
      <point x="1131.75" y="246.5"/>
      <point x="1100.875" y="220.125"/>
      <point x="1062.75" y="220.125" type="curve" smooth="yes"/>
      <point x="1037.125" y="220.125"/>
      <point x="1023.625" y="228.75"/>
      <point x="1023.625" y="266.625" type="curve" smooth="yes"/>
      <point x="1023.625" y="332.125"/>
      <point x="1046.875" y="423.375"/>
      <point x="1071.5" y="511.75" type="curve" smooth="yes"/>
      <point x="1092.875" y="590.625"/>
      <point x="1109.0" y="672.625"/>
      <point x="1109.0" y="740.875" type="curve" smooth="yes"/>
      <point x="1109.0" y="974.0"/>
      <point x="951.25" y="1068.125"/>
      <point x="695.125" y="1068.125" type="curve" smooth="yes"/>
      <point x="480.375" y="1068.125"/>
      <point x="275.375" y="978.5"/>
      <point x="152.625" y="851.375" type="curve"/>
      <point x="331.0" y="710.75" type="line"/>
      <point x="393.75" y="783.5"/>
      <point x="521.25" y="850.0"/>
      <point x="648.375" y="850.0" type="curve" smooth="yes"/>
      <point x="765.75" y="850.0"/>
      <point x="843.375" y="810.25"/>
      <point x="859.0" y="727.0" type="curve" smooth="yes"/>
      <point x="868.375" y="693.0"/>
      <point x="867.875" y="649.25"/>
      <point x="864.125" y="622.25" type="curve"/>
      <point x="837.25" y="640.375"/>
      <point x="715.125" y="671.25"/>
      <point x="602.875" y="671.25" type="curve" smooth="yes"/>
      <point x="309.125" y="671.25"/>
      <point x="17.125" y="563.875"/>
      <point x="17.125" y="269.0" type="curve" smooth="yes"/>
      <point x="17.125" y="64.125"/>
      <point x="164.875" y="-18.375"/>
    </contour>
    <contour>
      <point x="490.125" y="190.625" type="curve" smooth="yes"/>
      <point x="358.875" y="190.625"/>
      <point x="300.125" y="225.75"/>
      <point x="300.125" y="314.875" type="curve" smooth="yes"/>
      <point x="300.125" y="431.625"/>
      <point x="463.75" y="484.125"/>
      <point x="602.0" y="484.125" type="curve" smooth="yes"/>
      <point x="707.25" y="484.125"/>
      <point x="803.125" y="462.5"/>
      <point x="832.375" y="450.0" type="curve"/>
      <point x="820.5" y="409.875"/>
      <point x="808.125" y="358.25"/>
      <point x="795.75" y="303.125" type="curve"/>
      <point x="728.875" y="240.625"/>
      <point x="596.625" y="190.625"/>
    </contour>
  </outline>
</glyph>
<glyph name="b" format="2">
  <advance width="1200.0"/>
  <unicode hex="0062"/>
  <anchor x="450.24062499999997" y="0.0" name="bottom"/>
  <anchor x="843.79375" y="1470.0" name="top"/>
  <outline>
    <contour>
      <point x="28.25" y="-9.5" type="curve"/>
      <point x="98.375" y="-17.625"/>
      <point x="223.625" y="-19.375"/>
      <point x="308.0" y="-19.0" type="curve"/>
      <point x="311.5" y="3.25"/>
      <point x="327.75" y="74.625"/>
      <point x="337.125" y="113.625" type="curve"/>
      <point x="360.5" y="74.125"/>
      <point x="459.75" y="2.25"/>
      <point x="607.625" y="2.25" type="curve" smooth="yes"/>
      <point x="932.0" y="2.25"/>
      <point x="1122.875" y="274.375"/>
      <point x="1122.875" y="578.625" type="curve" smooth="yes"/>
      <point x="1122.875" y="806.0"/>
      <point x="1023.125" y="919.875"/>
      <point x="817.625" y="919.875" type="curve" smooth="yes"/>
      <point x="667.625" y="919.875"/>
      <point x="544.0" y="828.375"/>
      <point x="477.75" y="770.25" type="curve"/>
      <point x="530.75" y="1029.125"/>
      <point x="597.625" y="1304.25"/>
      <point x="632.875" y="1437.625" type="curve"/>
      <point x="491.875" y="1417.625"/>
      <point x="378.5" y="1398.75"/>
      <point x="359.5" y="1395.125" type="curve"/>
      <point x="302.5" y="1183.125"/>
      <point x="59.875" y="154.5"/>
    </contour>
    <contour>
      <point x="383.75" y="318.375" type="curve"/>
      <point x="390.25" y="348.625"/>
      <point x="425.25" y="514.25"/>
      <point x="431.375" y="544.125" type="curve"/>
      <point x="485.125" y="599.0"/>
      <point x="591.125" y="693.375"/>
      <point x="722.25" y="693.375" type="curve" smooth="yes"/>
      <point x="834.25" y="693.375"/>
      <point x="865.75" y="631.75"/>
      <point x="865.75" y="525.375" type="curve" smooth="yes"/>
      <point x="865.75" y="363.75"/>
      <point x="762.125" y="246.75"/>
      <point x="590.5" y="246.75" type="curve" smooth="yes"/>
      <point x="488.625" y="246.75"/>
      <point x="408.5" y="294.25"/>
    </contour>
  </outline>
</glyph>
<glyph name="c" format="2">
  <advance width="1026.0"/>
  <unicode hex="0063"/>
  <anchor x="401.5" y="0.0" name="bottom"/>
  <anchor x="651.509375" y="1063.0" name="top"/>
  <outline>
    <contour>
      <point x="901.5" y="210.5" type="curve"/>
      <point x="756.125" y="405.375" type="line"/>
      <point x="737.25" y="380.375"/>
      <point x="630.625" y="273.0"/>
      <point x="489.625" y="273.0" type="curve" smooth="yes"/>
      <point x="367.125" y="273.0"/>
      <point x="324.5" y="351.25"/>
      <point x="324.5" y="458.625" type="curve" smooth="yes"/>
      <point x="324.5" y="676.875"/>
      <point x="448.875" y="874.875"/>
      <point x="662.625" y="874.875" type="curve" smooth="yes"/>
      <point x="805.625" y="874.875"/>
      <point x="827.625" y="777.25"/>
      <point x="830.375" y="752.25" type="curve"/>
      <point x="1050.5" y="864.375" type="line"/>
      <point x="1014.125" y="999.375"/>
      <point x="875.875" y="1095.25"/>
      <point x="689.375" y="1095.25" type="curve" smooth="yes"/>
      <point x="316.25" y="1095.25"/>
      <point x="52.625" y="792.625"/>
      <point x="52.625" y="406.25" type="curve" smooth="yes"/>
      <point x="52.625" y="166.5"/>
      <point x="166.0" y="-9.0"/>
      <point x="421.25" y="-9.0" type="curve" smooth="yes"/>
      <point x="649.125" y="-9.0"/>
      <point x="830.125" y="108.0"/>
    </contour>
  </outline>
</glyph>
<glyph name="d" format="2">
  <advance width="1195.0"/>
  <unicode hex="0064"/>
  <anchor x="437.094375" y="0.0" name="bottom"/>
  <anchor x="1066.0" y="1193.875" name="center"/>
  <anchor x="830.42625" y="1470.0" name="top"/>
  <anchor x="1254.875" y="1013.625" name="topright"/>
  <outline>
    <contour>
      <point x="689.75" y="3.0" type="curve"/>
      <point x="742.125" y="-2.375"/>
      <point x="880.75" y="-4.625"/>
      <point x="925.875" y="-4.625" type="curve"/>
      <point x="1056.625" y="493.5"/>
      <point x="1181.875" y="948.0"/>
      <point x="1341.0" y="1410.125" type="curve"/>
      <point x="1280.5" y="1426.125"/>
      <point x="1187.0" y="1433.75"/>
      <point x="1118.0" y="1433.75" type="curve"/>
      <point x="1087.25" y="1354.25"/>
      <point x="968.5" y="1016.5"/>
      <point x="921.875" y="846.125" type="curve"/>
      <point x="895.875" y="894.5"/>
      <point x="781.75" y="959.0"/>
      <point x="622.0" y="959.0" type="curve" smooth="yes"/>
      <point x="285.125" y="959.0"/>
      <point x="47.875" y="720.75"/>
      <point x="47.875" y="379.75" type="curve" smooth="yes"/>
      <point x="47.875" y="162.25"/>
      <point x="191.875" y="1.125"/>
      <point x="384.625" y="1.125" type="curve" smooth="yes"/>
      <point x="600.625" y="1.125"/>
      <point x="693.0" y="110.25"/>
      <point x="726.25" y="151.125" type="curve"/>
      <point x="717.0" y="117.75"/>
      <point x="695.75" y="33.375"/>
    </contour>
    <contour>
      <point x="485.25" y="257.5" type="curve" smooth="yes"/>
      <point x="381.75" y="257.5"/>
      <point x="311.375" y="318.0"/>
      <point x="311.375" y="441.75" type="curve" smooth="yes"/>
      <point x="311.375" y="619.5"/>
      <point x="438.625" y="732.375"/>
      <point x="615.875" y="732.375" type="curve" smooth="yes"/>
      <point x="725.125" y="732.375"/>
      <point x="819.125" y="680.625"/>
      <point x="852.75" y="639.625" type="curve"/>
      <point x="839.375" y="593.75"/>
      <point x="800.375" y="459.25"/>
      <point x="784.0" y="402.25" type="curve"/>
      <point x="732.375" y="349.875"/>
      <point x="620.375" y="257.5"/>
    </contour>
  </outline>
</glyph>
<glyph name="e" format="2">
  <advance width="1111.375"/>
  <unicode hex="0065"/>
  <anchor x="410.875" y="10.0" name="bottom"/>
  <anchor x="653.25" y="31.125" name="ogonek"/>
  <anchor x="733.625" y="1063.0" name="top"/>
  <outline>
    <contour>
      <point x="969.75" y="194.75" type="curve"/>
      <point x="951.125" y="264.625"/>
      <point x="852.625" y="387.75"/>
      <point x="838.625" y="401.125" type="curve"/>
      <point x="773.0" y="349.625"/>
      <point x="669.875" y="256.0"/>
      <point x="522.125" y="256.0" type="curve" smooth="yes"/>
      <point x="405.5" y="256.0"/>
      <point x="322.5" y="320.25"/>
      <point x="322.5" y="417.875" type="curve" smooth="yes"/>
      <point x="322.5" y="446.75"/>
      <point x="325.875" y="470.5"/>
      <point x="331.625" y="488.0" type="curve"/>
      <point x="394.25" y="497.75"/>
      <point x="538.125" y="509.875"/>
      <point x="656.5" y="511.75" type="curve" smooth="yes"/>
      <point x="741.625" y="513.625"/>
      <point x="996.0" y="511.25"/>
      <point x="1029.375" y="510.0" type="curve"/>
      <point x="1062.25" y="581.875"/>
      <point x="1080.125" y="663.375"/>
      <point x="1080.125" y="739.75" type="curve" smooth="yes"/>
      <point x="1080.125" y="943.875"/>
      <point x="952.625" y="1065.625"/>
      <point x="722.125" y="1065.625" type="curve" smooth="yes"/>
      <point x="346.125" y="1065.625"/>
      <point x="50.625" y="794.625"/>
      <point x="50.625" y="384.0" type="curve" smooth="yes"/>
      <point x="50.625" y="134.375"/>
      <point x="211.375" y="0.125"/>
      <point x="461.75" y="0.125" type="curve" smooth="yes"/>
      <point x="716.625" y="0.125"/>
      <point x="879.625" y="108.875"/>
    </contour>
    <contour>
      <point x="382.375" y="656.75" type="curve"/>
      <point x="411.375" y="785.875"/>
      <point x="544.25" y="888.375"/>
      <point x="688.25" y="888.375" type="curve" smooth="yes"/>
      <point x="798.125" y="888.375"/>
      <point x="845.25" y="821.5"/>
      <point x="846.5" y="746.625" type="curve" smooth="yes"/>
      <point x="846.5" y="722.75"/>
      <point x="844.25" y="696.625"/>
      <point x="838.625" y="676.875" type="curve"/>
      <point x="823.875" y="677.5"/>
      <point x="747.125" y="677.625"/>
      <point x="673.0" y="676.5" type="curve" smooth="yes"/>
      <point x="544.125" y="674.625"/>
      <point x="431.875" y="664.625"/>
    </contour>
  </outline>
</glyph>
<glyph name="f" format="2">
  <advance width="896.0"/>
  <unicode hex="0066"/>
  <anchor x="305.585" y="0.0" name="bottom"/>
  <anchor x="699.47" y="1470.0" name="top"/>
  <outline>
    <contour>
      <point x="133.125" y="-8.625" type="curve"/>
      <point x="219.5" y="-8.25"/>
      <point x="364.25" y="-3.0"/>
      <point x="439.625" y="9.625" type="curve"/>
      <point x="442.125" y="77.5"/>
      <point x="470.625" y="427.0"/>
      <point x="480.875" y="515.5" type="curve"/>
      <point x="561.625" y="524.375"/>
      <point x="709.25" y="531.5"/>
      <point x="728.25" y="531.5" type="curve"/>
      <point x="747.125" y="599.625"/>
      <point x="769.375" y="695.125"/>
      <point x="777.875" y="756.625" type="curve"/>
      <point x="727.375" y="760.375"/>
      <point x="577.5" y="756.875"/>
      <point x="513.0" y="753.125" type="curve"/>
      <point x="517.125" y="789.875"/>
      <point x="525.875" y="845.625"/>
      <point x="536.125" y="884.5" type="curve" smooth="yes"/>
      <point x="565.625" y="996.75"/>
      <point x="628.875" y="1092.375"/>
      <point x="740.0" y="1092.375" type="curve" smooth="yes"/>
      <point x="831.125" y="1092.375"/>
      <point x="866.125" y="996.0"/>
      <point x="882.0" y="953.5" type="curve"/>
      <point x="917.0" y="986.75"/>
      <point x="1028.75" y="1106.375"/>
      <point x="1083.75" y="1172.875" type="curve"/>
      <point x="1067.75" y="1228.25"/>
      <point x="993.875" y="1361.125"/>
      <point x="771.125" y="1361.125" type="curve" smooth="yes"/>
      <point x="505.875" y="1361.125"/>
      <point x="332.125" y="1146.875"/>
      <point x="267.75" y="907.375" type="curve" smooth="yes"/>
      <point x="251.375" y="845.875"/>
      <point x="238.625" y="777.0"/>
      <point x="230.0" y="712.25" type="curve"/>
      <point x="202.25" y="707.25"/>
      <point x="99.5" y="682.375"/>
      <point x="72.125" y="673.0" type="curve"/>
      <point x="54.0" y="606.125"/>
      <point x="39.625" y="489.625"/>
      <point x="39.25" y="435.625" type="curve"/>
      <point x="84.25" y="450.625"/>
      <point x="154.5" y="468.375"/>
      <point x="190.5" y="474.75" type="curve"/>
      <point x="171.125" y="333.625"/>
      <point x="134.75" y="9.75"/>
    </contour>
  </outline>
</glyph>
<glyph name="g" format="2">
  <advance width="1231.0"/>
  <unicode hex="0067"/>
  <anchor x="331.572" y="-530.0" name="bottom"/>
  <anchor x="758.415" y="1063.0" name="top"/>
  <outline>
    <contour>
      <point x="596.75" y="248.125" type="curve" smooth="yes"/>
      <point x="909.75" y="248.125"/>
      <point x="1149.625" y="431.5"/>
      <point x="1149.625" y="739.25" type="curve" smooth="yes"/>
      <point x="1149.625" y="784.5"/>
      <point x="1141.875" y="824.875"/>
      <point x="1126.75" y="860.625" type="curve"/>
      <point x="1181.375" y="918.375"/>
      <point x="1264.5" y="974.625"/>
      <point x="1313.75" y="997.625" type="curve"/>
      <point x="1289.875" y="1039.875"/>
      <point x="1243.25" y="1132.5"/>
      <point x="1227.0" y="1170.125" type="curve"/>
      <point x="1158.125" y="1137.125"/>
      <point x="1063.25" y="1064.0"/>
      <point x="1004.625" y="996.25" type="curve"/>
      <point x="941.5" y="1034.875"/>
      <point x="854.625" y="1056.0"/>
      <point x="744.75" y="1056.0" type="curve" smooth="yes"/>
      <point x="424.625" y="1056.0"/>
      <point x="152.625" y="886.375"/>
      <point x="152.625" y="577.875" type="curve" smooth="yes"/>
      <point x="152.625" y="511.875"/>
      <point x="167.625" y="447.125"/>
      <point x="206.125" y="392.375" type="curve"/>
      <point x="127.625" y="360.875"/>
      <point x="58.5" y="287.75"/>
      <point x="58.5" y="207.125" type="curve" smooth="yes"/>
      <point x="58.5" y="165.5"/>
      <point x="80.375" y="126.125"/>
      <point x="133.125" y="95.125" type="curve"/>
      <point x="-16.125" y="36.625"/>
      <point x="-129.375" y="-71.75"/>
      <point x="-129.375" y="-225.375" type="curve" smooth="yes"/>
      <point x="-129.375" y="-426.25"/>
      <point x="66.5" y="-499.0"/>
      <point x="353.0" y="-499.0" type="curve" smooth="yes"/>
      <point x="686.625" y="-499.0"/>
      <point x="971.125" y="-384.625"/>
      <point x="971.125" y="-76.75" type="curve" smooth="yes"/>
      <point x="971.125" y="78.75"/>
      <point x="857.0" y="156.375"/>
      <point x="668.875" y="156.375" type="curve" smooth="yes"/>
      <point x="545.625" y="156.375"/>
      <point x="474.25" y="153.875"/>
      <point x="389.125" y="150.125" type="curve" smooth="yes"/>
      <point x="319.25" y="150.125"/>
      <point x="284.75" y="183.0"/>
      <point x="284.75" y="219.125" type="curve" smooth="yes"/>
      <point x="284.75" y="248.875"/>
      <point x="309.75" y="276.75"/>
      <point x="352.75" y="296.125" type="curve"/>
      <point x="413.125" y="266.875"/>
      <point x="493.125" y="248.125"/>
    </contour>
    <contour>
      <point x="393.125" y="-325.875" type="curve" smooth="yes"/>
      <point x="249.5" y="-325.875"/>
      <point x="149.875" y="-284.75"/>
      <point x="149.875" y="-198.875" type="curve" smooth="yes"/>
      <point x="149.875" y="-100.25"/>
      <point x="243.875" y="-47.375"/>
      <point x="347.125" y="-47.375" type="curve" smooth="yes"/>
      <point x="550.125" y="-47.375" type="line" smooth="yes"/>
      <point x="625.625" y="-47.375"/>
      <point x="698.5" y="-68.75"/>
      <point x="698.5" y="-143.625" type="curve" smooth="yes"/>
      <point x="698.5" y="-275.0"/>
      <point x="547.375" y="-325.875"/>
    </contour>
    <contour>
      <point x="618.25" y="459.5" type="curve" smooth="yes"/>
      <point x="506.875" y="459.5"/>
      <point x="437.875" y="518.375"/>
      <point x="437.875" y="613.125" type="curve" smooth="yes"/>
      <point x="437.875" y="769.5"/>
      <point x="574.75" y="849.0"/>
      <point x="724.25" y="849.0" type="curve" smooth="yes"/>
      <point x="829.625" y="849.0"/>
      <point x="894.75" y="786.125"/>
      <point x="894.75" y="693.0" type="curve" smooth="yes"/>
      <point x="894.75" y="543.0"/>
      <point x="773.5" y="459.5"/>
    </contour>
  </outline>
</glyph>
<glyph name="h" format="2">
  <advance width="1123.0"/>
  <unicode hex="0068"/>
  <anchor x="404.74062499999997" y="0.0" name="bottom"/>
  <anchor x="518.875" y="1217.5" name="center"/>
  <anchor x="443.5" y="1406.75" name="top"/>
  <outline>
    <contour>
      <point x="225.5" y="-14.0" type="curve"/>
      <point x="268.5" y="83.125"/>
      <point x="344.125" y="315.25"/>
      <point x="402.125" y="526.875" type="curve"/>
      <point x="450.625" y="584.25"/>
      <point x="562.125" y="672.625"/>
      <point x="675.375" y="672.625" type="curve" smooth="yes"/>
      <point x="743.875" y="672.625"/>
      <point x="776.125" y="631.625"/>
      <point x="776.125" y="568.75" type="curve" smooth="yes"/>
      <point x="776.125" y="461.0"/>
      <point x="651.875" y="148.375"/>
      <point x="587.625" y="1.5" type="curve"/>
      <point x="623.875" y="-6.125"/>
      <point x="671.0" y="-10.625"/>
      <point x="719.375" y="-10.625" type="curve" smooth="yes"/>
      <point x="764.0" y="-10.625"/>
      <point x="809.875" y="-7.5"/>
      <point x="852.625" y="-0.875" type="curve"/>
      <point x="938.625" y="199.125"/>
      <point x="1061.625" y="533.0"/>
      <point x="1061.625" y="694.0" type="curve" smooth="yes"/>
      <point x="1061.625" y="836.5"/>
      <point x="991.125" y="911.5"/>
      <point x="830.125" y="911.5" type="curve" smooth="yes"/>
      <point x="700.125" y="911.5"/>
      <point x="552.125" y="848.25"/>
      <point x="469.5" y="769.75" type="curve"/>
      <point x="536.25" y="1040.5"/>
      <point x="584.5" y="1292.0"/>
      <point x="593.875" y="1443.0" type="curve"/>
      <point x="542.875" y="1442.25"/>
      <point x="352.875" y="1414.75"/>
      <point x="331.25" y="1407.75" type="curve"/>
      <point x="287.875" y="1196.5"/>
      <point x="225.125" y="906.0"/>
      <point x="153.5" y="639.25" type="curve" smooth="yes"/>
      <point x="81.25" y="368.875"/>
      <point x="-0.125" y="119.625"/>
      <point x="-49.25" y="-7.875" type="curve"/>
      <point x="-26.875" y="-17.0"/>
      <point x="29.0" y="-20.875"/>
      <point x="90.125" y="-20.875" type="curve" smooth="yes"/>
      <point x="142.5" y="-20.875"/>
      <point x="195.875" y="-18.375"/>
    </contour>
  </outline>
</glyph>
<glyph name="i" format="2">
  <advance width="610.0"/>
  <unicode hex="0069"/>
  <anchor x="161.5" y="0.0" name="bottom"/>
  <outline>
    <contour>
      <point x="273.625" y="0.75" type="curve"/>
      <point x="315.125" y="86.75"/>
      <point x="423.125" y="438.0"/>
      <point x="488.25" y="682.875" type="curve" smooth="yes"/>
      <point x="516.625" y="789.25"/>
      <point x="537.625" y="887.5"/>
      <point x="542.125" y="928.0" type="curve"/>
      <point x="480.625" y="928.0"/>
      <point x="344.125" y="920.625"/>
      <point x="283.5" y="914.875" type="curve"/>
      <point x="223.25" y="708.75"/>
      <point x="28.375" y="89.375"/>
      <point x="-9.625" y="2.375" type="curve"/>
      <point x="32.875" y="-3.375"/>
      <point x="79.5" y="-6.0"/>
      <point x="126.25" y="-6.0" type="curve" smooth="yes"/>
      <point x="186.75" y="-6.0"/>
      <point x="250.875" y="-1.25"/>
    </contour>
    <contour>
      <point x="468.5" y="1059.125" type="curve" smooth="yes"/>
      <point x="584.625" y="1059.125"/>
      <point x="681.0" y="1160.75"/>
      <point x="681.0" y="1275.875" type="curve" smooth="yes"/>
      <point x="681.0" y="1351.0"/>
      <point x="623.25" y="1407.875"/>
      <point x="540.5" y="1407.875" type="curve" smooth="yes"/>
      <point x="417.5" y="1407.875"/>
      <point x="311.25" y="1311.125"/>
      <point x="311.25" y="1186.625" type="curve" smooth="yes"/>
      <point x="311.25" y="1109.125"/>
      <point x="376.875" y="1059.125"/>
    </contour>
  </outline>
</glyph>
<glyph name="j" format="2">
  <advance width="676.875"/>
  <unicode hex="006A"/>
  <outline>
    <contour>
      <point x="473.25" y="204.625" type="curve" smooth="yes"/>
      <point x="536.875" y="454.0"/>
      <point x="570.875" y="767.875"/>
      <point x="577.625" y="914.375" type="curve"/>
      <point x="281.875" y="899.5" type="line"/>
      <point x="269.875" y="691.875"/>
      <point x="221.875" y="399.625"/>
      <point x="164.125" y="181.75" type="curve" smooth="yes"/>
      <point x="113.625" y="-7.625"/>
      <point x="35.75" y="-252.0"/>
      <point x="-94.625" y="-252.0" type="curve" smooth="yes"/>
      <point x="-189.75" y="-252.0"/>
      <point x="-230.75" y="-160.25"/>
      <point x="-235.625" y="-72.0" type="curve"/>
      <point x="-310.75" y="-94.75"/>
      <point x="-429.75" y="-145.875"/>
      <point x="-515.5" y="-197.625" type="curve"/>
      <point x="-503.5" y="-375.125"/>
      <point x="-346.125" y="-496.125"/>
      <point x="-136.125" y="-496.125" type="curve" smooth="yes"/>
      <point x="193.625" y="-496.125"/>
      <point x="361.0" y="-239.375"/>
    </contour>
    <contour>
      <point x="494.875" y="1400.625" type="curve" smooth="yes"/>
      <point x="371.25" y="1400.625"/>
      <point x="263.625" y="1299.875"/>
      <point x="263.625" y="1181.75" type="curve" smooth="yes"/>
      <point x="263.625" y="1103.625"/>
      <point x="329.875" y="1041.25"/>
      <point x="425.25" y="1041.25" type="curve" smooth="yes"/>
      <point x="542.625" y="1041.25"/>
      <point x="661.75" y="1137.875"/>
      <point x="661.75" y="1252.0" type="curve" smooth="yes"/>
      <point x="661.75" y="1327.125"/>
      <point x="601.5" y="1400.625"/>
    </contour>
  </outline>
</glyph>
<glyph name="k" format="2">
  <advance width="1156.0"/>
  <unicode hex="006B"/>
  <anchor x="443.24062499999997" y="0.0" name="bottom"/>
  <anchor x="836.79375" y="1470.0" name="top"/>
  <outline>
    <contour>
      <point x="735.25" y="-48.375" type="curve"/>
      <point x="788.0" y="-35.125"/>
      <point x="971.875" y="30.5"/>
      <point x="1011.5" y="51.75" type="curve"/>
      <point x="940.875" y="257.625"/>
      <point x="795.5" y="498.25"/>
      <point x="729.0" y="556.0" type="curve"/>
      <point x="823.0" y="615.125"/>
      <point x="1080.25" y="752.875"/>
      <point x="1198.25" y="814.5" type="curve"/>
      <point x="1181.0" y="865.125"/>
      <point x="1116.75" y="984.625"/>
      <point x="1076.5" y="1019.375" type="curve"/>
      <point x="917.375" y="939.375"/>
      <point x="599.625" y="776.875"/>
      <point x="458.125" y="648.25" type="curve"/>
      <point x="505.625" y="791.75"/>
      <point x="616.875" y="1166.375"/>
      <point x="693.25" y="1434.75" type="curve"/>
      <point x="653.5" y="1447.625"/>
      <point x="602.25" y="1453.0"/>
      <point x="546.875" y="1453.0" type="curve" smooth="yes"/>
      <point x="507.375" y="1453.0"/>
      <point x="466.0" y="1450.5"/>
      <point x="427.375" y="1447.375" type="curve"/>
      <point x="358.875" y="1235.625"/>
      <point x="38.125" y="192.75"/>
      <point x="-28.125" y="-23.5" type="curve"/>
      <point x="8.125" y="-28.375"/>
      <point x="58.5" y="-32.875"/>
      <point x="115.0" y="-32.875" type="curve" smooth="yes"/>
      <point x="157.625" y="-32.875"/>
      <point x="203.25" y="-30.25"/>
      <point x="247.25" y="-25.125" type="curve"/>
      <point x="266.875" y="31.5"/>
      <point x="323.625" y="205.625"/>
      <point x="357.0" y="321.0" type="curve"/>
      <point x="374.25" y="334.375"/>
      <point x="475.5" y="397.125"/>
      <point x="510.625" y="417.625" type="curve"/>
      <point x="584.75" y="356.875"/>
      <point x="708.125" y="60.375"/>
    </contour>
  </outline>
</glyph>
<glyph name="l" format="2">
  <advance width="645.0"/>
  <unicode hex="006C"/>
  <anchor x="165.585" y="0.0" name="bottom"/>
  <anchor x="362.528" y="735.0" name="center"/>
  <anchor x="559.47" y="1470.0" name="top"/>
  <anchor x="575.625" y="1033.875" name="topright"/>
  <outline>
    <contour>
      <point x="525.125" y="52.625" type="curve"/>
      <point x="521.125" y="75.125"/>
      <point x="489.0" y="240.875"/>
      <point x="479.5" y="269.0" type="curve"/>
      <point x="450.0" y="233.0"/>
      <point x="414.375" y="208.5"/>
      <point x="365.875" y="208.5" type="curve" smooth="yes"/>
      <point x="321.125" y="208.5"/>
      <point x="306.0" y="240.625"/>
      <point x="306.0" y="290.375" type="curve" smooth="yes"/>
      <point x="306.0" y="436.875"/>
      <point x="479.375" y="963.125"/>
      <point x="637.125" y="1426.0" type="curve"/>
      <point x="585.125" y="1430.875"/>
      <point x="542.5" y="1433.5"/>
      <point x="496.625" y="1433.5" type="curve" smooth="yes"/>
      <point x="463.75" y="1433.5"/>
      <point x="420.875" y="1431.875"/>
      <point x="379.25" y="1429.0" type="curve"/>
      <point x="273.5" y="1114.0"/>
      <point x="33.0" y="393.625"/>
      <point x="33.0" y="161.5" type="curve" smooth="yes"/>
      <point x="33.0" y="35.5"/>
      <point x="106.0" y="-38.875"/>
      <point x="259.0" y="-38.875" type="curve" smooth="yes"/>
      <point x="379.0" y="-38.875"/>
      <point x="478.125" y="11.75"/>
    </contour>
  </outline>
</glyph>
<glyph name="m" format="2">
  <advance width="1858.0"/>
  <unicode hex="006D"/>
  <anchor x="786.585" y="0.0" name="bottom"/>
  <anchor x="1071.415" y="1063.0" name="top"/>
  <outline>
    <contour>
      <point x="9.75" y="-8.125" type="curve"/>
      <point x="43.125" y="-12.75"/>
      <point x="123.125" y="-16.625"/>
      <point x="196.75" y="-16.625" type="curve" smooth="yes"/>
      <point x="227.5" y="-16.625"/>
      <point x="279.375" y="-14.625"/>
      <point x="293.375" y="-13.625" type="curve"/>
      <point x="297.75" y="20.625"/>
      <point x="344.0" y="268.0"/>
      <point x="417.375" y="587.375" type="curve"/>
      <point x="454.5" y="671.75"/>
      <point x="600.5" y="802.5"/>
      <point x="721.125" y="802.5" type="curve" smooth="yes"/>
      <point x="803.125" y="802.5"/>
      <point x="834.0" y="756.125"/>
      <point x="834.0" y="660.75" type="curve" smooth="yes"/>
      <point x="834.0" y="526.5"/>
      <point x="761.25" y="240.75"/>
      <point x="691.0" y="-7.0" type="curve"/>
      <point x="713.375" y="-11.0"/>
      <point x="771.625" y="-13.0"/>
      <point x="826.625" y="-13.0" type="curve" smooth="yes"/>
      <point x="872.75" y="-13.0"/>
      <point x="920.125" y="-11.0"/>
      <point x="945.75" y="-9.0" type="curve"/>
      <point x="967.625" y="71.625"/>
      <point x="990.0" y="151.75"/>
      <point x="1012.0" y="225.25" type="curve" smooth="yes"/>
      <point x="1102.0" y="533.875"/>
      <point x="1211.875" y="802.375"/>
      <point x="1417.0" y="802.375" type="curve" smooth="yes"/>
      <point x="1487.75" y="802.375"/>
      <point x="1519.375" y="758.125"/>
      <point x="1519.375" y="673.5" type="curve" smooth="yes"/>
      <point x="1519.375" y="517.5"/>
      <point x="1407.0" y="222.625"/>
      <point x="1310.625" y="-12.125" type="curve"/>
      <point x="1356.625" y="-16.625"/>
      <point x="1404.625" y="-18.25"/>
      <point x="1451.0" y="-18.25" type="curve" smooth="yes"/>
      <point x="1495.75" y="-18.25"/>
      <point x="1543.25" y="-16.25"/>
      <point x="1587.0" y="-12.875" type="curve"/>
      <point x="1680.625" y="262.0"/>
      <point x="1781.125" y="574.875"/>
      <point x="1781.125" y="770.5" type="curve" smooth="yes"/>
      <point x="1781.125" y="946.625"/>
      <point x="1695.375" y="1045.125"/>
      <point x="1497.125" y="1045.125" type="curve" smooth="yes"/>
      <point x="1285.0" y="1045.125"/>
      <point x="1121.5" y="885.25"/>
      <point x="1037.625" y="725.375" type="curve"/>
      <point x="1044.0" y="763.375"/>
      <point x="1048.5" y="804.875"/>
      <point x="1045.375" y="843.625" type="curve" smooth="yes"/>
      <point x="1034.125" y="945.5"/>
      <point x="975.0" y="1035.625"/>
      <point x="835.875" y="1035.625" type="curve" smooth="yes"/>
      <point x="633.0" y="1035.625"/>
      <point x="505.0" y="896.125"/>
      <point x="473.375" y="843.375" type="curve"/>
      <point x="480.375" y="872.875"/>
      <point x="506.0" y="983.625"/>
      <point x="517.625" y="1027.0" type="curve"/>
      <point x="459.25" y="1026.625"/>
      <point x="300.375" y="1008.25"/>
      <point x="240.75" y="992.75" type="curve"/>
      <point x="181.5" y="771.5"/>
      <point x="49.5" y="215.375"/>
    </contour>
  </outline>
</glyph>
<glyph name="n" format="2">
  <advance width="1330.0"/>
  <unicode hex="006E"/>
  <anchor x="522.585" y="0.0" name="bottom"/>
  <anchor x="807.415" y="1063.0" name="top"/>
  <outline>
    <contour>
      <point x="279.5" y="-13.25" type="curve"/>
      <point x="323.75" y="96.75"/>
      <point x="410.75" y="337.875"/>
      <point x="501.875" y="660.875" type="curve"/>
      <point x="583.125" y="722.0"/>
      <point x="727.75" y="806.25"/>
      <point x="866.125" y="806.25" type="curve" smooth="yes"/>
      <point x="965.125" y="806.25"/>
      <point x="1002.75" y="758.625"/>
      <point x="1002.75" y="677.5" type="curve" smooth="yes"/>
      <point x="1002.75" y="529.25"/>
      <point x="865.25" y="181.625"/>
      <point x="782.0" y="-3.0" type="curve"/>
      <point x="808.0" y="-6.375"/>
      <point x="866.0" y="-8.375"/>
      <point x="925.875" y="-8.375" type="curve" smooth="yes"/>
      <point x="982.5" y="-8.375"/>
      <point x="1038.375" y="-6.0"/>
      <point x="1064.375" y="-3.0" type="curve"/>
      <point x="1163.875" y="257.125"/>
      <point x="1289.875" y="632.25"/>
      <point x="1289.875" y="818.25" type="curve" smooth="yes"/>
      <point x="1289.875" y="977.625"/>
      <point x="1212.875" y="1060.0"/>
      <point x="1009.5" y="1060.0" type="curve" smooth="yes"/>
      <point x="842.625" y="1060.0"/>
      <point x="640.25" y="955.875"/>
      <point x="564.25" y="878.625" type="curve"/>
      <point x="578.5" y="924.125"/>
      <point x="603.375" y="1017.75"/>
      <point x="607.0" y="1037.375" type="curve"/>
      <point x="577.75" y="1042.5"/>
      <point x="535.25" y="1044.375"/>
      <point x="492.375" y="1044.375" type="curve" smooth="yes"/>
      <point x="429.625" y="1044.375"/>
      <point x="363.375" y="1040.125"/>
      <point x="317.125" y="1034.0" type="curve"/>
      <point x="184.25" y="539.0"/>
      <point x="86.25" y="217.125"/>
      <point x="1.75" y="-5.625" type="curve"/>
      <point x="25.75" y="-8.25"/>
      <point x="92.875" y="-11.5"/>
      <point x="136.875" y="-12.75" type="curve" smooth="yes"/>
      <point x="188.875" y="-14.0"/>
      <point x="243.125" y="-13.625"/>
    </contour>
  </outline>
</glyph>
<glyph name="o" format="2">
  <advance width="1170.75"/>
  <unicode hex="006F"/>
  <anchor x="433.625" y="0.0" name="bottom"/>
  <anchor x="575.625" y="532.0" name="center"/>
  <anchor x="641.75" y="0.0" name="ogonek"/>
  <anchor x="717.625" y="1063.0" name="top"/>
  <anchor x="982.0" y="941.0" name="topright"/>
  <outline>
    <contour>
      <point x="481.0" y="-25.25" type="curve" smooth="yes"/>
      <point x="870.5" y="-25.25"/>
      <point x="1104.75" y="266.25"/>
      <point x="1104.75" y="664.125" type="curve" smooth="yes"/>
      <point x="1104.75" y="910.5"/>
      <point x="988.625" y="1065.125"/>
      <point x="716.25" y="1065.125" type="curve" smooth="yes"/>
      <point x="318.625" y="1065.125"/>
      <point x="54.875" y="767.0"/>
      <point x="54.875" y="361.875" type="curve" smooth="yes"/>
      <point x="54.875" y="123.375"/>
      <point x="194.25" y="-25.25"/>
    </contour>
    <contour>
      <point x="516.625" y="225.75" type="curve" smooth="yes"/>
      <point x="391.125" y="225.75"/>
      <point x="329.75" y="313.625"/>
      <point x="329.75" y="436.0" type="curve" smooth="yes"/>
      <point x="329.75" y="647.125"/>
      <point x="459.625" y="858.875"/>
      <point x="670.0" y="858.875" type="curve" smooth="yes"/>
      <point x="800.25" y="858.875"/>
      <point x="854.625" y="766.125"/>
      <point x="854.625" y="639.5" type="curve" smooth="yes"/>
      <point x="854.625" y="425.375"/>
      <point x="730.625" y="225.75"/>
    </contour>
  </outline>
</glyph>
<glyph name="p" format="2">
  <advance width="1217.75"/>
  <unicode hex="0070"/>
  <anchor x="457.585" y="0.0" name="bottom"/>
  <anchor x="742.415" y="1063.0" name="top"/>
  <outline>
    <contour>
      <point x="-195.25" y="-445.25" type="curve"/>
      <point x="-140.125" y="-445.25"/>
      <point x="-15.375" y="-440.125"/>
      <point x="83.875" y="-421.25" type="curve"/>
      <point x="130.5" y="-301.125"/>
      <point x="267.125" y="107.875"/>
      <point x="289.75" y="187.0" type="curve"/>
      <point x="315.75" y="140.5"/>
      <point x="449.125" y="72.125"/>
      <point x="584.125" y="72.125" type="curve" smooth="yes"/>
      <point x="946.625" y="72.125"/>
      <point x="1178.75" y="361.375"/>
      <point x="1178.75" y="719.0" type="curve" smooth="yes"/>
      <point x="1178.75" y="933.125"/>
      <point x="1088.375" y="1074.375"/>
      <point x="867.5" y="1074.375" type="curve" smooth="yes"/>
      <point x="684.625" y="1074.375"/>
      <point x="555.25" y="972.375"/>
      <point x="503.375" y="920.625" type="curve"/>
      <point x="517.125" y="968.625"/>
      <point x="533.0" y="1035.25"/>
      <point x="539.875" y="1075.5" type="curve"/>
      <point x="451.25" y="1075.5"/>
      <point x="345.5" y="1065.875"/>
      <point x="266.5" y="1043.375" type="curve"/>
      <point x="205.25" y="815.125"/>
      <point x="-8.375" y="85.75"/>
    </contour>
    <contour>
      <point x="600.125" y="344.875" type="curve" smooth="yes"/>
      <point x="460.375" y="344.875"/>
      <point x="396.0" y="410.375"/>
      <point x="368.75" y="445.5" type="curve"/>
      <point x="381.125" y="482.75"/>
      <point x="439.625" y="682.25"/>
      <point x="450.25" y="720.5" type="curve"/>
      <point x="497.5" y="765.5"/>
      <point x="609.875" y="846.375"/>
      <point x="747.875" y="846.375" type="curve" smooth="yes"/>
      <point x="869.625" y="846.375"/>
      <point x="909.875" y="786.0"/>
      <point x="909.875" y="678.25" type="curve" smooth="yes"/>
      <point x="909.875" y="483.75"/>
      <point x="798.375" y="344.875"/>
    </contour>
  </outline>
</glyph>
<glyph name="q" format="2">
  <advance width="1207.0"/>
  <unicode hex="0071"/>
  <anchor x="461.585" y="0.0" name="bottom"/>
  <anchor x="746.415" y="1063.0" name="top"/>
  <outline>
    <contour>
      <point x="830.875" y="-458.625" type="curve"/>
      <point x="848.125" y="-342.75"/>
      <point x="887.25" y="-108.25"/>
      <point x="948.875" y="122.125" type="curve" smooth="yes"/>
      <point x="1027.0" y="414.75"/>
      <point x="1148.75" y="778.625"/>
      <point x="1259.75" y="1053.875" type="curve"/>
      <point x="1181.625" y="1075.75"/>
      <point x="1099.75" y="1089.0"/>
      <point x="1021.125" y="1089.75" type="curve"/>
      <point x="1011.125" y="1069.625"/>
      <point x="978.375" y="991.875"/>
      <point x="967.5" y="954.75" type="curve"/>
      <point x="904.375" y="1026.375"/>
      <point x="802.125" y="1084.75"/>
      <point x="646.875" y="1084.75" type="curve" smooth="yes"/>
      <point x="288.875" y="1084.75"/>
      <point x="90.0" y="786.375"/>
      <point x="90.0" y="398.0" type="curve" smooth="yes"/>
      <point x="90.0" y="176.5"/>
      <point x="185.5" y="16.5"/>
      <point x="417.375" y="16.5" type="curve" smooth="yes"/>
      <point x="561.375" y="16.5"/>
      <point x="663.0" y="77.625"/>
      <point x="700.375" y="119.875" type="curve"/>
      <point x="647.125" y="-78.375"/>
      <point x="600.25" y="-280.875"/>
      <point x="575.125" y="-445.375" type="curve"/>
      <point x="636.75" y="-451.875"/>
      <point x="725.75" y="-458.625"/>
    </contour>
    <contour>
      <point x="512.625" y="291.0" type="curve" smooth="yes"/>
      <point x="401.875" y="291.0"/>
      <point x="355.625" y="361.0"/>
      <point x="355.625" y="463.75" type="curve" smooth="yes"/>
      <point x="355.625" y="658.125"/>
      <point x="472.5" y="830.0"/>
      <point x="660.375" y="830.0" type="curve" smooth="yes"/>
      <point x="779.625" y="830.0"/>
      <point x="867.75" y="757.75"/>
      <point x="890.125" y="736.625" type="curve"/>
      <point x="860.625" y="656.125"/>
      <point x="793.75" y="459.25"/>
      <point x="769.625" y="380.375" type="curve"/>
      <point x="727.5" y="349.25"/>
      <point x="619.875" y="291.0"/>
    </contour>
  </outline>
</glyph>
<glyph name="r" format="2">
  <advance width="853.0"/>
  <unicode hex="0072"/>
  <anchor x="291.094375" y="0.0" name="bottom"/>
  <anchor x="575.405625" y="1063.0" name="top"/>
  <outline>
    <contour>
      <point x="422.0" y="892.625" type="curve"/>
      <point x="424.0" y="932.375"/>
      <point x="425.25" y="1019.25"/>
      <point x="425.25" y="1066.5" type="curve"/>
      <point x="399.75" y="1064.875"/>
      <point x="267.875" y="1041.875"/>
      <point x="180.5" y="1018.375" type="curve"/>
      <point x="176.125" y="766.75"/>
      <point x="81.375" y="291.75"/>
      <point x="4.75" y="-4.25" type="curve"/>
      <point x="102.5" y="-5.375"/>
      <point x="222.0" y="-3.25"/>
      <point x="306.375" y="6.75" type="curve"/>
      <point x="333.625" y="110.25"/>
      <point x="393.0" y="483.75"/>
      <point x="407.25" y="651.125" type="curve"/>
      <point x="487.375" y="734.0"/>
      <point x="601.25" y="793.25"/>
      <point x="703.375" y="793.25" type="curve" smooth="yes"/>
      <point x="767.5" y="793.25"/>
      <point x="810.0" y="774.5"/>
      <point x="836.875" y="762.0" type="curve"/>
      <point x="966.625" y="1041.0" type="line"/>
      <point x="941.25" y="1059.0"/>
      <point x="864.5" y="1073.875"/>
      <point x="799.25" y="1073.875" type="curve" smooth="yes"/>
      <point x="651.625" y="1073.875"/>
      <point x="497.625" y="985.75"/>
    </contour>
  </outline>
</glyph>
<glyph name="s" format="2">
  <advance width="990.625"/>
  <unicode hex="0073"/>
  <anchor x="338.125" y="-66.25" name="bottom"/>
  <anchor x="647.0" y="1114.25" name="top"/>
  <outline>
    <contour>
      <point x="362.75" y="-79.625" type="curve" smooth="yes"/>
      <point x="636.625" y="-79.625"/>
      <point x="888.875" y="64.0"/>
      <point x="888.875" y="327.375" type="curve" smooth="yes"/>
      <point x="888.875" y="492.125"/>
      <point x="763.375" y="595.375"/>
      <point x="617.25" y="655.25" type="curve" smooth="yes"/>
      <point x="509.875" y="701.0"/>
      <point x="451.75" y="740.375"/>
      <point x="451.75" y="797.625" type="curve" smooth="yes"/>
      <point x="451.75" y="884.5"/>
      <point x="565.875" y="913.375"/>
      <point x="650.375" y="913.375" type="curve" smooth="yes"/>
      <point x="740.125" y="913.375"/>
      <point x="823.625" y="862.25"/>
      <point x="869.125" y="817.125" type="curve"/>
      <point x="939.0" y="880.875"/>
      <point x="1015.5" y="978.625"/>
      <point x="1037.5" y="1016.375" type="curve"/>
      <point x="971.125" y="1073.5"/>
      <point x="833.5" y="1122.125"/>
      <point x="671.25" y="1122.125" type="curve" smooth="yes"/>
      <point x="436.875" y="1122.125"/>
      <point x="194.25" y="1011.75"/>
      <point x="194.25" y="775.375" type="curve" smooth="yes"/>
      <point x="194.25" y="625.125"/>
      <point x="291.25" y="540.875"/>
      <point x="435.125" y="477.125" type="curve" smooth="yes"/>
      <point x="544.625" y="429.5"/>
      <point x="622.0" y="379.5"/>
      <point x="622.0" y="303.625" type="curve" smooth="yes"/>
      <point x="622.0" y="202.375"/>
      <point x="519.875" y="154.375"/>
      <point x="416.875" y="154.375" type="curve" smooth="yes"/>
      <point x="301.75" y="154.375"/>
      <point x="189.875" y="243.375"/>
      <point x="121.625" y="331.875" type="curve"/>
      <point x="68.375" y="288.75"/>
      <point x="-52.25" y="138.375"/>
      <point x="-80.125" y="94.375" type="curve"/>
      <point x="-31.875" y="20.5"/>
      <point x="136.125" y="-79.625"/>
    </contour>
  </outline>
</glyph>
<glyph name="t" format="2">
  <advance width="964.0"/>
  <unicode hex="0074"/>
  <anchor x="472.125" y="-45.5" name="bottom"/>
  <anchor x="454.5" y="532.0" name="center"/>
  <anchor x="628.375" y="1426.625" name="top"/>
  <anchor x="796.25" y="1304.75" name="topright"/>
  <outline>
    <contour>
      <point x="792.5" y="130.375" type="curve"/>
      <point x="782.125" y="149.0"/>
      <point x="709.375" y="299.75"/>
      <point x="694.625" y="320.0" type="curve"/>
      <point x="665.25" y="273.5"/>
      <point x="612.75" y="196.0"/>
      <point x="541.875" y="196.0" type="curve" smooth="yes"/>
      <point x="488.125" y="196.0"/>
      <point x="474.75" y="231.125"/>
      <point x="474.75" y="289.375" type="curve" smooth="yes"/>
      <point x="474.75" y="399.5"/>
      <point x="574.125" y="738.0"/>
      <point x="624.625" y="883.375" type="curve"/>
      <point x="672.0" y="886.75"/>
      <point x="736.875" y="891.0"/>
      <point x="786.875" y="893.5" type="curve" smooth="yes"/>
      <point x="859.875" y="897.25"/>
      <point x="951.875" y="898.125"/>
      <point x="964.875" y="897.75" type="curve"/>
      <point x="982.25" y="960.875"/>
      <point x="1005.625" y="1057.875"/>
      <point x="1012.5" y="1112.875" type="curve"/>
      <point x="997.5" y="1113.25"/>
      <point x="924.875" y="1115.125"/>
      <point x="836.875" y="1112.0" type="curve" smooth="yes"/>
      <point x="801.125" y="1110.75"/>
      <point x="731.125" y="1107.125"/>
      <point x="688.5" y="1105.125" type="curve"/>
      <point x="700.75" y="1154.75"/>
      <point x="713.0" y="1202.25"/>
      <point x="724.0" y="1243.5" type="curve" smooth="yes"/>
      <point x="748.375" y="1334.125"/>
      <point x="768.625" y="1418.0"/>
      <point x="771.125" y="1432.875" type="curve"/>
      <point x="510.375" y="1411.625" type="line"/>
      <point x="504.25" y="1379.5"/>
      <point x="491.5" y="1323.25"/>
      <point x="478.875" y="1271.125" type="curve" smooth="yes"/>
      <point x="464.375" y="1212.0"/>
      <point x="447.75" y="1149.0"/>
      <point x="431.125" y="1091.5" type="curve"/>
      <point x="333.125" y="1086.375"/>
      <point x="236.375" y="1075.5"/>
      <point x="157.0" y="1065.375" type="curve"/>
      <point x="151.375" y="1044.875"/>
      <point x="123.375" y="924.875"/>
      <point x="115.875" y="829.625" type="curve"/>
      <point x="149.125" y="836.875"/>
      <point x="254.625" y="853.25"/>
      <point x="371.25" y="864.5" type="curve"/>
      <point x="320.75" y="722.625"/>
      <point x="219.25" y="348.75"/>
      <point x="219.25" y="210.75" type="curve" smooth="yes"/>
      <point x="219.25" y="65.625"/>
      <point x="287.75" y="-45.5"/>
      <point x="457.375" y="-45.5" type="curve" smooth="yes"/>
      <point x="638.0" y="-45.5"/>
      <point x="738.125" y="49.25"/>
    </contour>
  </outline>
</glyph>
<glyph name="u" format="2">
  <advance width="1178.0"/>
  <unicode hex="0075"/>
  <anchor x="440.594375" y="0.0" name="bottom"/>
  <anchor x="680.75" y="0.0" name="ogonek"/>
  <anchor x="724.905625" y="1063.0" name="top"/>
  <anchor x="1105.875" y="916.25" name="topright"/>
  <outline>
    <contour>
      <point x="891.375" y="985.375" type="curve"/>
      <point x="884.625" y="874.5"/>
      <point x="863.625" y="758.875"/>
      <point x="831.25" y="641.5" type="curve" smooth="yes"/>
      <point x="760.375" y="382.875"/>
      <point x="651.75" y="200.875"/>
      <point x="508.125" y="200.875" type="curve" smooth="yes"/>
      <point x="417.5" y="200.875"/>
      <point x="373.75" y="263.5"/>
      <point x="373.75" y="383.75" type="curve" smooth="yes"/>
      <point x="373.75" y="547.25"/>
      <point x="453.125" y="804.0"/>
      <point x="530.875" y="1013.375" type="curve"/>
      <point x="498.5" y="1023.625"/>
      <point x="436.125" y="1030.375"/>
      <point x="378.375" y="1031.5" type="curve" smooth="yes"/>
      <point x="337.25" y="1032.625"/>
      <point x="281.25" y="1030.875"/>
      <point x="248.625" y="1028.75" type="curve"/>
      <point x="163.75" y="782.0"/>
      <point x="86.5" y="526.5"/>
      <point x="86.5" y="325.75" type="curve" smooth="yes"/>
      <point x="86.5" y="96.125"/>
      <point x="182.875" y="-55.375"/>
      <point x="449.75" y="-55.375" type="curve" smooth="yes"/>
      <point x="818.5" y="-55.375"/>
      <point x="1007.25" y="260.75"/>
      <point x="1109.125" y="642.375" type="curve" smooth="yes"/>
      <point x="1139.5" y="757.0"/>
      <point x="1159.375" y="876.625"/>
      <point x="1172.125" y="991.75" type="curve"/>
      <point x="1141.125" y="997.125"/>
      <point x="1081.625" y="1000.875"/>
      <point x="1037.875" y="1000.875" type="curve" smooth="yes"/>
      <point x="985.625" y="1000.875"/>
      <point x="922.375" y="994.5"/>
    </contour>
  </outline>
</glyph>
<glyph name="v" format="2">
  <advance width="1007.0"/>
  <unicode hex="0076"/>
  <anchor x="361.585" y="0.0" name="bottom"/>
  <anchor x="646.415" y="1063.0" name="top"/>
  <outline>
    <contour>
      <point x="860.0" y="1091.0" type="curve"/>
      <point x="741.625" y="819.25"/>
      <point x="566.625" y="524.625"/>
      <point x="448.75" y="334.0" type="curve"/>
      <point x="425.25" y="485.0"/>
      <point x="401.75" y="869.25"/>
      <point x="401.75" y="1092.0" type="curve"/>
      <point x="336.125" y="1074.5"/>
      <point x="190.75" y="1040.625"/>
      <point x="153.0" y="1033.0" type="curve"/>
      <point x="165.25" y="711.25"/>
      <point x="198.0" y="308.75"/>
      <point x="261.0" y="10.875" type="curve"/>
      <point x="289.375" y="7.0"/>
      <point x="332.125" y="2.875"/>
      <point x="376.5" y="2.875" type="curve" smooth="yes"/>
      <point x="419.875" y="2.875"/>
      <point x="463.875" y="5.75"/>
      <point x="495.125" y="10.875" type="curve"/>
      <point x="692.75" y="292.0"/>
      <point x="980.625" y="773.5"/>
      <point x="1104.875" y="1026.375" type="curve"/>
      <point x="1089.5" y="1032.625"/>
      <point x="978.625" y="1068.875"/>
    </contour>
  </outline>
</glyph>
<glyph name="w" format="2">
  <advance width="1520.0"/>
  <unicode hex="0077"/>
  <anchor x="617.585" y="0.0" name="bottom"/>
  <anchor x="902.415" y="1063.0" name="top"/>
  <outline>
    <contour>
      <point x="324.5" y="7.0" type="curve" smooth="yes"/>
      <point x="479.125" y="7.0"/>
      <point x="602.625" y="113.75"/>
      <point x="672.75" y="237.5" type="curve"/>
      <point x="691.5" y="111.0"/>
      <point x="749.25" y="14.625"/>
      <point x="902.375" y="14.625" type="curve" smooth="yes"/>
      <point x="1202.375" y="14.625"/>
      <point x="1378.75" y="343.125"/>
      <point x="1489.0" y="748.0" type="curve" smooth="yes"/>
      <point x="1509.125" y="821.875"/>
      <point x="1538.125" y="956.75"/>
      <point x="1553.625" y="1035.25" type="curve"/>
      <point x="1523.875" y="1037.875"/>
      <point x="1463.875" y="1041.375"/>
      <point x="1425.75" y="1041.375" type="curve" smooth="yes"/>
      <point x="1387.25" y="1041.375"/>
      <point x="1349.375" y="1041.375"/>
      <point x="1310.125" y="1041.0" type="curve"/>
      <point x="1289.0" y="953.0"/>
      <point x="1264.0" y="851.0"/>
      <point x="1243.625" y="775.375" type="curve" smooth="yes"/>
      <point x="1165.25" y="483.375"/>
      <point x="1057.875" y="239.125"/>
      <point x="932.125" y="239.125" type="curve" smooth="yes"/>
      <point x="875.875" y="239.125"/>
      <point x="854.25" y="283.25"/>
      <point x="854.25" y="360.25" type="curve" smooth="yes"/>
      <point x="854.25" y="470.0"/>
      <point x="892.25" y="615.375"/>
      <point x="1003.5" y="1036.0" type="curve"/>
      <point x="947.5" y="1039.0"/>
      <point x="820.125" y="1040.625"/>
      <point x="767.75" y="1040.625" type="curve"/>
      <point x="746.75" y="950.5"/>
      <point x="719.5" y="842.125"/>
      <point x="697.125" y="758.5" type="curve" smooth="yes"/>
      <point x="623.125" y="483.875"/>
      <point x="518.375" y="267.625"/>
      <point x="405.625" y="267.625" type="curve" smooth="yes"/>
      <point x="353.625" y="267.625"/>
      <point x="331.75" y="309.25"/>
      <point x="331.75" y="379.0" type="curve" smooth="yes"/>
      <point x="331.75" y="517.75"/>
      <point x="432.0" y="821.25"/>
      <point x="513.875" y="1048.5" type="curve"/>
      <point x="439.25" y="1054.25"/>
      <point x="334.25" y="1059.25"/>
      <point x="260.875" y="1059.25" type="curve"/>
      <point x="164.25" y="797.875"/>
      <point x="69.25" y="518.5"/>
      <point x="69.25" y="308.5" type="curve" smooth="yes"/>
      <point x="69.25" y="129.875"/>
      <point x="137.875" y="7.0"/>
    </contour>
  </outline>
</glyph>
<glyph name="x" format="2">
  <advance width="1142.0"/>
  <unicode hex="0078"/>
  <anchor x="428.585" y="0.0" name="bottom"/>
  <anchor x="713.415" y="1063.0" name="top"/>
  <outline>
    <contour>
      <point x="109.5" y="-22.5" type="curve"/>
      <point x="202.25" y="46.375"/>
      <point x="389.125" y="219.625"/>
      <point x="565.0" y="390.625" type="curve"/>
      <point x="626.375" y="284.5"/>
      <point x="690.625" y="108.25"/>
      <point x="725.625" y="-18.75" type="curve"/>
      <point x="799.125" y="13.125"/>
      <point x="908.875" y="67.75"/>
      <point x="972.625" y="114.0" type="curve"/>
      <point x="913.0" y="271.5"/>
      <point x="838.125" y="454.125"/>
      <point x="769.75" y="579.375" type="curve"/>
      <point x="924.125" y="711.0"/>
      <point x="1128.5" y="926.75"/>
      <point x="1225.125" y="1041.875" type="curve"/>
      <point x="1179.375" y="1076.25"/>
      <point x="1073.75" y="1127.625"/>
      <point x="1009.25" y="1159.5" type="curve"/>
      <point x="900.25" y="1016.625"/>
      <point x="777.25" y="881.25"/>
      <point x="653.875" y="758.125" type="curve"/>
      <point x="618.125" y="853.375"/>
      <point x="467.125" y="1086.0"/>
      <point x="411.625" y="1158.875" type="curve"/>
      <point x="354.125" y="1131.25"/>
      <point x="202.75" y="1033.125"/>
      <point x="176.75" y="1007.5" type="curve"/>
      <point x="239.5" y="927.25"/>
      <point x="355.5" y="778.375"/>
      <point x="468.75" y="587.125" type="curve"/>
      <point x="319.25" y="456.0"/>
      <point x="26.25" y="205.25"/>
      <point x="-39.25" y="154.25" type="curve"/>
      <point x="-13.125" y="104.625"/>
      <point x="72.875" y="13.625"/>
    </contour>
  </outline>
</glyph>
<glyph name="y" format="2">
  <advance width="1079.0"/>
  <unicode hex="0079"/>
  <anchor x="397.585" y="0.0" name="bottom"/>
  <anchor x="682.415" y="1063.0" name="top"/>
  <outline>
    <contour>
      <point x="201.75" y="-527.125" type="curve" smooth="yes"/>
      <point x="532.375" y="-527.125"/>
      <point x="728.25" y="-291.375"/>
      <point x="838.625" y="56.0" type="curve" smooth="yes"/>
      <point x="910.0" y="280.25"/>
      <point x="982.5" y="518.75"/>
      <point x="1032.75" y="705.625" type="curve" smooth="yes"/>
      <point x="1056.5" y="794.75"/>
      <point x="1076.625" y="875.25"/>
      <point x="1092.125" y="944.125" type="curve"/>
      <point x="1042.625" y="955.875"/>
      <point x="992.25" y="961.25"/>
      <point x="938.125" y="961.25" type="curve" smooth="yes"/>
      <point x="910.0" y="961.25"/>
      <point x="881.25" y="959.625"/>
      <point x="852.75" y="957.0" type="curve"/>
      <point x="849.0" y="935.125"/>
      <point x="808.875" y="790.125"/>
      <point x="773.375" y="681.5" type="curve" smooth="yes"/>
      <point x="699.125" y="441.75"/>
      <point x="590.25" y="290.5"/>
      <point x="448.875" y="290.5" type="curve" smooth="yes"/>
      <point x="372.625" y="290.5"/>
      <point x="346.0" y="349.25"/>
      <point x="346.0" y="432.625" type="curve" smooth="yes"/>
      <point x="346.0" y="572.25"/>
      <point x="429.875" y="829.25"/>
      <point x="488.125" y="969.75" type="curve"/>
      <point x="467.5" y="974.875"/>
      <point x="398.625" y="978.625"/>
      <point x="335.25" y="978.625" type="curve" smooth="yes"/>
      <point x="287.75" y="978.625"/>
      <point x="242.5" y="976.375"/>
      <point x="219.875" y="971.875" type="curve"/>
      <point x="144.375" y="736.75"/>
      <point x="76.375" y="509.875"/>
      <point x="76.375" y="334.625" type="curve" smooth="yes"/>
      <point x="76.375" y="154.75"/>
      <point x="148.375" y="38.625"/>
      <point x="344.5" y="38.625" type="curve" smooth="yes"/>
      <point x="490.875" y="38.625"/>
      <point x="603.375" y="110.25"/>
      <point x="652.0" y="192.125" type="curve"/>
      <point x="586.875" y="-38.0"/>
      <point x="455.375" y="-281.0"/>
      <point x="247.25" y="-281.0" type="curve" smooth="yes"/>
      <point x="112.0" y="-281.0"/>
      <point x="-13.125" y="-205.375"/>
      <point x="-65.0" y="-161.75" type="curve"/>
      <point x="-108.875" y="-204.875"/>
      <point x="-211.25" y="-332.125"/>
      <point x="-245.875" y="-387.625" type="curve"/>
      <point x="-167.25" y="-452.625"/>
      <point x="4.0" y="-527.125"/>
    </contour>
  </outline>
</glyph>
<glyph name="z" format="2">
  <advance width="1074.0"/>
  <unicode hex="007A"/>
  <anchor x="367.5" y="0.0" name="bottom"/>
  <anchor x="509.5" y="532.0" name="center"/>
  <anchor x="651.5" y="1063.0" name="top"/>
  <outline>
    <contour>
      <point x="849.375" y="3.875" type="curve"/>
      <point x="864.375" y="35.125"/>
      <point x="920.375" y="221.375"/>
      <point x="927.25" y="247.75" type="curve"/>
      <point x="846.5" y="239.0"/>
      <point x="691.75" y="230.25"/>
      <point x="558.25" y="230.25" type="curve" smooth="yes"/>
      <point x="476.25" y="230.25"/>
      <point x="376.625" y="232.125"/>
      <point x="345.75" y="236.125" type="curve"/>
      <point x="446.875" y="334.625"/>
      <point x="893.75" y="721.625"/>
      <point x="1068.875" y="849.125" type="curve"/>
      <point x="1077.5" y="880.25"/>
      <point x="1112.5" y="1025.25"/>
      <point x="1112.5" y="1041.625" type="curve"/>
      <point x="1000.625" y="1043.875"/>
      <point x="847.125" y="1044.625"/>
      <point x="716.0" y="1044.625" type="curve" smooth="yes"/>
      <point x="538.125" y="1044.625"/>
      <point x="318.875" y="1045.25"/>
      <point x="240.875" y="1046.5" type="curve"/>
      <point x="172.125" y="831.5" type="line"/>
      <point x="185.875" y="833.125"/>
      <point x="297.75" y="836.125"/>
      <point x="396.625" y="836.125" type="curve" smooth="yes"/>
      <point x="506.5" y="836.125"/>
      <point x="677.625" y="837.875"/>
      <point x="721.875" y="838.125" type="curve"/>
      <point x="555.5" y="712.375"/>
      <point x="116.875" y="341.0"/>
      <point x="-1.75" y="223.0" type="curve"/>
      <point x="-69.875" y="12.0" type="line"/>
      <point x="47.25" y="-2.75"/>
      <point x="226.625" y="-8.0"/>
      <point x="404.125" y="-8.0" type="curve" smooth="yes"/>
      <point x="572.125" y="-8.0"/>
      <point x="740.75" y="-2.375"/>
    </contour>
  </outline>
</glyph>
<glyph name="braceleft" format="2">
  <advance width="665.0"/>
  <unicode hex="007B"/>
  <outline>
    <contour>
      <point x="268.0" y="-424.125" type="curve"/>
      <point x="320.75" y="-365.75"/>
      <point x="367.75" y="-303.625"/>
      <point x="414.25" y="-236.75" type="curve"/>
      <point x="334.75" y="-219.375"/>
      <point x="298.0" y="-154.875"/>
      <point x="298.0" y="-71.125" type="curve" smooth="yes"/>
      <point x="298.0" y="13.625"/>
      <point x="332.5" y="88.625"/>
      <point x="368.625" y="163.5" type="curve" smooth="yes"/>
      <point x="404.0" y="236.25"/>
      <point x="436.375" y="309.125"/>
      <point x="436.375" y="389.0" type="curve" smooth="yes"/>
      <point x="436.375" y="526.0"/>
      <point x="316.125" y="579.25"/>
      <point x="181.625" y="589.125" type="curve"/>
      <point x="175.0" y="569.375" type="line"/>
      <point x="334.5" y="575.875"/>
      <point x="487.375" y="691.5"/>
      <point x="531.625" y="865.875" type="curve" smooth="yes"/>
      <point x="546.125" y="921.0"/>
      <point x="548.375" y="959.875"/>
      <point x="548.375" y="998.0" type="curve" smooth="yes"/>
      <point x="548.375" y="1035.375"/>
      <point x="551.25" y="1072.625"/>
      <point x="564.625" y="1123.75" type="curve" smooth="yes"/>
      <point x="597.125" y="1246.0"/>
      <point x="696.375" y="1361.375"/>
      <point x="836.875" y="1386.0" type="curve"/>
      <point x="837.25" y="1440.625"/>
      <point x="832.875" y="1545.625"/>
      <point x="805.625" y="1579.25" type="curve"/>
      <point x="546.875" y="1559.875"/>
      <point x="373.125" y="1385.375"/>
      <point x="322.125" y="1181.25" type="curve" smooth="yes"/>
      <point x="310.875" y="1135.75"/>
      <point x="306.625" y="1101.75"/>
      <point x="305.375" y="1063.125" type="curve" smooth="yes"/>
      <point x="304.125" y="1027.125"/>
      <point x="302.625" y="987.625"/>
      <point x="297.375" y="932.125" type="curve" smooth="yes"/>
      <point x="284.625" y="792.875"/>
      <point x="219.75" y="697.375"/>
      <point x="80.375" y="676.875" type="curve"/>
      <point x="69.125" y="653.625"/>
      <point x="55.5" y="611.75"/>
      <point x="46.25" y="576.0" type="curve" smooth="yes"/>
      <point x="36.375" y="538.0"/>
      <point x="27.5" y="493.375"/>
      <point x="27.5" y="470.125" type="curve"/>
      <point x="127.0" y="448.875"/>
      <point x="184.625" y="399.375"/>
      <point x="184.625" y="324.75" type="curve" smooth="yes"/>
      <point x="184.625" y="237.25"/>
      <point x="151.5" y="171.5"/>
      <point x="117.625" y="104.25" type="curve" smooth="yes"/>
      <point x="82.5" y="34.25"/>
      <point x="46.25" y="-39.0"/>
      <point x="46.25" y="-142.625" type="curve" smooth="yes"/>
      <point x="46.25" y="-292.0"/>
      <point x="119.0" y="-404.0"/>
    </contour>
  </outline>
</glyph>
<glyph name="bar" format="2">
  <advance width="487.0"/>
  <unicode hex="007C"/>
  <outline>
    <contour>
      <point x="72.75" y="-556.25" type="curve"/>
      <point x="133.875" y="-416.875"/>
      <point x="218.125" y="-134.375"/>
      <point x="304.75" y="187.25" type="curve" smooth="yes"/>
      <point x="425.75" y="636.75"/>
      <point x="561.375" y="1198.5"/>
      <point x="633.125" y="1536.25" type="curve"/>
      <point x="563.25" y="1536.25"/>
      <point x="432.5" y="1530.25"/>
      <point x="391.625" y="1527.25" type="curve"/>
      <point x="260.0" y="1083.625"/>
      <point x="148.625" y="684.875"/>
      <point x="58.125" y="348.5" type="curve" smooth="yes"/>
      <point x="-44.5" y="-32.625"/>
      <point x="-119.0" y="-336.25"/>
      <point x="-166.5" y="-539.375" type="curve"/>
      <point x="-96.375" y="-553.875"/>
      <point x="5.125" y="-556.25"/>
    </contour>
  </outline>
</glyph>
<glyph name="braceright" format="2">
  <advance width="614.0"/>
  <unicode hex="007D"/>
  <outline>
    <contour>
      <point x="-89.75" y="-433.25" type="curve"/>
      <point x="138.875" y="-402.375"/>
      <point x="341.5" y="-214.375"/>
      <point x="359.875" y="4.75" type="curve" smooth="yes"/>
      <point x="366.25" y="38.625"/>
      <point x="367.375" y="75.25"/>
      <point x="366.125" y="112.125" type="curve" smooth="yes"/>
      <point x="364.875" y="149.25"/>
      <point x="366.375" y="185.625"/>
      <point x="372.0" y="217.875" type="curve" smooth="yes"/>
      <point x="385.875" y="366.0"/>
      <point x="449.75" y="470.625"/>
      <point x="585.75" y="491.375" type="curve"/>
      <point x="603.875" y="513.375"/>
      <point x="620.25" y="557.5"/>
      <point x="629.875" y="592.875" type="curve" smooth="yes"/>
      <point x="638.625" y="624.0"/>
      <point x="640.5" y="663.125"/>
      <point x="640.5" y="701.375" type="curve"/>
      <point x="557.625" y="708.875"/>
      <point x="486.0" y="740.875"/>
      <point x="486.0" y="825.875" type="curve" smooth="yes"/>
      <point x="486.0" y="902.625"/>
      <point x="519.375" y="969.375"/>
      <point x="556.125" y="1040.375" type="curve" smooth="yes"/>
      <point x="597.375" y="1120.375"/>
      <point x="640.5" y="1204.75"/>
      <point x="640.5" y="1313.125" type="curve" smooth="yes"/>
      <point x="640.5" y="1453.125"/>
      <point x="569.625" y="1577.125"/>
      <point x="432.375" y="1603.875" type="curve"/>
      <point x="380.625" y="1556.75"/>
      <point x="304.625" y="1477.75"/>
      <point x="258.5" y="1419.125" type="curve"/>
      <point x="350.875" y="1397.875"/>
      <point x="385.375" y="1333.25"/>
      <point x="385.375" y="1249.125" type="curve" smooth="yes"/>
      <point x="385.375" y="1158.125"/>
      <point x="349.375" y="1084.375"/>
      <point x="313.5" y="1012.5" type="curve" smooth="yes"/>
      <point x="278.75" y="942.25"/>
      <point x="245.125" y="873.875"/>
      <point x="245.125" y="793.0" type="curve" smooth="yes"/>
      <point x="245.125" y="646.375"/>
      <point x="378.125" y="574.875"/>
      <point x="497.25" y="570.375" type="curve"/>
      <point x="508.75" y="602.0" type="line"/>
      <point x="336.625" y="600.125"/>
      <point x="159.625" y="446.875"/>
      <point x="142.0" y="250.0" type="curve" smooth="yes"/>
      <point x="136.0" y="209.0"/>
      <point x="136.75" y="175.75"/>
      <point x="138.625" y="142.5" type="curve" smooth="yes"/>
      <point x="140.5" y="109.125"/>
      <point x="141.0" y="76.375"/>
      <point x="135.375" y="37.625" type="curve" smooth="yes"/>
      <point x="119.25" y="-107.75"/>
      <point x="37.5" y="-192.625"/>
      <point x="-124.125" y="-241.125" type="curve"/>
      <point x="-124.125" y="-325.0"/>
      <point x="-106.75" y="-402.375"/>
    </contour>
  </outline>
</glyph>
<glyph name="asciitilde" format="2">
  <advance width="1115.0"/>
  <unicode hex="007E"/>
  <outline>
    <contour>
      <point x="216.375" y="745.75" type="curve"/>
      <point x="352.125" y="635.125" type="line"/>
      <point x="372.5" y="682.875"/>
      <point x="420.0" y="760.75"/>
      <point x="498.875" y="760.75" type="curve" smooth="yes"/>
      <point x="539.375" y="760.75"/>
      <point x="577.75" y="729.0"/>
      <point x="618.5" y="692.625" type="curve" smooth="yes"/>
      <point x="668.0" y="648.0"/>
      <point x="725.125" y="598.875"/>
      <point x="799.875" y="598.875" type="curve" smooth="yes"/>
      <point x="949.0" y="598.875"/>
      <point x="1032.875" y="743.0"/>
      <point x="1046.75" y="804.125" type="curve"/>
      <point x="904.75" y="888.75" type="line"/>
      <point x="886.25" y="830.625"/>
      <point x="847.125" y="775.625"/>
      <point x="787.625" y="775.625" type="curve" smooth="yes"/>
      <point x="736.25" y="775.625"/>
      <point x="698.125" y="809.625"/>
      <point x="659.125" y="846.875" type="curve" smooth="yes"/>
      <point x="614.0" y="889.375"/>
      <point x="563.0" y="932.75"/>
      <point x="485.5" y="932.75" type="curve" smooth="yes"/>
      <point x="356.25" y="932.75"/>
      <point x="247.75" y="834.5"/>
    </contour>
  </outline>
</glyph>
<glyph name="exclamdown" format="2">
  <advance width="708.0"/>
  <unicode hex="00A1"/>
  <outline>
    <contour>
      <point x="297.375" y="645.0" type="curve"/>
      <point x="221.0" y="388.0"/>
      <point x="10.25" y="-244.625"/>
      <point x="-47.875" y="-392.875" type="curve"/>
      <point x="268.25" y="-406.625" type="line"/>
      <point x="350.375" y="-133.25"/>
      <point x="462.75" y="316.25"/>
      <point x="530.625" y="632.875" type="curve"/>
      <point x="477.125" y="639.875"/>
      <point x="348.75" y="645.0"/>
    </contour>
    <contour>
      <point x="504.875" y="1093.0" type="curve" smooth="yes"/>
      <point x="387.375" y="1093.0"/>
      <point x="275.75" y="1004.0"/>
      <point x="275.75" y="888.5" type="curve" smooth="yes"/>
      <point x="275.75" y="803.0"/>
      <point x="342.5" y="737.5"/>
      <point x="438.5" y="737.5" type="curve" smooth="yes"/>
      <point x="563.25" y="737.5"/>
      <point x="671.875" y="825.875"/>
      <point x="671.875" y="948.875" type="curve" smooth="yes"/>
      <point x="671.875" y="1030.5"/>
      <point x="608.5" y="1093.0"/>
    </contour>
  </outline>
</glyph>
<glyph name="cent" format="2">
  <advance width="1026.0"/>
  <unicode hex="00A2"/>
  <anchor x="395.125" y="111.875" name="bottom"/>
  <anchor x="645.134375" y="1174.875" name="top"/>
  <outline>
    <contour>
      <point x="761.25" y="1314.0" type="curve"/>
      <point x="639.75" y="989.125"/>
      <point x="359.875" y="369.375"/>
      <point x="171.75" y="21.125" type="curve"/>
      <point x="207.125" y="0.875"/>
      <point x="263.5" y="-12.375"/>
      <point x="318.875" y="-15.0" type="curve"/>
      <point x="448.875" y="211.625"/>
      <point x="738.625" y="856.5"/>
      <point x="890.25" y="1295.625" type="curve"/>
      <point x="874.25" y="1305.0"/>
      <point x="805.0" y="1314.0"/>
    </contour>
    <component base="c" xOffset="-6.375" yOffset="111.875"/>
  </outline>
</glyph>
<glyph name="sterling" format="2">
  <advance width="1140.0"/>
  <unicode hex="00A3"/>
  <outline>
    <contour>
      <point x="202.0" y="535.625" type="curve" smooth="yes"/>
      <point x="381.75" y="535.625"/>
      <point x="721.625" y="553.375"/>
      <point x="816.0" y="579.375" type="curve"/>
      <point x="826.25" y="617.0"/>
      <point x="854.625" y="740.0"/>
      <point x="858.375" y="770.0" type="curve"/>
      <point x="765.0" y="751.25"/>
      <point x="444.125" y="735.5"/>
      <point x="261.5" y="735.5" type="curve" smooth="yes"/>
      <point x="209.125" y="735.5"/>
      <point x="165.375" y="736.5"/>
      <point x="134.5" y="739.125" type="curve"/>
      <point x="75.375" y="541.625" type="line"/>
      <point x="98.0" y="537.625"/>
      <point x="143.75" y="535.625"/>
    </contour>
    <component base="sterlira"/>
  </outline>
</glyph>
<glyph name="currency" format="2">
  <advance width="974.0"/>
  <unicode hex="00A4"/>
  <outline>
    <contour>
      <point x="46.375" y="59.75" type="curve"/>
      <point x="119.75" y="120.625"/>
      <point x="300.625" y="290.0"/>
      <point x="353.625" y="335.625" type="curve"/>
      <point x="225.125" y="439.875" type="line"/>
      <point x="135.625" y="372.375"/>
      <point x="9.125" y="272.875"/>
      <point x="-73.75" y="204.125" type="curve"/>
      <point x="-57.875" y="180.625"/>
      <point x="31.375" y="81.5"/>
    </contour>
    <contour>
      <point x="678.625" y="79.375" type="curve"/>
      <point x="719.0" y="106.875"/>
      <point x="827.125" y="199.25"/>
      <point x="856.875" y="228.0" type="curve"/>
      <point x="817.5" y="272.875"/>
      <point x="752.625" y="365.75"/>
      <point x="702.25" y="424.625" type="curve"/>
      <point x="532.0" y="309.0" type="line"/>
      <point x="562.875" y="277.125"/>
      <point x="630.375" y="147.625"/>
    </contour>
    <contour>
      <point x="274.5" y="661.5" type="curve"/>
      <point x="437.0" y="797.0" type="line"/>
      <point x="402.375" y="870.25"/>
      <point x="336.25" y="974.625"/>
      <point x="291.0" y="1025.875" type="curve"/>
      <point x="251.625" y="1001.875"/>
      <point x="130.0" y="909.125"/>
      <point x="106.0" y="884.25" type="curve"/>
      <point x="152.375" y="817.375"/>
      <point x="218.0" y="726.0"/>
    </contour>
    <contour>
      <point x="759.875" y="664.875" type="line"/>
      <point x="848.125" y="727.375"/>
      <point x="939.375" y="806.375"/>
      <point x="1032.25" y="879.5" type="curve"/>
      <point x="1020.125" y="901.875"/>
      <point x="947.125" y="1005.875"/>
      <point x="931.25" y="1025.375" type="curve"/>
      <point x="838.375" y="949.0"/>
      <point x="731.5" y="859.625"/>
      <point x="657.25" y="795.875" type="curve"/>
    </contour>
    <component base="degree" xOffset="-126.0" yOffset="-656.0"/>
  </outline>
</glyph>
<glyph name="yen" format="2">
  <advance width="1065.0"/>
  <unicode hex="00A5"/>
  <anchor x="405.75" y="0.0" name="bottom"/>
  <anchor x="751.75" y="1291.0" name="top"/>
  <anchor x="238.75" y="1291.0" name="topleft"/>
  <outline>
    <contour>
      <point x="124.125" y="496.0" type="curve"/>
      <point x="225.5" y="498.375"/>
      <point x="860.125" y="507.375"/>
      <point x="954.125" y="507.375" type="curve"/>
      <point x="966.875" y="555.5"/>
      <point x="976.375" y="623.875"/>
      <point x="982.625" y="683.125" type="curve"/>
      <point x="901.375" y="693.125"/>
      <point x="777.25" y="697.75"/>
      <point x="638.875" y="697.75" type="curve" smooth="yes"/>
      <point x="476.125" y="697.75"/>
      <point x="339.125" y="692.75"/>
      <point x="195.0" y="682.125" type="curve"/>
      <point x="181.25" y="653.25"/>
      <point x="142.0" y="561.75"/>
    </contour>
    <contour>
      <point x="883.0" y="227.5" type="curve"/>
      <point x="900.25" y="287.0"/>
      <point x="911.0" y="366.25"/>
      <point x="914.0" y="398.75" type="curve"/>
      <point x="825.875" y="405.125"/>
      <point x="698.75" y="409.25"/>
      <point x="568.625" y="409.25" type="curve" smooth="yes"/>
      <point x="384.375" y="409.25"/>
      <point x="229.125" y="404.125"/>
      <point x="103.375" y="395.375" type="curve"/>
      <point x="78.875" y="342.375"/>
      <point x="56.875" y="291.125"/>
      <point x="41.625" y="234.25" type="curve"/>
      <point x="136.0" y="235.0"/>
      <point x="773.75" y="229.375"/>
    </contour>
    <component base="Y" xOffset="-5.25"/>
  </outline>
</glyph>
<glyph name="brokenbar" format="2">
  <advance width="432.0"/>
  <unicode hex="00A6"/>
  <outline>
    <contour>
      <point x="20.875" y="276.875" type="curve"/>
      <point x="-20.5" y="123.75"/>
      <point x="-115.625" y="-314.125"/>
      <point x="-138.875" y="-447.625" type="curve"/>
      <point x="-80.75" y="-447.625"/>
      <point x="43.5" y="-441.5"/>
      <point x="83.125" y="-427.625" type="curve"/>
      <point x="108.5" y="-308.375"/>
      <point x="237.75" y="190.0"/>
      <point x="262.75" y="285.0" type="curve"/>
      <point x="193.375" y="285.0"/>
      <point x="92.625" y="283.125"/>
    </contour>
    <contour>
      <point x="158.375" y="759.875" type="curve"/>
      <point x="179.375" y="757.375"/>
      <point x="297.0" y="751.0"/>
      <point x="397.125" y="752.125" type="curve"/>
      <point x="429.25" y="880.0"/>
      <point x="552.5" y="1331.0"/>
      <point x="595.625" y="1478.75" type="curve"/>
      <point x="560.75" y="1498.375"/>
      <point x="447.5" y="1502.0"/>
      <point x="385.25" y="1502.0" type="curve"/>
      <point x="343.125" y="1378.5"/>
      <point x="226.375" y="1014.0"/>
    </contour>
  </outline>
</glyph>
<glyph name="section" format="2">
  <advance width="1000.0"/>
  <unicode hex="00A7"/>
  <outline>
    <contour>
      <point x="574.875" y="697.875" type="curve"/>
      <point x="411.375" y="815.75" type="line"/>
      <point x="241.625" y="765.0"/>
      <point x="105.125" y="672.125"/>
      <point x="105.125" y="495.5" type="curve" smooth="yes"/>
      <point x="105.125" y="352.25"/>
      <point x="217.0" y="270.125"/>
      <point x="354.875" y="213.75" type="curve" smooth="yes"/>
      <point x="490.375" y="157.75"/>
      <point x="568.25" y="105.625"/>
      <point x="568.25" y="30.125" type="curve" smooth="yes"/>
      <point x="568.25" y="-72.5"/>
      <point x="459.625" y="-126.0"/>
      <point x="343.0" y="-126.0" type="curve" smooth="yes"/>
      <point x="224.75" y="-126.0"/>
      <point x="93.0" y="-53.25"/>
      <point x="13.25" y="29.0" type="curve"/>
      <point x="-36.5" y="-7.25"/>
      <point x="-142.625" y="-130.625"/>
      <point x="-176.625" y="-177.25" type="curve"/>
      <point x="-120.375" y="-254.875"/>
      <point x="73.875" y="-353.75"/>
      <point x="303.0" y="-353.75" type="curve" smooth="yes"/>
      <point x="568.125" y="-353.75"/>
      <point x="813.75" y="-199.5"/>
      <point x="813.75" y="56.0" type="curve" smooth="yes"/>
      <point x="813.75" y="216.5"/>
      <point x="703.0" y="321.375"/>
      <point x="550.375" y="378.625" type="curve" smooth="yes"/>
      <point x="440.375" y="422.375"/>
      <point x="361.125" y="474.625"/>
      <point x="361.125" y="540.0" type="curve" smooth="yes"/>
      <point x="361.125" y="630.25"/>
      <point x="485.0" y="688.375"/>
    </contour>
    <contour>
      <point x="538.875" y="359.625" type="curve"/>
      <point x="632.5" y="198.375" type="line"/>
      <point x="814.5" y="263.375"/>
      <point x="969.75" y="380.875"/>
      <point x="969.75" y="571.125" type="curve" smooth="yes"/>
      <point x="969.75" y="729.875"/>
      <point x="842.0" y="828.5"/>
      <point x="691.125" y="888.0" type="curve" smooth="yes"/>
      <point x="582.375" y="933.125"/>
      <point x="508.125" y="976.25"/>
      <point x="508.125" y="1035.75" type="curve" smooth="yes"/>
      <point x="508.125" y="1120.375"/>
      <point x="614.5" y="1152.375"/>
      <point x="710.5" y="1152.375" type="curve" smooth="yes"/>
      <point x="802.75" y="1152.375"/>
      <point x="904.375" y="1107.5"/>
      <point x="951.75" y="1062.375" type="curve"/>
      <point x="1024.75" y="1126.75"/>
      <point x="1099.125" y="1232.0"/>
      <point x="1111.75" y="1251.25" type="curve"/>
      <point x="1034.125" y="1314.625"/>
      <point x="880.125" y="1361.125"/>
      <point x="732.25" y="1361.125" type="curve" smooth="yes"/>
      <point x="478.625" y="1361.125"/>
      <point x="266.875" y="1238.75"/>
      <point x="266.875" y="986.75" type="curve" smooth="yes"/>
      <point x="266.875" y="848.75"/>
      <point x="350.25" y="778.25"/>
      <point x="487.125" y="723.125" type="curve" smooth="yes"/>
      <point x="619.25" y="670.125"/>
      <point x="723.875" y="618.25"/>
      <point x="723.875" y="547.375" type="curve" smooth="yes"/>
      <point x="723.875" y="463.875"/>
      <point x="629.25" y="380.0"/>
    </contour>
  </outline>
</glyph>
<glyph name="copyright" format="2">
  <advance width="1745.0"/>
  <unicode hex="00A9"/>
  <outline>
    <contour>
      <point x="742.625" y="-68.0" type="curve" smooth="yes"/>
      <point x="1289.125" y="-68.0"/>
      <point x="1700.75" y="267.25"/>
      <point x="1700.75" y="804.125" type="curve" smooth="yes"/>
      <point x="1700.75" y="1154.5"/>
      <point x="1473.0" y="1350.0"/>
      <point x="1079.125" y="1350.0" type="curve" smooth="yes"/>
      <point x="507.0" y="1350.0"/>
      <point x="66.875" y="1001.625"/>
      <point x="66.875" y="452.375" type="curve" smooth="yes"/>
      <point x="66.875" y="129.375"/>
      <point x="325.25" y="-68.0"/>
    </contour>
    <contour>
      <point x="767.625" y="141.875" type="curve" smooth="yes"/>
      <point x="512.875" y="141.875"/>
      <point x="355.375" y="276.375"/>
      <point x="355.375" y="508.75" type="curve" smooth="yes"/>
      <point x="355.375" y="882.25"/>
      <point x="657.75" y="1147.0"/>
      <point x="1035.0" y="1147.0" type="curve" smooth="yes"/>
      <point x="1308.75" y="1147.0"/>
      <point x="1442.0" y="1013.625"/>
      <point x="1442.0" y="788.5" type="curve" smooth="yes"/>
      <point x="1442.0" y="386.0"/>
      <point x="1168.0" y="141.875"/>
    </contour>
    <contour>
      <point x="819.25" y="286.25" type="curve" smooth="yes"/>
      <point x="972.25" y="286.25"/>
      <point x="1126.0" y="360.25"/>
      <point x="1228.75" y="497.25" type="curve"/>
      <point x="1192.125" y="537.125"/>
      <point x="1140.125" y="581.875"/>
      <point x="1095.875" y="607.0" type="curve"/>
      <point x="1030.875" y="537.0"/>
      <point x="951.75" y="487.875"/>
      <point x="870.25" y="487.875" type="curve" smooth="yes"/>
      <point x="804.625" y="487.875"/>
      <point x="739.125" y="510.125"/>
      <point x="739.125" y="593.0" type="curve" smooth="yes"/>
      <point x="739.125" y="709.375"/>
      <point x="846.0" y="807.25"/>
      <point x="967.125" y="807.25" type="curve" smooth="yes"/>
      <point x="1036.375" y="807.25"/>
      <point x="1094.5" y="781.375"/>
      <point x="1107.5" y="753.25" type="curve"/>
      <point x="1147.875" y="782.375"/>
      <point x="1214.0" y="841.375"/>
      <point x="1274.375" y="903.25" type="curve"/>
      <point x="1238.375" y="962.25"/>
      <point x="1139.25" y="991.25"/>
      <point x="1026.875" y="991.25" type="curve" smooth="yes"/>
      <point x="761.875" y="991.25"/>
      <point x="535.375" y="799.375"/>
      <point x="535.375" y="537.75" type="curve" smooth="yes"/>
      <point x="535.375" y="380.25"/>
      <point x="635.0" y="286.25"/>
    </contour>
  </outline>
</glyph>
<glyph name="ordfeminine" format="2">
  <advance width="750.0"/>
  <unicode hex="00AA"/>
  <outline>
    <contour>
      <point x="568.375" y="722.25" type="curve"/>
      <point x="593.75" y="717.75"/>
      <point x="649.375" y="715.75"/>
      <point x="688.375" y="715.75" type="curve" smooth="yes"/>
      <point x="703.25" y="715.75"/>
      <point x="735.625" y="716.125"/>
      <point x="741.125" y="717.125" type="curve"/>
      <point x="799.25" y="854.375"/>
      <point x="868.125" y="1053.75"/>
      <point x="868.125" y="1186.875" type="curve" smooth="yes"/>
      <point x="868.125" y="1339.125"/>
      <point x="788.25" y="1426.625"/>
      <point x="591.75" y="1426.625" type="curve" smooth="yes"/>
      <point x="453.25" y="1426.625"/>
      <point x="339.25" y="1382.875"/>
      <point x="253.5" y="1321.25" type="curve"/>
      <point x="338.75" y="1194.375" type="line"/>
      <point x="382.375" y="1228.375"/>
      <point x="468.5" y="1259.875"/>
      <point x="550.625" y="1259.875" type="curve" smooth="yes"/>
      <point x="637.25" y="1259.875"/>
      <point x="695.125" y="1228.5"/>
      <point x="695.125" y="1154.625" type="curve" smooth="yes"/>
      <point x="695.125" y="1145.875"/>
      <point x="694.125" y="1136.75"/>
      <point x="692.375" y="1127.25" type="curve"/>
      <point x="679.875" y="1140.875"/>
      <point x="580.0" y="1155.875"/>
      <point x="526.25" y="1155.875" type="curve" smooth="yes"/>
      <point x="354.0" y="1155.875"/>
      <point x="153.5" y="1084.25"/>
      <point x="153.5" y="910.25" type="curve" smooth="yes"/>
      <point x="153.5" y="781.875"/>
      <point x="237.0" y="724.125"/>
      <point x="388.25" y="724.125" type="curve" smooth="yes"/>
      <point x="467.5" y="724.125"/>
      <point x="553.625" y="757.375"/>
      <point x="597.5" y="791.625" type="curve"/>
      <point x="589.625" y="771.125"/>
      <point x="572.875" y="731.75"/>
    </contour>
    <contour>
      <point x="469.875" y="874.375" type="curve" smooth="yes"/>
      <point x="400.375" y="874.375"/>
      <point x="360.0" y="888.0"/>
      <point x="360.0" y="929.0" type="curve" smooth="yes"/>
      <point x="360.0" y="999.5"/>
      <point x="449.0" y="1028.875"/>
      <point x="526.125" y="1028.875" type="curve" smooth="yes"/>
      <point x="579.25" y="1028.875"/>
      <point x="645.5" y="1018.875"/>
      <point x="661.5" y="1012.5" type="curve"/>
      <point x="660.0" y="1001.5"/>
      <point x="656.625" y="983.75"/>
      <point x="653.5" y="973.375" type="curve" smooth="yes"/>
      <point x="650.25" y="961.625"/>
      <point x="645.625" y="947.0"/>
      <point x="639.625" y="929.0" type="curve"/>
      <point x="598.125" y="898.625"/>
      <point x="533.5" y="874.375"/>
    </contour>
  </outline>
</glyph>
<glyph name="guillemetleft" format="2">
  <advance width="1214.0"/>
  <unicode hex="00AB"/>
  <outline>
    <contour>
      <point x="1256.75" y="1135.0" type="curve"/>
      <point x="1040.125" y="980.75"/>
      <point x="800.875" y="785.75"/>
      <point x="557.25" y="570.5" type="curve"/>
      <point x="988.375" y="142.875" type="line"/>
      <point x="996.25" y="147.0"/>
      <point x="1096.25" y="333.25"/>
      <point x="1104.375" y="389.25" type="curve"/>
      <point x="1065.0" y="430.75"/>
      <point x="925.875" y="532.625"/>
      <point x="832.625" y="597.875" type="curve"/>
      <point x="1323.625" y="968.375" type="line"/>
      <point x="1320.25" y="991.0"/>
      <point x="1308.625" y="1090.875"/>
    </contour>
    <contour>
      <point x="762.75" y="1120.625" type="curve"/>
      <point x="523.25" y="924.125"/>
      <point x="296.125" y="721.625"/>
      <point x="89.625" y="527.875" type="curve"/>
      <point x="220.375" y="333.125"/>
      <point x="386.25" y="154.75"/>
      <point x="561.0" y="0.0" type="curve"/>
      <point x="564.875" y="3.875"/>
      <point x="658.25" y="141.0"/>
      <point x="690.875" y="198.125" type="curve"/>
      <point x="667.125" y="212.375"/>
      <point x="488.125" y="405.375"/>
      <point x="359.0" y="546.75" type="curve"/>
      <point x="860.875" y="988.25" type="line"/>
      <point x="851.25" y="1009.0"/>
      <point x="808.75" y="1076.75"/>
    </contour>
  </outline>
</glyph>
<glyph name="logicalnot" format="2">
  <advance width="1000.0"/>
  <unicode hex="00AC"/>
  <outline>
    <contour>
      <point x="1006.125" y="842.625" type="curve"/>
      <point x="856.5" y="842.625"/>
      <point x="271.375" y="822.75"/>
      <point x="126.125" y="811.25" type="curve"/>
      <point x="109.0" y="751.375"/>
      <point x="81.875" y="647.875"/>
      <point x="68.625" y="591.5" type="curve"/>
      <point x="176.25" y="594.0"/>
      <point x="576.125" y="610.375"/>
      <point x="727.125" y="620.5" type="curve"/>
      <point x="706.25" y="556.5"/>
      <point x="641.625" y="356.875"/>
      <point x="617.75" y="272.5" type="curve"/>
      <point x="652.375" y="270.0"/>
      <point x="787.125" y="270.375"/>
      <point x="827.875" y="272.25" type="curve"/>
      <point x="871.25" y="409.75"/>
      <point x="986.75" y="780.5"/>
    </contour>
  </outline>
</glyph>
<glyph name="softhyphen" format="2">
  <advance width="759.875"/>
  <unicode hex="00AD"/>
  <outline>
    <contour>
      <point x="780.5" y="801.25" type="curve"/>
      <point x="712.375" y="810.75"/>
      <point x="617.0" y="813.875"/>
      <point x="497.5" y="813.875" type="curve" smooth="yes"/>
      <point x="371.625" y="813.875"/>
      <point x="230.875" y="801.875"/>
      <point x="119.375" y="787.25" type="curve"/>
      <point x="103.375" y="749.0"/>
      <point x="56.25" y="607.625"/>
      <point x="40.5" y="543.125" type="curve"/>
      <point x="195.375" y="554.75"/>
      <point x="610.5" y="568.625"/>
      <point x="729.125" y="568.625" type="curve"/>
      <point x="746.0" y="631.75"/>
      <point x="771.875" y="729.125"/>
    </contour>
  </outline>
</glyph>
<glyph name="registered" format="2">
  <advance width="1400.0"/>
  <unicode hex="00AE"/>
  <outline>
    <contour>
      <point x="668.75" y="266.5" type="curve" smooth="yes"/>
      <point x="1093.125" y="266.5"/>
      <point x="1399.125" y="504.375"/>
      <point x="1399.125" y="913.0" type="curve" smooth="yes"/>
      <point x="1399.125" y="1177.625"/>
      <point x="1204.25" y="1321.0"/>
      <point x="893.75" y="1321.0" type="curve" smooth="yes"/>
      <point x="480.5" y="1321.0"/>
      <point x="129.0" y="1069.125"/>
      <point x="129.0" y="665.75" type="curve" smooth="yes"/>
      <point x="129.0" y="383.75"/>
      <point x="373.625" y="266.5"/>
    </contour>
    <contour>
      <point x="680.5" y="429.75" type="curve" smooth="yes"/>
      <point x="511.0" y="429.75"/>
      <point x="347.625" y="480.5"/>
      <point x="347.625" y="679.875" type="curve" smooth="yes"/>
      <point x="347.625" y="961.375"/>
      <point x="580.625" y="1161.875"/>
      <point x="868.75" y="1161.875" type="curve" smooth="yes"/>
      <point x="1063.625" y="1161.875"/>
      <point x="1179.0" y="1072.875"/>
      <point x="1179.0" y="907.5" type="curve" smooth="yes"/>
      <point x="1179.0" y="618.375"/>
      <point x="978.125" y="429.75"/>
    </contour>
    <contour>
      <point x="670.75" y="536.125" type="curve"/>
      <point x="682.125" y="575.25"/>
      <point x="719.5" y="712.875"/>
      <point x="725.25" y="743.5" type="curve"/>
      <point x="730.625" y="743.75"/>
      <point x="741.875" y="744.375"/>
      <point x="749.625" y="744.375" type="curve"/>
      <point x="760.875" y="678.375"/>
      <point x="766.625" y="595.25"/>
      <point x="775.75" y="536.125" type="curve"/>
      <point x="838.0" y="536.125"/>
      <point x="898.75" y="544.75"/>
      <point x="935.875" y="562.0" type="curve"/>
      <point x="928.375" y="601.875"/>
      <point x="901.5" y="739.625"/>
      <point x="881.25" y="787.125" type="curve"/>
      <point x="956.625" y="808.25"/>
      <point x="1030.25" y="875.125"/>
      <point x="1030.25" y="949.375" type="curve" smooth="yes"/>
      <point x="1030.25" y="1031.75"/>
      <point x="932.375" y="1058.75"/>
      <point x="833.0" y="1058.75" type="curve" smooth="yes"/>
      <point x="760.625" y="1058.75"/>
      <point x="696.625" y="1046.375"/>
      <point x="645.25" y="1020.625" type="curve"/>
      <point x="615.25" y="932.0"/>
      <point x="542.5" y="675.25"/>
      <point x="511.875" y="560.625" type="curve"/>
      <point x="549.625" y="547.25"/>
      <point x="613.75" y="536.125"/>
    </contour>
    <contour>
      <point x="746.625" y="854.625" type="curve"/>
      <point x="751.0" y="870.75"/>
      <point x="763.875" y="933.875"/>
      <point x="765.625" y="946.5" type="curve"/>
      <point x="780.625" y="948.875"/>
      <point x="800.875" y="950.625"/>
      <point x="819.5" y="950.625" type="curve" smooth="yes"/>
      <point x="847.875" y="950.625"/>
      <point x="872.375" y="945.75"/>
      <point x="872.375" y="924.875" type="curve" smooth="yes"/>
      <point x="872.375" y="873.875"/>
      <point x="809.125" y="854.625"/>
    </contour>
  </outline>
</glyph>
<glyph name="degree" format="2">
  <advance width="814.0"/>
  <unicode hex="00B0"/>
  <outline>
    <contour>
      <point x="512.75" y="880.625" type="curve" smooth="yes"/>
      <point x="736.25" y="880.625"/>
      <point x="948.0" y="1064.125"/>
      <point x="948.0" y="1279.375" type="curve" smooth="yes"/>
      <point x="948.0" y="1423.25"/>
      <point x="825.5" y="1519.375"/>
      <point x="649.25" y="1519.375" type="curve" smooth="yes"/>
      <point x="428.75" y="1519.375"/>
      <point x="227.375" y="1356.5"/>
      <point x="227.375" y="1140.625" type="curve" smooth="yes"/>
      <point x="227.375" y="991.25"/>
      <point x="344.75" y="880.625"/>
    </contour>
    <contour>
      <point x="547.375" y="1074.875" type="curve" smooth="yes"/>
      <point x="483.0" y="1074.875"/>
      <point x="448.25" y="1110.875"/>
      <point x="448.25" y="1168.5" type="curve" smooth="yes"/>
      <point x="448.25" y="1257.5"/>
      <point x="526.625" y="1325.125"/>
      <point x="611.375" y="1325.125" type="curve" smooth="yes"/>
      <point x="689.875" y="1325.125"/>
      <point x="722.5" y="1288.0"/>
      <point x="722.5" y="1235.5" type="curve" smooth="yes"/>
      <point x="722.5" y="1147.125"/>
      <point x="635.625" y="1074.875"/>
    </contour>
  </outline>
</glyph>
<glyph name="twosuperior" format="2">
  <advance width="733.375"/>
  <unicode hex="00B2"/>
  <outline>
    <contour>
      <point x="708.5" y="712.0" type="curve"/>
      <point x="618.125" y="706.5"/>
      <point x="470.625" y="694.5"/>
      <point x="411.375" y="686.875" type="curve"/>
      <point x="467.75" y="723.5"/>
      <point x="545.125" y="782.625"/>
      <point x="619.25" y="851.125" type="curve" smooth="yes"/>
      <point x="728.0" y="951.0"/>
      <point x="811.625" y="1069.625"/>
      <point x="811.625" y="1167.5" type="curve" smooth="yes"/>
      <point x="811.625" y="1264.125"/>
      <point x="727.0" y="1322.875"/>
      <point x="603.75" y="1322.875" type="curve" smooth="yes"/>
      <point x="457.5" y="1322.875"/>
      <point x="309.75" y="1237.5"/>
      <point x="209.875" y="1120.875" type="curve"/>
      <point x="232.625" y="1091.0"/>
      <point x="294.125" y="1031.625"/>
      <point x="334.5" y="1009.0" type="curve"/>
      <point x="376.5" y="1057.5"/>
      <point x="458.625" y="1113.25"/>
      <point x="532.25" y="1113.25" type="curve" smooth="yes"/>
      <point x="570.5" y="1113.25"/>
      <point x="595.5" y="1099.625"/>
      <point x="595.5" y="1071.125" type="curve" smooth="yes"/>
      <point x="595.5" y="1013.25"/>
      <point x="480.375" y="928.0"/>
      <point x="366.875" y="845.75" type="curve" smooth="yes"/>
      <point x="256.75" y="772.25"/>
      <point x="169.375" y="713.25"/>
      <point x="108.125" y="672.5" type="curve"/>
      <point x="95.125" y="616.625"/>
      <point x="92.75" y="506.5"/>
      <point x="92.75" y="490.0" type="curve"/>
      <point x="662.125" y="516.0" type="line"/>
      <point x="670.0" y="540.25"/>
      <point x="706.125" y="675.625"/>
    </contour>
  </outline>
</glyph>
